<?xml version="1.0" encoding="UTF-8"?> <svg xmlns="http://www.w3.org/2000/svg" width="35" height="45" viewBox="0 0 35 45" fill="none"><path d="M34.0625 5.26755L17.8125 0.0715053C17.5893 -0.0238351 17.3214 -0.0238351 17.0982 0.0715053L0.848214 5.26755C0.357143 5.45823 0 5.93494 0 6.50698V25.575C0 28.0539 0.9375 30.5804 2.8125 33.1069C4.24107 35.0614 6.20536 36.9682 8.66071 38.875C12.7679 42.0689 16.8304 44.0234 17.0089 44.0711C17.1875 44.1664 17.3214 44.1664 17.5 44.1664C17.6786 44.1664 17.8571 44.1187 17.9911 44.0711C18.1696 43.9757 22.2321 42.0213 26.3393 38.875C28.7946 36.9682 30.7589 35.0614 32.1875 33.1069C34.0625 30.5804 35 28.0539 35 25.575V6.50698C34.9107 5.93494 34.5536 5.45823 34.0625 5.26755Z" fill="#2A4C6B"></path><path d="M15.9372 32.2965C13.6604 32.2965 11.6515 31.7722 9.95508 30.6758V25.146C11.9193 26.3854 13.7051 27.0051 15.3568 27.0051C16.205 27.0051 16.8747 26.8145 17.4104 26.4808C17.9014 26.0994 18.1693 25.6227 18.1693 25.003C18.1693 24.431 17.9461 23.9542 17.5443 23.5729C17.0979 23.1915 16.5175 23.0485 15.7586 23.0485C14.5533 23.0485 13.5265 23.2869 12.6336 23.7159V20.0453L16.339 17.0897H10.3569V11.8937H22.9461V16.47L19.6871 19.2826C22.455 20.4267 23.8835 22.3811 23.8835 25.146C23.8835 27.3388 23.1246 29.055 21.5621 30.3897C20.0443 31.6768 18.1693 32.2965 15.9372 32.2965Z" fill="white"></path></svg> 