<?xml version="1.0" encoding="UTF-8"?> <!-- Generator: Adobe Illustrator 26.2.1, SVG Export Plug-In . SVG Version: 6.00 Build 0) --> <svg xmlns="http://www.w3.org/2000/svg" xmlns:xlink="http://www.w3.org/1999/xlink" version="1.1" id="Слой_1" x="0px" y="0px" viewBox="0 0 211.9 203.8" style="enable-background:new 0 0 211.9 203.8;" xml:space="preserve"> <style type="text/css"> .st0{opacity:0.54;fill:url(#SVGID_1_);enable-background:new ;} .st1{fill:url(#SVGID_00000147913749823240218530000009919607956901001109_);} .st2{opacity:0.9;fill:url(#SVGID_00000091724170940677680120000010745923686665649297_);enable-background:new ;} .st3{opacity:0.95;fill:url(#SVGID_00000181805632391858282100000013589863390036044693_);enable-background:new ;} .st4{opacity:0.9;fill:url(#SVGID_00000046310189811926037370000005319133156772067747_);enable-background:new ;} .st5{fill:url(#SVGID_00000006672709047396828220000014283820706395079076_);} .st6{fill:url(#SVGID_00000103246574125522359620000000953139531533824657_);} .st7{fill:url(#SVGID_00000085230474762209796720000006776612608807715235_);} .st8{opacity:0.9;fill:url(#SVGID_00000007386293770653022170000000568342791045094022_);enable-background:new ;} .st9{fill:url(#SVGID_00000107572044383000502230000016648231822983848591_);} .st10{fill:url(#SVGID_00000016793885866544718390000000295802967501164958_);} .st11{fill:url(#SVGID_00000126284723809055246280000004463817894711682994_);} .st12{fill:url(#SVGID_00000147206813220732455330000014977199168077651895_);} .st13{fill:url(#SVGID_00000051356034002560612860000015520795857427439249_);} .st14{fill:url(#SVGID_00000093876688959052157150000010105814733744265888_);} .st15{opacity:0.9;fill:url(#SVGID_00000083088274545516265980000012056368432839597220_);enable-background:new ;} .st16{fill:url(#SVGID_00000128451733692984413230000016588727159579566264_);} .st17{opacity:0.9;fill:url(#SVGID_00000048493104616324449200000014561974290739874234_);enable-background:new ;} .st18{fill:url(#SVGID_00000011030575452356688310000002539905239681960353_);} .st19{fill:url(#SVGID_00000100361563681415511570000013674392979829303727_);} .st20{fill:url(#SVGID_00000140009453461554527330000000175664668577480621_);} .st21{opacity:0.9;fill:url(#SVGID_00000157276920501147765550000009683706401507677875_);enable-background:new ;} .st22{opacity:0.8;fill:url(#SVGID_00000036949122195282239460000017637863985114543799_);enable-background:new ;} .st23{opacity:0.9;fill:url(#SVGID_00000150080346019885048700000000458299543813612424_);enable-background:new ;} .st24{opacity:0.9;fill:url(#SVGID_00000009551712517612402230000002163098046206310801_);enable-background:new ;} .st25{fill:url(#SVGID_00000085938338778484342160000008171182528007861376_);} .st26{fill:url(#SVGID_00000047039570402094748110000017055769431211785611_);} .st27{fill:url(#SVGID_00000052074229363319089950000004127467321713790616_);} .st28{fill:url(#SVGID_00000109007402808526906570000015889559980676447623_);} .st29{fill:url(#SVGID_00000173157073006679066120000011208561215022037634_);} .st30{opacity:0.8;fill:url(#SVGID_00000023243052953808573540000004976859182341250456_);enable-background:new ;} .st31{opacity:0.6;fill:url(#SVGID_00000096029363799587136860000012646049098020976256_);enable-background:new ;} .st32{fill:url(#SVGID_00000049202578189371402700000012484553323727758506_);} .st33{fill:url(#SVGID_00000115502755798574900430000006078315539447487896_);} </style> <g> <g> <radialGradient id="SVGID_1_" cx="-811.0535" cy="-3013.6797" r="37.7571" gradientTransform="matrix(2.0445 3.079770e-04 0.1826 -0.582 2314.3005 -1576.3914)" gradientUnits="userSpaceOnUse"> <stop offset="0.1379" style="stop-color:#4C4949"></stop> <stop offset="0.2503" style="stop-color:#504D4D;stop-opacity:0.8882"></stop> <stop offset="0.3892" style="stop-color:#5A5757;stop-opacity:0.7499"></stop> <stop offset="0.5415" style="stop-color:#6B6969;stop-opacity:0.5984"></stop> <stop offset="0.6404" style="stop-color:#797879;stop-opacity:0.5"></stop> <stop offset="0.6949" style="stop-color:#7F7E7E;stop-opacity:0.4242"></stop> <stop offset="0.7698" style="stop-color:#929090;stop-opacity:0.3201"></stop> <stop offset="0.8565" style="stop-color:#B1AEAF;stop-opacity:0.1996"></stop> <stop offset="0.9513" style="stop-color:#DFDEDE;stop-opacity:6.769490e-02"></stop> <stop offset="1" style="stop-color:#FDFDFD;stop-opacity:0"></stop> </radialGradient> <path class="st0" d="M211.5,177.7c-4.8,14.7-57.3,26.4-114,26.1c-56.7-0.3-101.7-12.3-97.2-26.7C4.8,162.4,57.6,150.7,114,151 C171,151,216.3,163,211.5,177.7z"></path> </g> <radialGradient id="SVGID_00000014617301254472796640000001473525663907837095_" cx="-702.3582" cy="-838.2454" r="70.6825" fx="-678.3806" fy="-827.2081" gradientTransform="matrix(1.4361 0 0 -1.4361 1020.8593 -1097.299)" gradientUnits="userSpaceOnUse"> <stop offset="0" style="stop-color:#72BEEA"></stop> <stop offset="0.1173" style="stop-color:#6FBAE7"></stop> <stop offset="0.2644" style="stop-color:#65AEE0"></stop> <stop offset="0.4276" style="stop-color:#569CD5"></stop> <stop offset="0.6024" style="stop-color:#4382C3"></stop> <stop offset="0.7864" style="stop-color:#3063AD"></stop> <stop offset="0.9755" style="stop-color:#214093"></stop> <stop offset="1" style="stop-color:#1F3B90"></stop> </radialGradient> <path style="fill:url(#SVGID_00000014617301254472796640000001473525663907837095_);" d="M107.4,58.6h2.1 c-1.2,40.8-12.6,90.3-67.5,88.2C73.2,147.1,106.2,128.5,107.4,58.6z"></path> <radialGradient id="SVGID_00000142147590525902653550000000883091460444619942_" cx="-726.2939" cy="-1021.049" r="94.6553" fx="-694.1841" fy="-1006.2682" gradientTransform="matrix(1.4361 0 0 -1.3188 1020.8593 -1254.5596)" gradientUnits="userSpaceOnUse"> <stop offset="0" style="stop-color:#024A9B;stop-opacity:0.9"></stop> <stop offset="0.4039" style="stop-color:#35ADE3;stop-opacity:0.95"></stop> <stop offset="0.4874" style="stop-color:#32A9E1;stop-opacity:0.8876"></stop> <stop offset="0.6017" style="stop-color:#289ED9;stop-opacity:0.8021"></stop> <stop offset="0.7338" style="stop-color:#1A8BCC;stop-opacity:0.7033"></stop> <stop offset="0.8719" style="stop-color:#1373BA;stop-opacity:0.6"></stop> </radialGradient> <path style="opacity:0.9;fill:url(#SVGID_00000142147590525902653550000000883091460444619942_);enable-background:new ;" d=" M35.1,127.6c-6.9-20.1-12.6-73.8,71.1-69.6c3-3,4.5-5.1,7.5-7.8c-53.4-2.4-75.6,6.9-84.3,16.5C14.7,82.6,15.9,109.3,35.1,127.6z"></path> <radialGradient id="SVGID_00000015335990389414321900000011267313960995278254_" cx="-4870.6558" cy="3669.8787" r="120.8397" fx="-4829.6631" fy="3688.748" gradientTransform="matrix(4.949974e-02 -1.422 1.443 0.1998 -4958.0962 -7435.9565)" gradientUnits="userSpaceOnUse"> <stop offset="0.197" style="stop-color:#7EC5ED"></stop> <stop offset="0.4477" style="stop-color:#5FABDE;stop-opacity:0.8102"></stop> <stop offset="0.8571" style="stop-color:#0F7EC2;stop-opacity:0.5"></stop> </radialGradient> <path style="opacity:0.95;fill:url(#SVGID_00000015335990389414321900000011267313960995278254_);enable-background:new ;" d=" M41.1,146.8c26.4,0,63.6-9.3,66.9-87.6c15.3,0.9,44.7,3.3,57.6,3.6c9,50.1,3.9,80.7-23.7,99.6C118.5,178.3,62.1,173.2,41.1,146.8z"></path> <linearGradient id="SVGID_00000070804482820488127890000010643335364008864132_" gradientUnits="userSpaceOnUse" x1="-3845.5979" y1="3004.9463" x2="-3803.6794" y2="3011.0366" gradientTransform="matrix(8.220000e-02 -0.9931 1.8386 0.2293 -5127.4194 -4339.1753)"> <stop offset="0" style="stop-color:#8CD0F4"></stop> <stop offset="0.4879" style="stop-color:#3F84C5"></stop> <stop offset="0.9015" style="stop-color:#044E9E"></stop> </linearGradient> <path style="opacity:0.9;fill:url(#SVGID_00000070804482820488127890000010643335364008864132_);enable-background:new ;" d=" M76.8,124.9c-12.9,4.8-35.7,15.3-45.6,20.1l8.7,2.1c18.3,24.6,78.9,32.7,102.9,14.7c-9.9,4.8-28.8,1.8-36-6.6 c7.2,0.6,11.7,0,11.7,0C99.9,146.5,90,135.4,76.8,124.9z"></path> <linearGradient id="SVGID_00000023245763258133190230000015832913247849974696_" gradientUnits="userSpaceOnUse" x1="38.0548" y1="128.2815" x2="1.7765" y2="118.4703" gradientTransform="matrix(1 0 0 -1 0 201.8821)"> <stop offset="0" style="stop-color:#D3ECF9"></stop> <stop offset="6.471080e-02" style="stop-color:#CAE6F7"></stop> <stop offset="0.1737" style="stop-color:#B0D5F1"></stop> <stop offset="0.3136" style="stop-color:#82BBE6"></stop> <stop offset="0.4774" style="stop-color:#2899D6"></stop> <stop offset="0.4909" style="stop-color:#1697D4"></stop> <stop offset="0.568" style="stop-color:#339CD7"></stop> <stop offset="0.6977" style="stop-color:#5FACE0"></stop> <stop offset="0.8631" style="stop-color:#92C8ED"></stop> <stop offset="1" style="stop-color:#BCE3F9"></stop> </linearGradient> <path style="fill:url(#SVGID_00000023245763258133190230000015832913247849974696_);" d="M33.9,90.1c0.6-0.3,0.6-0.3,0.9-0.9 C12.9,73.6,36,60.1,47.7,55.6C33.3,58.9,11.4,76.3,33.9,90.1z"></path> <linearGradient id="SVGID_00000008842052166922524230000008389394904762798514_" gradientUnits="userSpaceOnUse" x1="247.3946" y1="446.1549" x2="253.7537" y2="396.1328" gradientTransform="matrix(0.9326 0 0 -1.3551 -198.8144 672.6623)"> <stop offset="0" style="stop-color:#B9E2F9;stop-opacity:0.95"></stop> <stop offset="0.1126" style="stop-color:#A7D2F2;stop-opacity:0.9501"></stop> <stop offset="0.3373" style="stop-color:#76ACDE;stop-opacity:0.9504"></stop> <stop offset="0.4483" style="stop-color:#5899D2;stop-opacity:0.9505"></stop> <stop offset="0.5102" style="stop-color:#4A8AC9;stop-opacity:0.9447"></stop> <stop offset="0.6535" style="stop-color:#2D6DB5;stop-opacity:0.9312"></stop> <stop offset="0.7852" style="stop-color:#195AA7;stop-opacity:0.9188"></stop> <stop offset="0.9" style="stop-color:#0C4F9E;stop-opacity:0.908"></stop> <stop offset="0.9852" style="stop-color:#064B9C;stop-opacity:0.9"></stop> </linearGradient> <path style="fill:url(#SVGID_00000008842052166922524230000008389394904762798514_);" d="M50.4,109.3c-4.2,8.1-11.4,16.2-14.7,27 l-0.6-8.7C18.9,118,13.8,87.4,27,69.1c-8.4,10.5,5.1,20.7,6.6,21c0-4.2,0.3-7.2,0.3-7.2C36.9,91,42.9,102.1,50.4,109.3z"></path> <linearGradient id="SVGID_00000173149400881093116190000005918646621916263074_" gradientUnits="userSpaceOnUse" x1="33.7543" y1="105.9156" x2="52.1742" y2="105.9156" gradientTransform="matrix(1 0 0 -1 0 201.8821)"> <stop offset="0" style="stop-color:#2A90CF"></stop> <stop offset="1" style="stop-color:#B0DFF7"></stop> </linearGradient> <path style="fill:url(#SVGID_00000173149400881093116190000005918646621916263074_);" d="M35.7,82.6c4.2,9.3,8.4,17.1,16.5,26.4 l-1.8,0.3C36.6,95.5,36.3,88,33.9,82.6H35.7z"></path> <linearGradient id="SVGID_00000032621278098375082770000008585137928749335478_" gradientUnits="userSpaceOnUse" x1="129.9017" y1="43.264" x2="171.2027" y2="139.5569" gradientTransform="matrix(1 0 0 -1 0 201.8821)"> <stop offset="0" style="stop-color:#BCE3F9"></stop> <stop offset="0.1461" style="stop-color:#56A8DD"></stop> <stop offset="0.3037" style="stop-color:#5CAADF"></stop> <stop offset="0.4602" style="stop-color:#6CB3E3"></stop> <stop offset="0.6163" style="stop-color:#83C1EA"></stop> <stop offset="0.7713" style="stop-color:#A2D5F3"></stop> <stop offset="0.8325" style="stop-color:#B0DFF7"></stop> <stop offset="0.8592" style="stop-color:#ABDAF5"></stop> <stop offset="0.8911" style="stop-color:#9BCEEF"></stop> <stop offset="0.9257" style="stop-color:#81BBE5"></stop> <stop offset="0.9621" style="stop-color:#5AA0D7"></stop> <stop offset="0.9997" style="stop-color:#1081C4"></stop> <stop offset="1" style="stop-color:#0E81C4"></stop> </linearGradient> <path style="opacity:0.9;fill:url(#SVGID_00000032621278098375082770000008585137928749335478_);enable-background:new ;" d=" M164.1,62.8c1.8,9,14.4,66.6-16.5,92.7c-9.9,8.4-28.2,8.1-36.6-0.3c-1.5,0-3.9-0.3-3.9-0.3c7.5,8.4,33,17.7,51-8.4 c8.7-12.6,16.5-31.8,8.1-83.7H164.1z"></path> <linearGradient id="SVGID_00000078020696316688018800000018274268410694717868_" gradientUnits="userSpaceOnUse" x1="-6194.7227" y1="-1189.4553" x2="-6180.998" y2="-1189.4553" gradientTransform="matrix(-0.9623 0.2113 -8.720000e-02 -1.02 -5905.1401 194.0585)"> <stop offset="0" style="stop-color:#BCE3F9"></stop> <stop offset="0.362" style="stop-color:#81BEE9"></stop> <stop offset="0.752" style="stop-color:#1697D4"></stop> </linearGradient> <polygon style="fill:url(#SVGID_00000078020696316688018800000018274268410694717868_);" points="159.6,91.3 141.6,111.4 158.7,89.5 "></polygon> <linearGradient id="SVGID_00000042730081765705047960000010372190551452522626_" gradientUnits="userSpaceOnUse" x1="155.8983" y1="133.9124" x2="183.157" y2="86.6992" gradientTransform="matrix(1 0 0 -1 0 201.8821)"> <stop offset="4.433500e-02" style="stop-color:#41B4E7;stop-opacity:0.5"></stop> <stop offset="0.1386" style="stop-color:#2685C7;stop-opacity:0.7153"></stop> <stop offset="0.2414" style="stop-color:#2455A3;stop-opacity:0.95"></stop> <stop offset="0.3186" style="stop-color:#2152A1;stop-opacity:0.9476"></stop> <stop offset="0.4005" style="stop-color:#194A9B;stop-opacity:0.945"></stop> <stop offset="0.4187" style="stop-color:#164799;stop-opacity:0.9445"></stop> <stop offset="0.4858" style="stop-color:#154C9C;stop-opacity:0.9394"></stop> <stop offset="0.5898" style="stop-color:#145AA6;stop-opacity:0.9315"></stop> <stop offset="0.7176" style="stop-color:#1570B8;stop-opacity:0.9217"></stop> <stop offset="0.8629" style="stop-color:#2590CF;stop-opacity:0.9107"></stop> <stop offset="1" style="stop-color:#43B2E6;stop-opacity:0.9003"></stop> </linearGradient> <path style="fill:url(#SVGID_00000042730081765705047960000010372190551452522626_);" d="M190.8,63.1c-3.9-4.2-10.5-6.9-17.4-7.2 l-6,5.4c17.4,0,28.2,6.9,25.8,18c-3.6,12-19.2,21.6-33,22.2c0-0.3-0.9-10.2-0.9-10.2l-17.7,19.8l21,21l-0.6-8.7 c17.7-6.3,27.3-13.8,32.4-23.1C202.2,86.2,199.5,70,190.8,63.1z"></path> <linearGradient id="SVGID_00000014614503377018030960000009794471839330616507_" gradientUnits="userSpaceOnUse" x1="129.0039" y1="210.8171" x2="189.916" y2="210.8171" gradientTransform="matrix(0.9998 1.950000e-02 1.950000e-02 -0.9998 -26.8046 258.9333)"> <stop offset="0" style="stop-color:#DBDCDC"></stop> <stop offset="1" style="stop-color:#E5E5E6"></stop> </linearGradient> <polygon style="fill:url(#SVGID_00000014614503377018030960000009794471839330616507_);" points="167.4,40.3 166.8,63.4 106.2,59.2 106.5,39.1 "></polygon> <linearGradient id="SVGID_00000077309903125234632430000014181997930908507296_" gradientUnits="userSpaceOnUse" x1="162.8718" y1="225.3991" x2="163.5786" y2="220.0267" gradientTransform="matrix(0.9998 1.950000e-02 1.950000e-02 -0.9998 -26.8046 258.9333)"> <stop offset="0" style="stop-color:#D4D4D5"></stop> <stop offset="1" style="stop-color:#C8C9CA"></stop> </linearGradient> <polygon style="fill:url(#SVGID_00000077309903125234632430000014181997930908507296_);" points="167.4,40.3 174.6,36.7 114.3,34.9 106.5,39.1 "></polygon> <linearGradient id="SVGID_00000083790315702761164050000014633124152761628568_" gradientUnits="userSpaceOnUse" x1="104.1149" y1="151.1176" x2="102.4517" y2="189.4349" gradientTransform="matrix(1 0 0 -1 0 201.8821)"> <stop offset="0" style="stop-color:#A0D9F4;stop-opacity:0.5"></stop> <stop offset="0.5649" style="stop-color:#4081C1;stop-opacity:0.815"></stop> <stop offset="0.8966" style="stop-color:#0257A3"></stop> </linearGradient> <path style="fill:url(#SVGID_00000083790315702761164050000014633124152761628568_);" d="M165.6,63.7c0.9-19.8-1.8-46.5-25.2-57.6 C126-0.8,67.8-9.8,41.7,28.9c34.5-8.7,66.9-2.1,64.8,30.3L165.6,63.7z"></path> <linearGradient id="SVGID_00000119800104696521803330000016807629409970176177_" gradientUnits="userSpaceOnUse" x1="189.8709" y1="212.6809" x2="197.0222" y2="212.6809" gradientTransform="matrix(0.9998 1.950000e-02 1.950000e-02 -0.9998 -26.8046 258.9333)"> <stop offset="0" style="stop-color:#B8B9B9"></stop> <stop offset="1" style="stop-color:#E5E5E6"></stop> </linearGradient> <polygon style="fill:url(#SVGID_00000119800104696521803330000016807629409970176177_);" points="167.4,40.3 166.8,63.4 174.3,56.8 174.6,36.7 "></polygon> <radialGradient id="SVGID_00000035490381335319875470000012437150209896933526_" cx="-4887.7939" cy="908.8349" r="57.8811" fx="-4868.1592" fy="917.8731" gradientTransform="matrix(-1.7238 -1.4976 1.1433 -1.3224 -9326.8467 -6032.8242)" gradientUnits="userSpaceOnUse"> <stop offset="0" style="stop-color:#35ADE3"></stop> <stop offset="0.1469" style="stop-color:#33AAE1"></stop> <stop offset="0.3312" style="stop-color:#2EA0DA"></stop> <stop offset="0.5354" style="stop-color:#2790CF"></stop> <stop offset="0.754" style="stop-color:#257ABE"></stop> <stop offset="0.9819" style="stop-color:#275DA9"></stop> <stop offset="1" style="stop-color:#285BA7"></stop> </radialGradient> <path style="opacity:0.9;fill:url(#SVGID_00000035490381335319875470000012437150209896933526_);enable-background:new ;" d=" M41.7,28.9c20.7-37.2,93.6-33,107.4-17.1c-12.9-7.5-34.8,6-34.2,24.9c3,0.3,16.2,0.9,16.2,0.9C102.3,49,80.4,69.1,63.3,90.7 C51.6,80.2,31.8,52.9,29.4,29.5C34.2,28.9,37.5,28.6,41.7,28.9z"></path> <linearGradient id="SVGID_00000067200851116461196720000005640679106523442365_" gradientUnits="userSpaceOnUse" x1="114.6833" y1="165.9409" x2="165.9249" y2="165.9409" gradientTransform="matrix(1 0 0 -1 0 201.8821)"> <stop offset="0" style="stop-color:#BCE3F9;stop-opacity:0.8"></stop> <stop offset="4.618983e-02" style="stop-color:#B1DBF5;stop-opacity:0.832"></stop> <stop offset="0.2028" style="stop-color:#8FC4EA;stop-opacity:0.9404"></stop> <stop offset="0.2889" style="stop-color:#81BCE6"></stop> <stop offset="0.4473" style="stop-color:#89C2E9;stop-opacity:0.9673"></stop> <stop offset="0.68" style="stop-color:#9ED2F1;stop-opacity:0.9193"></stop> <stop offset="0.7734" style="stop-color:#A9DBF5;stop-opacity:0.9"></stop> <stop offset="0.8356" style="stop-color:#B3DFF6;stop-opacity:0.9"></stop> <stop offset="0.9401" style="stop-color:#CCE9F9;stop-opacity:0.9"></stop> <stop offset="1" style="stop-color:#DCF0FB;stop-opacity:0.9"></stop> </linearGradient> <path style="fill:url(#SVGID_00000067200851116461196720000005640679106523442365_);" d="M164.1,63.1l1.8-0.6 c0.6-22.8-3.6-43.8-17.1-51.3c-14.4-8.1-34.2,4.8-34.2,25.2l1.5-0.3C117.9,6.4,165.9-8,164.1,63.1z"></path> <radialGradient id="SVGID_00000181804873404119012500000003382539496904983715_" cx="-687.5454" cy="-810.3775" r="67.3782" fx="-664.6887" fy="-799.8562" gradientTransform="matrix(1.4361 0 0 -1.4361 1020.8593 -1097.299)" gradientUnits="userSpaceOnUse"> <stop offset="0" style="stop-color:#35ADE3"></stop> <stop offset="0.1469" style="stop-color:#33AAE1"></stop> <stop offset="0.3312" style="stop-color:#2EA0DA"></stop> <stop offset="0.5354" style="stop-color:#2790CF"></stop> <stop offset="0.754" style="stop-color:#257ABE"></stop> <stop offset="0.9819" style="stop-color:#275DA9"></stop> <stop offset="1" style="stop-color:#285BA7"></stop> </radialGradient> <path style="opacity:0.9;fill:url(#SVGID_00000181804873404119012500000003382539496904983715_);enable-background:new ;" d=" M130.8,39.7c-26.4,12-43.2,25.5-63.3,49.2l-4.2,1.8c27.6-35.7,57.9-49.8,67.8-53.1L130.8,39.7z"></path> <linearGradient id="SVGID_00000011710275189338450080000009498827763727586965_" gradientUnits="userSpaceOnUse" x1="264.5251" y1="-222.6206" x2="304.0168" y2="-240.4076" gradientTransform="matrix(0.9663 -0.1151 3.100000e-03 -1.0353 -98.5456 -110.1032)"> <stop offset="0" style="stop-color:#FFFFFF"></stop> <stop offset="0.7438" style="stop-color:#FFFFFF;stop-opacity:0"></stop> </linearGradient> <path style="fill:url(#SVGID_00000011710275189338450080000009498827763727586965_);" d="M189.6,62.2c14.4,18.6-9.3,38.4-29.1,39.3 c0-0.3-0.9-10.2-0.9-10.2l-17.7,19.8l21,21l-0.6-8.7c17.7-6.3,27.3-13.8,32.4-23.1C202.5,85.6,199.2,68.8,189.6,62.2z"></path> <linearGradient id="SVGID_00000062883365990045077180000007443708279319223706_" gradientUnits="userSpaceOnUse" x1="264.5251" y1="-222.6206" x2="304.0168" y2="-240.4076" gradientTransform="matrix(0.9663 -0.1151 3.100000e-03 -1.0353 -98.5456 -110.1032)"> <stop offset="0" style="stop-color:#FFFFFF"></stop> <stop offset="0.7438" style="stop-color:#FFFFFF;stop-opacity:0"></stop> </linearGradient> <path style="fill:url(#SVGID_00000062883365990045077180000007443708279319223706_);" d="M189.6,62.2c14.4,18.6-9.3,38.4-29.1,39.3 c0-0.3-0.9-10.2-0.9-10.2l-17.7,19.8l21,21l-0.6-8.7c17.7-6.3,27.3-13.8,32.4-23.1C202.5,85.6,199.2,68.8,189.6,62.2z"></path> <linearGradient id="SVGID_00000139976944540755890220000013504712569296133815_" gradientUnits="userSpaceOnUse" x1="268.8583" y1="-226.9116" x2="294.4161" y2="-249.7117" gradientTransform="matrix(0.9663 -0.1151 3.100000e-03 -1.0353 -98.5456 -110.1032)"> <stop offset="0" style="stop-color:#5089C7"></stop> <stop offset="0.2513" style="stop-color:#347CBF;stop-opacity:0.3999"></stop> <stop offset="0.4187" style="stop-color:#2676BB;stop-opacity:0"></stop> </linearGradient> <path style="fill:url(#SVGID_00000139976944540755890220000013504712569296133815_);" d="M185.1,91.3c-6.6,5.7-15.9,9.6-24.6,10.2 c0-0.3-0.9-10.2-0.9-10.2l-17.7,19.8l21,21l-0.6-8.7c17.7-6.3,27.3-13.8,32.4-23.1C202.5,85.6,193.8,83.8,185.1,91.3z"></path> <linearGradient id="SVGID_00000178201727422293098710000015032552861589834431_" gradientUnits="userSpaceOnUse" x1="181.1272" y1="130.4307" x2="149.8343" y2="93.5421" gradientTransform="matrix(1 0 0 -1 0 201.8821)"> <stop offset="0" style="stop-color:#BCE3F9"></stop> <stop offset="0.4564" style="stop-color:#148CCD"></stop> <stop offset="0.4974" style="stop-color:#248ECE"></stop> <stop offset="0.5435" style="stop-color:#4195D2"></stop> <stop offset="0.5921" style="stop-color:#62A1D8"></stop> <stop offset="0.6425" style="stop-color:#88B3E0"></stop> <stop offset="0.6941" style="stop-color:#B1CAEB"></stop> <stop offset="0.7461" style="stop-color:#DDE7F6"></stop> <stop offset="0.7833" style="stop-color:#FFFFFF"></stop> </linearGradient> <path style="opacity:0.9;fill:url(#SVGID_00000178201727422293098710000015032552861589834431_);enable-background:new ;" d=" M160.5,100c21.9-1.8,38.1-18.6,32.1-29.4c-3-5.1-10.5-9-24.9-9.3c0-0.9,0.3,1.8,0,1.2c14.7,0.3,22.5,3.9,24.9,9.6 c4.8,11.4-8.7,27.3-32.1,29.7C160.2,100.9,160.5,100,160.5,100z"></path> <linearGradient id="SVGID_00000031915090094202491030000011414951527677424285_" gradientUnits="userSpaceOnUse" x1="99.9557" y1="76.3244" x2="96.7616" y2="44.839" gradientTransform="matrix(1 0 0 -1 0 201.8821)"> <stop offset="1.477830e-02" style="stop-color:#D5EDFA"></stop> <stop offset="7.389160e-02" style="stop-color:#BCE3F9"></stop> <stop offset="0.2348" style="stop-color:#73BBE8"></stop> <stop offset="0.4022" style="stop-color:#7FC0EA"></stop> <stop offset="0.6841" style="stop-color:#9DCFF1"></stop> <stop offset="1" style="stop-color:#C3E6FA"></stop> </linearGradient> <path style="opacity:0.8;fill:url(#SVGID_00000031915090094202491030000011414951527677424285_);enable-background:new ;" d=" M76.8,124.9c9.6,8.1,24.3,22.2,42,30.3l1.5-1.5c-17.7-9.6-27.6-18.6-41.4-30C78,124,77.7,124.3,76.8,124.9z"></path> <radialGradient id="SVGID_00000018198333428142312240000005228348627269589149_" cx="-691.1089" cy="-850.3254" r="18.0075" fx="-685.0002" fy="-847.5135" gradientTransform="matrix(1.4361 0 0 -1.4361 1020.8593 -1097.299)" gradientUnits="userSpaceOnUse"> <stop offset="0" style="stop-color:#5CB4E6"></stop> <stop offset="0.1462" style="stop-color:#58B0E3"></stop> <stop offset="0.3297" style="stop-color:#4FA5DC"></stop> <stop offset="0.533" style="stop-color:#3F93D0"></stop> <stop offset="0.7506" style="stop-color:#2C7BBF"></stop> <stop offset="0.9776" style="stop-color:#1B5DA9"></stop> <stop offset="1" style="stop-color:#1A59A6"></stop> </radialGradient> <path style="opacity:0.9;fill:url(#SVGID_00000018198333428142312240000005228348627269589149_);enable-background:new ;" d=" M52.2,109c-3.3,6.6-12.6,22.2-14.7,26.7c-0.9,0.3-1.8,0.3-1.8,0.3c6.6-15.3,12.6-23.7,14.7-27C50.7,109.3,52.2,109,52.2,109z"></path> <linearGradient id="SVGID_00000052783174860134720840000007527639400827266959_" gradientUnits="userSpaceOnUse" x1="42.976" y1="63.3072" x2="70.3689" y2="72.9668" gradientTransform="matrix(1 0 0 -1 0 201.8821)"> <stop offset="0" style="stop-color:#6ABCEA"></stop> <stop offset="1" style="stop-color:#2F66AF"></stop> </linearGradient> <path style="opacity:0.9;fill:url(#SVGID_00000052783174860134720840000007527639400827266959_);enable-background:new ;" d=" M32.7,143.5l-1.5,1.5c12.6-6,36.3-16.8,45.6-20.1c0.6-0.3,1.5-0.9,1.8-1.2C63.3,129.4,40.2,140.2,32.7,143.5z"></path> <radialGradient id="SVGID_00000108288791379857359850000014854048086939334312_" cx="-622.9954" cy="-874.5928" r="8.3177" gradientTransform="matrix(1.4361 0 0 -1.4361 1020.8593 -1097.299)" gradientUnits="userSpaceOnUse"> <stop offset="8.374380e-02" style="stop-color:#FFFFFF"></stop> <stop offset="0.3529" style="stop-color:#DAEFFC;stop-opacity:0.8825"></stop> <stop offset="0.9592" style="stop-color:#5BC4F1;stop-opacity:0.6178"></stop> <stop offset="1" style="stop-color:#4CC0F0;stop-opacity:0.6"></stop> </radialGradient> <path style="fill:url(#SVGID_00000108288791379857359850000014854048086939334312_);" d="M157.8,146.8 c-5.7,11.7-21.9,23.1-42.9,13.5C124.2,163.6,142.2,169.3,157.8,146.8z"></path> <radialGradient id="SVGID_00000145753740575889110190000000413495660176946828_" cx="-586.9747" cy="-851.4819" r="0" gradientTransform="matrix(1.4361 0 0 -1.4361 1020.8593 -1097.299)" gradientUnits="userSpaceOnUse"> <stop offset="8.374380e-02" style="stop-color:#FFFFFF"></stop> <stop offset="0.3529" style="stop-color:#DAEFFC;stop-opacity:0.8825"></stop> <stop offset="0.9592" style="stop-color:#5BC4F1;stop-opacity:0.6178"></stop> <stop offset="1" style="stop-color:#4CC0F0;stop-opacity:0.6"></stop> </radialGradient> <path style="fill:url(#SVGID_00000145753740575889110190000000413495660176946828_);" d="M177.9,125.5"></path> <linearGradient id="SVGID_00000108995739856874110230000007154520813895626381_" gradientUnits="userSpaceOnUse" x1="145.5296" y1="95.8302" x2="166.1254" y2="88.4133" gradientTransform="matrix(1 0 0 -1 0 201.8821)"> <stop offset="7.881770e-02" style="stop-color:#FFFFFF;stop-opacity:0.9"></stop> <stop offset="0.3495" style="stop-color:#DAEFFC;stop-opacity:0.8119"></stop> <stop offset="0.959" style="stop-color:#5BC4F1;stop-opacity:0.6133"></stop> <stop offset="1" style="stop-color:#4CC0F0;stop-opacity:0.6"></stop> </linearGradient> <polygon style="fill:url(#SVGID_00000108995739856874110230000007154520813895626381_);" points="162.9,132.1 141.6,111.4 159.6,91.3 142.2,111.4 "></polygon> <radialGradient id="SVGID_00000094581360427330520890000005715766756536069285_" cx="-692.8262" cy="-831.7006" r="18.3629" fx="-686.5969" fy="-828.8333" gradientTransform="matrix(1.4361 0 0 -1.4361 1020.8593 -1097.299)" gradientUnits="userSpaceOnUse"> <stop offset="8.374380e-02" style="stop-color:#FFFFFF"></stop> <stop offset="0.3529" style="stop-color:#DAEFFC;stop-opacity:0.8825"></stop> <stop offset="0.9592" style="stop-color:#5BC4F1;stop-opacity:0.6178"></stop> <stop offset="1" style="stop-color:#4CC0F0;stop-opacity:0.6"></stop> </radialGradient> <path style="fill:url(#SVGID_00000094581360427330520890000005715766756536069285_);" d="M50.4,109.3c-9.3-8.1-15.3-20.7-16.5-25.5 c0,2.7,0,3.3-0.3,6c-0.3-3.6,0-6,0.3-7.2C38.1,95.8,46.8,105.4,50.4,109.3z"></path> <radialGradient id="SVGID_00000120517129697881900630000004030963712426956968_" cx="-698.123" cy="-817.2567" r="15.3692" fx="-692.9094" fy="-814.8568" gradientTransform="matrix(1.4361 0 0 -1.4361 1020.8593 -1097.299)" gradientUnits="userSpaceOnUse"> <stop offset="8.374380e-02" style="stop-color:#FFFFFF"></stop> <stop offset="0.3529" style="stop-color:#DAEFFC;stop-opacity:0.8825"></stop> <stop offset="0.9592" style="stop-color:#5BC4F1;stop-opacity:0.6178"></stop> <stop offset="1" style="stop-color:#4CC0F0;stop-opacity:0.6"></stop> </radialGradient> <path style="fill:url(#SVGID_00000120517129697881900630000004030963712426956968_);" d="M36.9,60.1c-17.4,10.5-15.6,21-3.3,29.7 C24,83.8,18.3,72.1,36.9,60.1z"></path> <linearGradient id="SVGID_00000162337836654796946000000015802240851819912352_" gradientUnits="userSpaceOnUse" x1="86.4942" y1="29.5125" x2="96.4299" y2="62.011" gradientTransform="matrix(1 0 0 -1 0 201.8821)"> <stop offset="0.1133" style="stop-color:#FFFFFF"></stop> <stop offset="0.1744" style="stop-color:#E5F4FD;stop-opacity:0.9074"></stop> <stop offset="0.2644" style="stop-color:#C1E5FA;stop-opacity:0.7711"></stop> <stop offset="0.3574" style="stop-color:#9FD8F7;stop-opacity:0.6303"></stop> <stop offset="0.4527" style="stop-color:#80CEF4;stop-opacity:0.4858"></stop> <stop offset="0.5513" style="stop-color:#66C6F2;stop-opacity:0.3364"></stop> <stop offset="0.6552" style="stop-color:#53C2F0;stop-opacity:0.179"></stop> <stop offset="0.7734" style="stop-color:#4CC0F0;stop-opacity:0"></stop> </linearGradient> <path style="opacity:0.8;fill:url(#SVGID_00000162337836654796946000000015802240851819912352_);enable-background:new ;" d=" M107.1,154.9c7.2,0.6,11.7,0,11.7,0c-18.9-8.4-28.5-19.8-42-30.3c-8.4,3.3-22.8,10.2-33.6,15c28.5,33.9,81.6,33.9,99.9,21.9 C123.9,169,109.5,157.9,107.1,154.9z"></path> <linearGradient id="SVGID_00000134222035066515327280000015683617772889801393_" gradientUnits="userSpaceOnUse" x1="65.8026" y1="179.0053" x2="105.7789" y2="151.0136" gradientTransform="matrix(1 0 0 -1 0 201.8821)"> <stop offset="3.448280e-02" style="stop-color:#FFFFFF"></stop> <stop offset="0.2826" style="stop-color:#C7E7FB;stop-opacity:0.6642"></stop> <stop offset="0.5097" style="stop-color:#90D3F5;stop-opacity:0.3569"></stop> <stop offset="0.6797" style="stop-color:#63C6F1;stop-opacity:0.1268"></stop> <stop offset="0.7734" style="stop-color:#4CC0F0;stop-opacity:0"></stop> </linearGradient> <path style="opacity:0.6;fill:url(#SVGID_00000134222035066515327280000015683617772889801393_);enable-background:new ;" d=" M148.8,11.8C138.6,1.6,108-5.6,83.7,13.9C59.1,33.7,57.3,78.1,63.3,90.7c17.1-21.9,39-41.7,67.5-53.1c0,0-13.2-0.3-16.2-0.9 C112.5,25.3,128.1,0.1,148.8,11.8z"></path> <radialGradient id="SVGID_00000023241799765805181330000013022554667668160145_" cx="-650.5259" cy="-854.8441" r="25.2652" gradientTransform="matrix(1.4361 0 0 -1.4361 1020.8593 -1097.299)" gradientUnits="userSpaceOnUse"> <stop offset="8.374380e-02" style="stop-color:#FFFFFF"></stop> <stop offset="0.3529" style="stop-color:#DAEFFC;stop-opacity:0.8825"></stop> <stop offset="0.9592" style="stop-color:#5BC4F1;stop-opacity:0.6178"></stop> <stop offset="1" style="stop-color:#4CC0F0;stop-opacity:0.6"></stop> </radialGradient> <path style="fill:url(#SVGID_00000023241799765805181330000013022554667668160145_);" d="M120.3,153.4c0,0-0.9,0.9-1.5,1.5 c-8.7-3.9-15-6.6-42-30c-15.3,6.9-36,16.2-45.6,19.8C51,136,63,130.9,76.8,124.6l1.8-1.2c0,0-1.5,1.8-1.2,1.8 c12.6,10.5,27,23.4,41.4,29.4L120.3,153.4z"></path> <radialGradient id="SVGID_00000152231409457559807940000013733463201569060495_" cx="-669.9194" cy="-815.7463" r="19.1903" gradientTransform="matrix(1.4361 0 0 -1.4361 1020.8593 -1097.299)" gradientUnits="userSpaceOnUse"> <stop offset="8.374380e-02" style="stop-color:#FFFFFF"></stop> <stop offset="0.3529" style="stop-color:#DAEFFC;stop-opacity:0.8825"></stop> <stop offset="0.9592" style="stop-color:#5BC4F1;stop-opacity:0.6178"></stop> <stop offset="1" style="stop-color:#4CC0F0;stop-opacity:0.6"></stop> </radialGradient> <path style="fill:url(#SVGID_00000152231409457559807940000013733463201569060495_);" d="M131.1,37.6C97.5,51.7,81,69.1,64.5,89.8 l3.3-0.9l-4.5,1.8c0,0-20.4-17.1-30.6-47.1c6.6,18.6,17.4,34.2,30.6,46.5C84.9,60.1,112.2,44.8,131.1,37.6z"></path> </g> </svg> 