<?xml version="1.0" encoding="UTF-8"?> <svg xmlns="http://www.w3.org/2000/svg" width="77" height="68" viewBox="0 0 77 68" fill="none"><path d="M37.4121 67.5012C37.1294 67.5012 36.8615 67.4119 36.6383 67.2184L24.5397 56.9801C24.2719 56.7568 24.123 56.4146 24.123 56.0723V11.4281C24.123 11.071 24.2719 10.7436 24.5397 10.5204L36.6383 0.281995C36.9954 -0.0156329 37.4865 -0.0900398 37.9032 0.1183C38.3199 0.311758 38.5877 0.728436 38.5877 1.20464V66.3107C38.5877 66.772 38.3199 67.1887 37.9032 67.397C37.7544 67.4714 37.5758 67.5012 37.4121 67.5012ZM26.5041 55.5217L36.2216 63.7362V3.76424L26.5041 11.9788V55.5217Z" fill="#2A4C6B"></path><path d="M13.5723 18.631C10.2389 18.631 7.51562 15.9226 7.51562 12.5743C7.51562 9.22599 10.224 6.51758 13.5723 6.51758C16.9207 6.51758 19.6291 9.22599 19.6291 12.5743C19.6291 15.9226 16.9058 18.631 13.5723 18.631ZM13.5723 8.91348C11.5485 8.91348 9.89665 10.5653 9.89665 12.5892C9.89665 14.613 11.5485 16.2649 13.5723 16.2649C15.5962 16.2649 17.248 14.613 17.248 12.5892C17.248 10.5653 15.5962 8.91348 13.5723 8.91348Z" fill="#2A4C6B"></path><path d="M4.9555 41.5321C2.21733 41.5321 0 39.3148 0 36.5766C0 33.8384 2.21733 31.6211 4.9555 31.6211C7.69367 31.6211 9.911 33.8384 9.911 36.5766C9.911 39.3148 7.69367 41.5321 4.9555 41.5321ZM4.9555 34.0021C3.54177 34.0021 2.38102 35.1629 2.38102 36.5766C2.38102 37.9903 3.54177 39.1511 4.9555 39.1511C6.36923 39.1511 7.52998 37.9903 7.52998 36.5766C7.52998 35.1629 6.36923 34.0021 4.9555 34.0021Z" fill="#2A4C6B"></path><path d="M11.5624 58.5272C9.1963 58.5272 7.26172 56.5926 7.26172 54.2265C7.26172 51.8604 9.1963 49.9258 11.5624 49.9258C13.9286 49.9258 15.8632 51.8604 15.8632 54.2265C15.8632 56.6075 13.9286 58.5272 11.5624 58.5272ZM11.5624 52.3068C10.5059 52.3068 9.64274 53.1699 9.64274 54.2265C9.64274 55.2831 10.5059 56.1462 11.5624 56.1462C12.619 56.1462 13.4821 55.2831 13.4821 54.2265C13.4821 53.1699 12.619 52.3068 11.5624 52.3068Z" fill="#2A4C6B"></path><path d="M15.2835 29.7029C15.2091 29.7029 15.1347 29.7029 15.0454 29.688C14.971 29.6732 14.8966 29.6434 14.8222 29.6136C14.7478 29.5839 14.6883 29.5541 14.6139 29.5095C14.5543 29.4648 14.4799 29.4202 14.4353 29.3606C14.3758 29.3011 14.3311 29.2416 14.2865 29.1821C14.2418 29.1225 14.2121 29.0481 14.1823 28.9737C14.1525 28.8993 14.1228 28.8249 14.1079 28.7505C14.093 28.6761 14.0781 28.5868 14.0781 28.5124C14.0781 28.438 14.093 28.3636 14.1079 28.2743C14.1228 28.1999 14.1525 28.1255 14.1823 28.0511C14.2121 27.9767 14.2418 27.9023 14.2865 27.8427C14.3311 27.7832 14.3758 27.7237 14.4353 27.6642C14.4948 27.6046 14.5543 27.56 14.6139 27.5154C14.6734 27.4707 14.7478 27.4409 14.8222 27.4112C14.8966 27.3814 14.971 27.3517 15.0454 27.3368C15.1942 27.307 15.3579 27.307 15.5067 27.3368C15.5811 27.3517 15.6556 27.3814 15.73 27.4112C15.8044 27.4409 15.8639 27.4707 15.9383 27.5154C15.9978 27.56 16.0722 27.6046 16.1169 27.6642C16.1764 27.7237 16.221 27.7832 16.2657 27.8427C16.3103 27.9023 16.3401 27.9767 16.3699 28.0511C16.3996 28.1255 16.4294 28.1999 16.4443 28.2743C16.4591 28.3487 16.474 28.4231 16.474 28.5124C16.474 28.5868 16.4591 28.6761 16.4443 28.7505C16.4294 28.8249 16.3996 28.8993 16.3699 28.9737C16.3401 29.0481 16.3103 29.1225 16.2657 29.1821C16.221 29.2416 16.1764 29.3011 16.1169 29.3606C16.0573 29.4202 15.9978 29.4648 15.9383 29.5095C15.8788 29.5541 15.8044 29.5839 15.73 29.6136C15.6556 29.6434 15.5811 29.6732 15.5067 29.688C15.4323 29.7029 15.3579 29.7029 15.2835 29.7029Z" fill="#2A4C6B"></path><path d="M31.3546 32.4854C31.2802 32.4854 31.2058 32.4705 31.1165 32.4556C31.0421 32.4407 30.9677 32.411 30.8933 32.3812C30.8188 32.3514 30.7593 32.3217 30.6849 32.277C30.6254 32.2324 30.551 32.1877 30.5063 32.1282C30.2831 31.905 30.1641 31.5925 30.1641 31.28C30.1641 31.2056 30.1789 31.1163 30.1789 31.0419C30.1938 30.9675 30.2236 30.8931 30.2534 30.8187C30.2831 30.7443 30.3278 30.6698 30.3575 30.6103C30.4022 30.5508 30.4468 30.4913 30.5063 30.4317C30.5659 30.3722 30.6254 30.3276 30.6849 30.2829C30.7444 30.2383 30.8188 30.2085 30.8933 30.1788C30.9677 30.149 31.0421 30.1192 31.1165 30.1044C31.2653 30.0746 31.429 30.0746 31.5778 30.1044C31.6522 30.1192 31.7266 30.149 31.801 30.1788C31.8754 30.2085 31.9349 30.2383 32.0094 30.2829C32.0689 30.3276 32.1433 30.3722 32.1879 30.4317C32.2475 30.4913 32.2921 30.5508 32.3367 30.6103C32.3814 30.6698 32.4112 30.7443 32.4409 30.8187C32.4707 30.8931 32.5004 30.9675 32.5004 31.0419C32.5153 31.1163 32.5302 31.1907 32.5302 31.28C32.5302 31.5925 32.3963 31.905 32.173 32.1282C32.1135 32.1877 32.054 32.2324 31.9945 32.277C31.9349 32.3217 31.8605 32.3514 31.7861 32.3812C31.7117 32.411 31.6373 32.4407 31.5629 32.4556C31.5183 32.4705 31.429 32.4854 31.3546 32.4854Z" fill="#2A4C6B"></path><path d="M32.1436 46.6678C32.0692 46.6678 31.9948 46.6678 31.9055 46.6529C31.8311 46.638 31.7567 46.6082 31.6823 46.5785C31.6079 46.5487 31.5484 46.5189 31.474 46.4743C31.4144 46.4297 31.34 46.385 31.2954 46.3255C31.2359 46.266 31.1912 46.2064 31.1466 46.1469C31.1019 46.0874 31.0722 46.013 31.0424 45.9386C31.0127 45.8642 30.9829 45.7898 30.968 45.7154C30.9531 45.6409 30.9531 45.5517 30.9531 45.4772C30.9531 45.4028 30.9531 45.3284 30.968 45.2391C30.9829 45.1647 31.0127 45.0903 31.0424 45.0159C31.0722 44.9415 31.1168 44.8671 31.1466 44.8076C31.1912 44.7481 31.2359 44.6885 31.2954 44.629C31.3549 44.5695 31.4144 44.5248 31.474 44.4802C31.5335 44.4355 31.6079 44.4058 31.6823 44.376C31.7567 44.3463 31.8311 44.3165 31.9055 44.3016C32.0543 44.2719 32.218 44.2719 32.3669 44.3016C32.4413 44.3165 32.5157 44.3463 32.5901 44.376C32.6645 44.4058 32.724 44.4355 32.7984 44.4802C32.8579 44.5248 32.9323 44.5695 32.977 44.629C33.0365 44.6885 33.0812 44.7481 33.1258 44.8076C33.1705 44.8671 33.2002 44.9415 33.23 45.0159C33.2597 45.0903 33.2895 45.1647 33.2895 45.2391C33.3044 45.3136 33.3193 45.388 33.3193 45.4772C33.3193 45.5517 33.3193 45.6409 33.2895 45.7154C33.2746 45.7898 33.2449 45.8642 33.23 45.9386C33.2002 46.013 33.1556 46.0874 33.1258 46.1469C33.0812 46.2064 33.0365 46.266 32.977 46.3255C32.9175 46.385 32.8579 46.4297 32.7984 46.4743C32.7389 46.5189 32.6645 46.5487 32.5901 46.5785C32.5157 46.6082 32.4413 46.638 32.3669 46.6529C32.3073 46.6678 32.2329 46.6678 32.1436 46.6678Z" fill="#2A4C6B"></path><path d="M15.2835 48.2588C15.2091 48.2588 15.1347 48.2439 15.0454 48.229C14.971 48.2142 14.8966 48.1844 14.8222 48.1546C14.7478 48.1249 14.6883 48.0951 14.6139 48.0505C14.5543 48.0058 14.4948 47.9612 14.4353 47.9017C14.3758 47.8421 14.3311 47.7826 14.2865 47.7231C14.2418 47.6636 14.2121 47.5891 14.1823 47.5147C14.1525 47.4403 14.1228 47.3659 14.1079 47.2915C14.093 47.2171 14.0781 47.1427 14.0781 47.0534C14.0781 46.9641 14.093 46.8897 14.1079 46.8153C14.1228 46.7409 14.1525 46.6665 14.1823 46.5921C14.2121 46.5177 14.2418 46.4433 14.2865 46.3838C14.3311 46.3242 14.3758 46.2647 14.4353 46.2052C14.4948 46.1457 14.5543 46.101 14.6139 46.0564C14.6734 46.0117 14.7478 45.982 14.8222 45.9522C14.8966 45.9224 14.971 45.8927 15.0454 45.8778C15.1942 45.848 15.3579 45.848 15.5067 45.8778C15.5811 45.8927 15.6556 45.9224 15.73 45.9522C15.8044 45.982 15.8639 46.0117 15.9383 46.0564C15.9978 46.101 16.0573 46.1457 16.1169 46.2052C16.1764 46.2647 16.221 46.3242 16.2657 46.3838C16.3103 46.4433 16.3401 46.5177 16.3699 46.5921C16.3996 46.6665 16.4294 46.7409 16.4443 46.8153C16.4591 46.8897 16.474 46.9641 16.474 47.0534C16.474 47.1427 16.4591 47.2022 16.4443 47.2915C16.4294 47.3659 16.3996 47.4403 16.3699 47.5147C16.3401 47.5891 16.3103 47.6636 16.2657 47.7231C16.221 47.7826 16.1764 47.857 16.1169 47.9017C16.0573 47.9612 15.9978 48.0058 15.9383 48.0505C15.8788 48.0951 15.8044 48.1249 15.73 48.1546C15.6556 48.1844 15.5811 48.2142 15.5067 48.229C15.4323 48.2439 15.3579 48.2588 15.2835 48.2588Z" fill="#2A4C6B"></path><path d="M6.16121 28.7491C5.8487 28.7491 5.5362 28.6152 5.31297 28.4069C5.08975 28.1837 4.9707 27.886 4.9707 27.5586C4.9707 27.4842 4.9707 27.3949 5.00047 27.3205C5.01535 27.2461 5.04511 27.1717 5.05999 27.0973C5.08975 27.0229 5.1344 26.9485 5.16416 26.889C5.20881 26.8295 5.25345 26.755 5.31297 26.7104C5.59572 26.4277 5.99752 26.3086 6.38443 26.383C6.45884 26.3979 6.53325 26.4277 6.60765 26.4574C6.68206 26.4872 6.74159 26.5318 6.81599 26.5616C6.87552 26.6062 6.94993 26.6509 6.99457 26.7104C7.0541 26.7699 7.09874 26.8295 7.14338 26.889C7.18803 26.9485 7.21779 27.0229 7.24755 27.0973C7.27732 27.1717 7.2922 27.2461 7.30708 27.3205C7.32196 27.3949 7.33684 27.4694 7.33684 27.5586C7.33684 27.8711 7.20291 28.1837 6.99457 28.4069C6.93505 28.4664 6.87552 28.511 6.81599 28.5557C6.75647 28.6003 6.68206 28.6301 6.60765 28.6599C6.53325 28.6896 6.45884 28.7194 6.38443 28.7343C6.31003 28.7491 6.23562 28.7491 6.16121 28.7491Z" fill="#2A4C6B"></path><path d="M3.86824 20.878C3.79384 20.878 3.71943 20.8631 3.63014 20.8482C3.55574 20.8333 3.48133 20.8035 3.40692 20.7738C3.33252 20.744 3.27299 20.7143 3.19858 20.6696C3.13906 20.625 3.06465 20.5803 3.02001 20.5208C2.96048 20.4613 2.91584 20.4017 2.87119 20.3422C2.82655 20.2827 2.79679 20.2083 2.76702 20.1339C2.73726 20.0595 2.72238 19.9851 2.69262 19.9107C2.67773 19.8363 2.67773 19.7619 2.67773 19.6726C2.67773 19.3601 2.81167 19.0475 3.02001 18.8243C3.07953 18.7648 3.13906 18.7202 3.19858 18.6755C3.25811 18.6309 3.33252 18.6011 3.40692 18.5713C3.48133 18.5416 3.55574 18.5118 3.63014 18.4969C3.77896 18.4672 3.94265 18.4672 4.09147 18.4969C4.16587 18.5118 4.24028 18.5416 4.31469 18.5713C4.38909 18.6011 4.44862 18.6309 4.52303 18.6755C4.58255 18.7202 4.64208 18.7648 4.7016 18.8243C4.76113 18.8838 4.80577 18.9434 4.85042 19.0029C4.89506 19.0624 4.92482 19.1368 4.95459 19.2112C4.98435 19.2856 5.01411 19.3601 5.02899 19.4345C5.04387 19.5089 5.05876 19.5833 5.05876 19.6726C5.05876 19.7619 5.05876 19.8214 5.02899 19.9107C5.01411 19.9851 4.98435 20.0595 4.95459 20.1339C4.92482 20.2083 4.89506 20.2827 4.85042 20.3422C4.80577 20.4017 4.76113 20.4762 4.7016 20.5208C4.64208 20.5803 4.58255 20.625 4.52303 20.6696C4.4635 20.7143 4.38909 20.744 4.31469 20.7738C4.24028 20.8035 4.16587 20.8333 4.09147 20.8482C4.03194 20.8631 3.95753 20.878 3.86824 20.878Z" fill="#2A4C6B"></path><path d="M3.37727 50.6404C3.30286 50.6404 3.22845 50.6255 3.13916 50.6107C3.06476 50.5958 2.99035 50.566 2.91594 50.5362C2.84154 50.5065 2.78201 50.4767 2.7076 50.4321C2.64808 50.3874 2.58855 50.3428 2.52903 50.2833C2.30581 50.06 2.17188 49.7475 2.17188 49.4499C2.17188 49.3755 2.18676 49.2862 2.20164 49.2118C2.21652 49.1374 2.24628 49.063 2.27604 48.9886C2.30581 48.9142 2.33557 48.8398 2.38021 48.7802C2.42486 48.7207 2.4695 48.6612 2.52903 48.6017C2.58855 48.5421 2.64808 48.4975 2.7076 48.4529C2.76713 48.4082 2.84154 48.3784 2.91594 48.3487C2.99035 48.3189 3.06476 48.2892 3.13916 48.2743C3.28798 48.2445 3.45167 48.2445 3.60049 48.2743C3.67489 48.2892 3.7493 48.3189 3.82371 48.3487C3.89812 48.3784 3.95764 48.4082 4.03205 48.4529C4.09157 48.4975 4.16598 48.5421 4.21062 48.6017C4.27015 48.6612 4.31479 48.7207 4.35944 48.7802C4.40408 48.8398 4.43384 48.9142 4.46361 48.9886C4.49337 49.063 4.52313 49.1374 4.53801 49.2118C4.5529 49.2862 4.5529 49.3606 4.5529 49.4499C4.5529 49.7624 4.41896 50.0749 4.21062 50.2833C4.1511 50.3428 4.09157 50.3874 4.03205 50.4321C3.97252 50.4767 3.89812 50.5065 3.82371 50.5362C3.7493 50.566 3.67489 50.5958 3.60049 50.6107C3.52608 50.6255 3.45167 50.6404 3.37727 50.6404Z" fill="#2A4C6B"></path><path d="M19.3018 39.0324C18.9893 39.0324 18.6768 38.8984 18.4536 38.6901C18.2304 38.4669 18.1113 38.1543 18.1113 37.8418C18.1113 37.7674 18.1113 37.6781 18.1411 37.6037C18.156 37.5293 18.1857 37.4549 18.2155 37.3805C18.2453 37.3061 18.2899 37.2317 18.3197 37.1722C18.3643 37.1127 18.409 37.0531 18.4685 36.9936C18.528 36.9341 18.5875 36.8894 18.6471 36.8448C18.7066 36.8001 18.781 36.7704 18.8554 36.7406C18.9298 36.7109 19.0042 36.6811 19.0786 36.6662C19.4655 36.5918 19.8822 36.7109 20.1501 36.9936C20.2096 37.0531 20.2542 37.1127 20.2989 37.1722C20.3435 37.2317 20.3733 37.3061 20.4031 37.3805C20.4328 37.4549 20.4626 37.5293 20.4775 37.6037C20.4924 37.6781 20.5072 37.7526 20.5072 37.8418C20.5072 38.1543 20.3733 38.4669 20.165 38.6901C19.9269 38.8984 19.6143 39.0324 19.3018 39.0324Z" fill="#2A4C6B"></path><path d="M29.0792 22.559C29.0048 22.559 28.9155 22.559 28.8411 22.5292C28.7667 22.5143 28.6923 22.4845 28.6179 22.4548C28.5435 22.425 28.469 22.3953 28.4095 22.3506C28.35 22.306 28.2756 22.2613 28.2309 22.2018C28.1714 22.1423 28.1268 22.0827 28.0821 22.0232C28.0375 21.9637 28.0077 21.8893 27.978 21.8149C27.9482 21.7405 27.9184 21.6661 27.9184 21.5917C27.9036 21.5173 27.8887 21.428 27.8887 21.3536C27.8887 21.2792 27.8887 21.2047 27.9184 21.1155C27.9333 21.0411 27.9631 20.9666 27.978 20.8922C28.0077 20.8178 28.0524 20.7434 28.0821 20.6839C28.1268 20.6244 28.1714 20.5648 28.2309 20.5053C28.2905 20.4458 28.35 20.4012 28.4095 20.3565C28.469 20.3119 28.5435 20.2821 28.6179 20.2523C28.6923 20.2226 28.7667 20.1928 28.8411 20.1779C29.228 20.1035 29.6447 20.2226 29.9125 20.5053C29.9721 20.5648 30.0167 20.6244 30.0614 20.6839C30.106 20.7434 30.1358 20.8178 30.1655 20.8922C30.1953 20.9666 30.2102 21.0411 30.2251 21.1155C30.2399 21.1899 30.2548 21.2643 30.2548 21.3536C30.2548 21.428 30.2399 21.5173 30.2251 21.5917C30.2102 21.6661 30.1804 21.7405 30.1655 21.8149C30.1358 21.8893 30.0911 21.9637 30.0614 22.0232C30.0167 22.0827 29.9721 22.1423 29.9125 22.2018C29.6893 22.4399 29.3917 22.559 29.0792 22.559Z" fill="#2A4C6B"></path><path d="M19.8526 25.432C19.7782 25.432 19.6889 25.4171 19.6145 25.4022C19.5401 25.3874 19.4657 25.3576 19.3913 25.3278C19.3169 25.2981 19.2425 25.2534 19.183 25.2237C19.1234 25.179 19.049 25.1344 19.0044 25.0748C18.9449 25.0153 18.9002 24.9558 18.8556 24.8963C18.8109 24.8367 18.7812 24.7623 18.7514 24.6879C18.7216 24.6135 18.6919 24.5391 18.6919 24.4647C18.677 24.3903 18.6621 24.3159 18.6621 24.2266C18.6621 24.1522 18.6621 24.0629 18.6919 23.9885C18.7068 23.9141 18.7365 23.8397 18.7514 23.7653C18.7812 23.6909 18.8258 23.6165 18.8556 23.5569C18.9002 23.4974 18.9449 23.4379 19.0044 23.3784C19.0639 23.3188 19.1234 23.2742 19.183 23.2296C19.2425 23.1849 19.3169 23.1551 19.3913 23.1254C19.4657 23.0956 19.5401 23.0659 19.6145 23.051C20.0014 22.9766 20.4181 23.0956 20.686 23.3784C20.7455 23.4379 20.7901 23.4974 20.8348 23.5569C20.8794 23.6165 20.9092 23.6909 20.939 23.7653C20.9687 23.8397 20.9836 23.9141 20.9985 23.9885C21.0134 24.0629 21.0282 24.1373 21.0282 24.2266C21.0282 24.301 21.0134 24.3754 20.9985 24.4647C20.9836 24.5391 20.9538 24.6135 20.939 24.6879C20.9092 24.7623 20.8646 24.8219 20.8348 24.8963C20.7901 24.9558 20.7455 25.0153 20.686 25.0748C20.4628 25.3129 20.1651 25.432 19.8526 25.432Z" fill="#2A4C6B"></path><path d="M65.6723 16.7268C62.5621 16.7268 59.6305 15.2089 56.9519 12.2326C54.5857 9.59864 52.2791 8.36348 50.1213 8.55694C46.9962 8.83969 44.9872 12.0392 44.9723 12.0689L42.9336 10.8338C43.0378 10.6552 45.5676 6.5926 49.8832 6.1908C52.8446 5.92294 55.8209 7.41108 58.7227 10.6552C60.9549 13.1553 63.336 14.3904 65.7765 14.3607C69.8689 14.3012 72.9196 10.7296 72.9493 10.685L74.7649 12.2178C74.6161 12.3963 70.9701 16.6524 65.8063 16.7417C65.7765 16.7268 65.7319 16.7268 65.6723 16.7268Z" fill="#2A4C6B"></path><path d="M67.4712 61.3694C64.361 61.3694 61.4293 59.8515 58.7507 56.8752C56.3845 54.2412 54.0779 53.0061 51.9201 53.1995C48.795 53.4823 46.786 56.6818 46.7712 56.7115L44.7324 55.4764C44.8366 55.2978 47.3664 51.2352 51.682 50.8334C54.6434 50.5655 57.6197 52.0537 60.5216 55.2978C62.7538 57.783 65.1199 59.033 67.5605 59.0033C71.638 58.9437 74.7184 55.3722 74.7482 55.3276L76.5637 56.8603C76.4149 57.0389 72.7689 61.295 67.6051 61.3843C67.5753 61.3694 67.5307 61.3694 67.4712 61.3694Z" fill="#2A4C6B"></path><path d="M58.4983 36.5769C55.9536 36.5769 53.5874 35.0293 51.4743 31.9637C50.2838 30.2523 48.4831 28.2434 46.6229 28.3922C44.7479 28.541 43.2151 30.9071 42.7984 31.8L40.6406 30.7881C40.7299 30.6095 42.7835 26.3237 46.4146 26.026C48.8105 25.8326 51.1766 27.3653 53.4237 30.6244C55.0904 33.0203 56.8018 34.2257 58.5429 34.2108C61.4894 34.1661 63.8109 30.6839 63.8258 30.6541L65.8199 31.9488C65.7009 32.1423 62.799 36.5174 58.5876 36.5918C58.5578 36.5769 58.528 36.5769 58.4983 36.5769Z" fill="#2A4C6B"></path></svg> 