<?xml version="1.0" encoding="UTF-8"?> <!-- Generator: Adobe Illustrator 26.2.1, SVG Export Plug-In . SVG Version: 6.00 Build 0) --> <svg xmlns="http://www.w3.org/2000/svg" xmlns:xlink="http://www.w3.org/1999/xlink" version="1.1" id="Слой_1" x="0px" y="0px" viewBox="0 0 426 403.9" style="enable-background:new 0 0 426 403.9;" xml:space="preserve"> <style type="text/css"> .st0{fill:#2A4C6B;} </style> <g> <g> <path class="st0" d="M284.2,338c-24.3,5.8-43.8-8.8-43.8-8.8s15.3,1.6,38-6.1c21.5-7.3,32.6-22.6,32.6-22.6s-9.3,10-30.3,17 c-23,7.7-43.3,7.5-43.3,7.5s-0.8-13.8,14.4-29.5s34-17.1,52.1-13.1c21.5,4.7,28.6,0.8,28.6,0.8S320.3,329.4,284.2,338"></path> <path class="st0" d="M99.5,132.7c-3.3,14.3-16,20.9-16,20.9s4.9-7.7,6.7-21.5c1.8-13.1-3.3-22.8-3.3-22.8s2.8,7.4,1,20.2 c-2,14-7.4,24.6-7.4,24.6s-7.4-3-11.7-14.9c-4.3-11.9,0-22.2,6.7-30.7c8.1-10.1,7.9-14.8,7.9-14.8S104.4,111.5,99.5,132.7"></path> <path class="st0" d="M333.2,267.9c-8,5.3-17.1,2.7-17.1,2.7s5.8-1.5,12.9-7.2c6.8-5.4,8.7-12.4,8.7-12.4s-2,4.8-8.7,10.1 c-7.3,5.8-14.6,8.4-14.6,8.4s-2.2-4.8,1.2-12.4c3.4-7.6,10-10.6,17.1-11.6c8.5-1.2,10.5-3.5,10.5-3.5S345.1,260.1,333.2,267.9"></path> <path class="st0" d="M22.3,163.1c0,0,1.3,3.3,10.2,7.8c7.4,3.7,13.5,9.5,14.4,19.1c0.8,9.6-3.4,14.1-3.4,14.1s-7.1-5.7-12.9-14.7 c-5.3-8.3-5.7-14.3-5.7-14.3s-0.5,8.3,4.9,16.8c5.7,9,11.5,12.8,11.5,12.8s-10.9-0.5-17.7-9.4c-3.7-4.8-4.8-10.3-4.8-15.4 C18.8,170.8,22.3,163.1,22.3,163.1"></path> <path class="st0" d="M148.6,278.6l-19.7-5.1c0,0-1.2,11.6-2.2,16.8l22.3,20.6l22.2-12.4c3.8-8.3,7.8-19.5,9-35.3L148.6,278.6z"></path> <path class="st0" d="M180.7,255.1c0.3-13.3-0.8-27.1-6.2-44.4l-35.2,16.5l-21.2,12.3c10.1,19,10.8,34,10.8,34l23-3.5L180.7,255.1z "></path> <path class="st0" d="M146.2,212.3l37.7-64.5l-89.2,35.8l-2.5,23c11.6,6.6,25.2,31.2,25.2,31.2l12.5-18L146.2,212.3z"></path> <path class="st0" d="M189,139.2l6-10.3L70,178.7C49.8,186.6,57,216,57,216l14.5-5.9c15.6-7.5,20.7-3.6,20.7-3.6l-5.6-26.7 L189,139.2z"></path> <path class="st0" d="M88.6,285.5c-4.5,0.3-13.9-4.5-22.3-16.6c-7.6-11.1-11.9-25.4-4.2-30.5c5.4-3.5,16.9,4.2,24,15.5 C98.4,273.8,93.8,285.1,88.6,285.5 M53,231c-14.2,13.4,8.1,45.2,8.1,45.2c18.5,23.7,29.5,17.2,29.5,17.2l29.6-16.6 c-5.2-37.2-28.1-61.7-28.1-61.7L53,231z"></path> <path class="st0" d="M407.2,72c-89.7-8.4-161.6-15-161.6-15l-89,154.2c0,0,11.6-6.3,20.7-11c22.5,49.7,10.6,116.4-32.5,134.7 c-43.8,18.5-91.5-21.7-110.5-73.8c0,0-3.8,0.5-5.7,1c10.2,32.3,58.7,112.7,130.9,75.3c-0.8,0.6,119.9-77.7,174.9-112.2 c57.2-35.8,84.9-88.8,55.4-142.6C389.7,82.4,392.3,80.3,407.2,72z M330,218c-39,24.5-110.7,70.8-149.2,95.6l-0.1,0.1 c3-4.9,5.7-10.2,8-16c12-30.7,10.5-69.4-3.8-101l-2.2-5l-1.4-3l-2.9,1.5l-0.2,0.1l71.9-124.6l37.4,3.5l94.6,8.8l-0.9,0.7l-2,1.6 l1.2,2.3l2,3.7C407.7,132.3,388.1,181.5,330,218z"></path> </g> </g> </svg> 