<?xml version="1.0" encoding="UTF-8"?> <svg xmlns="http://www.w3.org/2000/svg" width="91" height="82" viewBox="0 0 91 82" fill="none"><path d="M59.5998 32.0898H54.7036C54.2421 32.0898 53.8594 32.4733 53.8594 32.9358C53.8594 33.3982 54.2421 33.7817 54.7036 33.7817H59.5998C60.0613 33.7817 60.444 33.3982 60.444 32.9358C60.444 32.4733 60.0613 32.0898 59.5998 32.0898Z" fill="#2A4C6B"></path><path d="M54.7036 26.9224H56.9322C57.3937 26.9224 57.7764 26.5389 57.7764 26.0764C57.7764 25.614 57.3937 25.2305 56.9322 25.2305H54.7036C54.2421 25.2305 53.8594 25.614 53.8594 26.0764C53.8594 26.5389 54.2308 26.9224 54.7036 26.9224Z" fill="#2A4C6B"></path><path d="M54.7036 20.0669H57.7201C58.1816 20.0669 58.5643 19.6834 58.5643 19.2209C58.5643 18.7585 58.1816 18.375 57.7201 18.375H54.7036C54.2421 18.375 53.8594 18.7585 53.8594 19.2209C53.8594 19.6834 54.2308 20.0669 54.7036 20.0669Z" fill="#2A4C6B"></path><path d="M57.7088 45.793H54.7036C54.2421 45.793 53.8594 46.1765 53.8594 46.6389C53.8594 47.1014 54.2421 47.4849 54.7036 47.4849H57.7201C58.1816 47.4849 58.5643 47.1014 58.5643 46.6389C58.553 46.1765 58.1816 45.793 57.7088 45.793Z" fill="#2A4C6B"></path><path d="M54.7036 40.6411H56.9322C57.3937 40.6411 57.7764 40.2576 57.7764 39.7952C57.7764 39.3327 57.3937 38.9492 56.9322 38.9492H54.7036C54.2421 38.9492 53.8594 39.3327 53.8594 39.7952C53.8594 40.2576 54.2308 40.6411 54.7036 40.6411Z" fill="#2A4C6B"></path><path d="M51.0346 48.1384V20.8426C51.0346 16.6242 47.6129 13.1953 43.4033 13.1953C39.1937 13.1953 35.772 16.6242 35.772 20.8426V48.1384C32.6204 50.5296 30.752 54.2856 30.752 58.2559C30.752 65.249 36.4361 70.945 43.4146 70.945C50.3931 70.945 56.0772 65.249 56.0772 58.2559C56.0659 54.2856 54.1862 50.5409 51.0346 48.1384ZM43.4033 69.2531C37.3478 69.2531 32.429 64.3241 32.429 58.2559C32.429 54.6803 34.1737 51.3191 37.1001 49.255C37.3253 49.0971 37.4603 48.8377 37.4603 48.567V20.8539C37.4603 17.5717 40.1279 14.8985 43.4033 14.8985C46.6787 14.8985 49.3463 17.5717 49.3463 20.8539V48.5783C49.3463 48.849 49.4814 49.1084 49.7065 49.2663C52.6329 51.3304 54.3776 54.6916 54.3776 58.2671C54.3776 64.3241 49.4476 69.2531 43.4033 69.2531Z" fill="#2A4C6B"></path><path d="M47.0963 49.8209V20.8558C47.0963 18.8143 45.4417 17.1562 43.4045 17.1562C41.3672 17.1562 39.7126 18.8143 39.7126 20.8558V23.4726C39.7126 23.9351 40.0953 24.3186 40.5568 24.3186C41.0183 24.3186 41.4009 23.9351 41.4009 23.4726V20.8558C41.4009 19.7505 42.3014 18.8481 43.4045 18.8481C44.5075 18.8481 45.408 19.7505 45.408 20.8558V45.9296H41.3897V26.8677C41.3897 26.4052 41.007 26.0217 40.5455 26.0217C40.084 26.0217 39.7013 26.4052 39.7013 26.8677V49.8209C36.5047 51.2647 34.3887 54.5018 34.3887 58.0435C34.3887 63.0176 38.4295 67.0669 43.3932 67.0669C48.357 67.0669 52.3977 63.0176 52.3977 58.0435C52.409 54.5018 50.2929 51.2647 47.0963 49.8209ZM43.4045 65.3863C39.3749 65.3863 36.0883 62.0928 36.0883 58.0548C36.0883 55.0094 38.0017 52.246 40.8494 51.1857C41.1758 51.0616 41.4009 50.7458 41.4009 50.3962V47.6215H45.4192V50.3962C45.4192 50.7458 45.6331 51.0616 45.9707 51.1857C48.8184 52.246 50.7319 55.0094 50.7319 58.0548C50.7206 62.0928 47.434 65.3863 43.4045 65.3863Z" fill="#2A4C6B"></path><path d="M82.9327 52.5962C82.7076 52.5286 82.46 52.5399 82.2462 52.6526C82.0323 52.7654 81.8747 52.9459 81.8072 53.1828C76.3032 70.6205 59.1833 81.2229 41.163 79.2716C39.0919 79.046 36.9984 78.6513 34.9161 78.0873C29.0406 76.4857 23.4241 73.3839 18.6629 69.0978C16.0966 66.7855 13.8792 64.2139 12.0446 61.473L12.4048 61.2813L15.5226 59.6571C15.804 59.5104 15.9841 59.2397 16.0066 58.9239C16.0066 58.8901 16.0066 58.8562 16.0066 58.8111C15.9953 58.5404 15.8602 58.281 15.6351 58.1231L6.86697 51.7729C6.58558 51.5698 6.2254 51.5473 5.92149 51.7052C5.61759 51.8631 5.4375 52.1789 5.4375 52.5173C5.4375 52.6188 5.61759 63.289 5.62885 63.4018C5.6401 63.695 5.80894 63.9657 6.06782 64.1236C6.33795 64.2815 6.66437 64.2928 6.94576 64.1462L10.4463 62.3189C15.9053 70.643 24.6509 77.1624 34.4546 79.8356C55.5477 85.5767 77.1023 74.1057 83.518 53.7355C83.6644 53.2504 83.4055 52.7429 82.9327 52.5962ZM7.27217 54.2881L13.4065 58.7322L7.40724 61.8678L7.27217 54.2881Z" fill="#2A4C6B"></path><path d="M26.7245 4.44542C26.6795 4.43414 26.6345 4.42286 26.5894 4.42286C26.1617 4.37774 25.7453 4.64845 25.6327 5.07706C25.5089 5.55079 25.7903 6.04707 26.263 6.18242C26.7358 6.3065 27.231 6.02451 27.3661 5.55079C27.4336 5.31392 27.3998 5.07706 27.276 4.87403C27.1522 4.65973 26.9609 4.5131 26.7245 4.44542Z" fill="#2A4C6B"></path><path d="M20.5218 8.3798C20.5105 8.3798 20.5105 8.3798 20.4993 8.3798C20.2742 8.35724 20.0378 8.41364 19.8577 8.56027C13.5208 13.4216 8.9172 19.9749 6.55351 27.4868C6.48597 27.7124 6.49723 27.9606 6.60979 28.1749C6.72234 28.3892 6.90243 28.5471 7.1388 28.6148C7.61154 28.7614 8.11804 28.502 8.26437 28.0282C10.5268 20.8659 14.9165 14.6172 20.9495 9.98145C21.1071 9.85738 21.2196 9.69947 21.2647 9.50773C21.3434 9.23702 21.2872 8.94376 21.1071 8.72946C20.972 8.52643 20.7582 8.41364 20.5218 8.3798Z" fill="#2A4C6B"></path><path d="M84.6124 28.7285C84.6124 28.627 84.4323 17.9568 84.421 17.844C84.4098 17.5507 84.241 17.28 83.9821 17.1221C83.7119 16.9642 83.3855 16.9529 83.1041 17.0996L79.2434 19.1186L79.1646 19.1637C73.9645 10.5125 65.5791 4.08333 55.6178 1.38759C48.2679 -0.597554 40.4452 -0.450924 32.9939 1.8162C32.7688 1.88388 32.5775 2.04179 32.4649 2.25609C32.3523 2.4704 32.3298 2.70726 32.3974 2.94413C32.5437 3.41785 33.0389 3.68856 33.5117 3.54193C40.6478 1.36503 48.1215 1.22968 55.1451 3.12459C61.043 4.71497 66.502 7.72652 70.9368 11.8209C73.5256 14.2121 75.7654 16.9755 77.6001 19.9983L74.5386 21.6C74.2572 21.7466 74.0771 22.0173 74.0546 22.3331C74.0546 22.367 74.0546 22.4008 74.0546 22.4459C74.0658 22.7166 74.2009 22.9761 74.426 23.134L83.1942 29.4842C83.4756 29.6872 83.8358 29.7098 84.1397 29.5518C84.4323 29.3827 84.6236 29.0781 84.6124 28.7285ZM76.6546 22.5136L82.6539 19.378L82.789 26.9689L76.6546 22.5136Z" fill="#2A4C6B"></path><path d="M88.0906 43.4483C89.0811 43.9785 89.1486 44.1025 89.4075 44.1025C90.0266 44.1025 90.2404 43.2792 89.7002 42.9746L88.6759 42.3994L89.43 42.0948C89.7339 41.9708 89.8802 41.6211 89.7564 41.3053C89.6326 41.0007 89.2837 40.8541 88.9685 40.9782L87.3365 41.6549L85.1866 40.4481L87.3365 39.2412C89.0248 39.9179 88.991 39.9631 89.2049 39.9631C89.8577 39.9631 90.0378 39.0494 89.43 38.8013L88.6759 38.4968L89.7002 37.9215C89.9928 37.7636 90.0941 37.3914 89.9253 37.0981C89.7677 36.8049 89.3962 36.7034 89.1036 36.8725L88.0793 37.4478L88.2144 36.647C88.2707 36.3199 88.0456 36.0153 87.7192 35.9589C87.3927 35.9025 87.0888 36.1281 87.0326 36.4552L86.7512 38.2035L84.5563 39.4329V36.9177L85.9408 35.8123C86.1996 35.6093 86.2447 35.2258 86.0421 34.9664C85.8395 34.7069 85.4568 34.6618 85.1979 34.8648L84.5563 35.3724V34.1994C84.5563 33.8723 84.2862 33.6016 83.9598 33.6016C83.6333 33.6016 83.3632 33.8723 83.3632 34.1994V35.3724L82.7329 34.8536C82.474 34.6505 82.0913 34.6956 81.8887 34.9551C81.6861 35.2145 81.7311 35.598 81.99 35.801L83.3745 36.9064V39.4217L81.1909 38.1922L80.9095 36.4439C80.8532 36.1168 80.5493 35.8913 80.2229 35.9476C79.8965 36.004 79.6713 36.3086 79.7276 36.6357L79.8627 37.4365L78.8384 36.8613C78.5458 36.7034 78.1856 36.8049 78.0168 37.0868C77.8592 37.3801 77.9605 37.741 78.2419 37.9102L79.2661 38.4855L78.512 38.79C78.2081 38.9141 78.0618 39.2637 78.1856 39.5796C78.3094 39.8841 78.6583 40.0307 78.9735 39.9067L80.6056 39.2299L82.7554 40.4368L80.5943 41.6437L78.9622 40.9669C78.6583 40.8428 78.3094 40.9895 78.1743 41.294C78.0505 41.5985 78.1969 41.9482 78.5008 42.0836L79.2549 42.3881L78.2306 42.9633C77.6903 43.2679 77.9042 44.0913 78.5233 44.0913C78.7821 44.0913 78.8497 43.9672 79.8402 43.4371L79.7051 44.2379C79.6488 44.5988 79.9302 44.9372 80.3017 44.9372C80.5943 44.9372 80.8419 44.7229 80.8982 44.4296L81.1796 42.6814L83.3632 41.4519V43.9672L81.9788 45.0726C81.7199 45.2756 81.6749 45.6591 81.8775 45.9185C82.0801 46.1779 82.4628 46.223 82.7216 46.02L83.3632 45.5124V46.6968C83.3632 47.0239 83.6333 47.2946 83.9598 47.2946C84.2862 47.2946 84.5563 47.0239 84.5563 46.6968V45.5237C85.1078 45.9298 85.2317 46.1666 85.5693 46.1666C86.1321 46.1666 86.391 45.4448 85.9408 45.0951L84.5563 43.9897V41.4745L86.7512 42.7039L87.0326 44.4522C87.0776 44.7455 87.3365 44.9598 87.6291 44.9598C88.0005 44.9598 88.2819 44.6214 88.2257 44.2604L88.0906 43.4483Z" fill="#2A4C6B"></path><path d="M7.02687 45.8729C6.13767 44.2713 6.14893 42.726 7.06063 40.9101C8.07364 38.9024 8.09615 37.0526 7.12817 35.3945H5.2935C6.05888 36.263 6.84678 37.8647 5.65368 40.2446C4.66318 42.2185 4.56188 44.0683 5.34977 45.8729H7.02687Z" fill="#2A4C6B"></path><path d="M11.8433 45.8729C10.9541 44.2713 10.9653 42.726 11.8883 40.9101C13.1377 38.4286 12.6199 36.5563 11.9446 35.3945H10.1099C10.8753 36.263 11.6744 37.8534 10.4701 40.2446C9.47958 42.2185 9.37828 44.0683 10.1662 45.8729H11.8433Z" fill="#2A4C6B"></path><path d="M2.19725 45.8729C1.30806 44.2713 1.31931 42.726 2.24227 40.9101C3.25528 38.9024 3.26654 37.0526 2.29855 35.3945H0.475136C1.24052 36.263 2.02842 37.8534 0.835317 40.2446C-0.155181 42.2185 -0.256482 44.0683 0.531415 45.8729H2.19725Z" fill="#2A4C6B"></path></svg> 