<?xml version="1.0" encoding="UTF-8"?> <svg xmlns="http://www.w3.org/2000/svg" width="110" height="84" viewBox="0 0 110 84" fill="none"><path d="M109.285 22.5708C79.3325 -7.46884 30.6876 -7.53444 0.647981 22.4396C0.604255 22.4833 0.560529 22.527 0.49494 22.5926C-0.182809 23.2922 -0.160946 24.3854 0.538666 25.0631C1.21642 25.719 2.2877 25.719 2.96545 25.0631C31.584 -3.62098 77.9988 -3.68657 106.683 24.9319C106.727 24.9757 106.77 25.0194 106.814 25.0631C107.492 25.7409 108.607 25.7409 109.285 25.0631C109.962 24.3854 109.984 23.2704 109.285 22.5708Z" fill="#2A4C6B"></path><path d="M99.4014 32.4763C87.6392 20.6266 71.6137 13.9803 54.8886 14.0022C38.1854 13.9584 22.1599 20.6048 10.3758 32.4544C9.69805 33.154 9.71991 34.2472 10.4195 34.9249C11.0973 35.5808 12.1686 35.5808 12.8463 34.9249C36.021 11.7066 73.6251 11.6847 96.8435 34.8594C96.8653 34.8812 96.8872 34.9031 96.9091 34.9249C97.6087 35.6027 98.7018 35.5808 99.3796 34.8812C100.057 34.2253 100.057 33.1541 99.4014 32.4763Z" fill="#2A4C6B"></path><path d="M89.4977 42.3779C80.3371 33.1517 67.8753 27.9702 54.8887 28.0139C41.9022 27.9702 29.4403 33.1517 20.2798 42.3779C19.602 43.0556 19.602 44.1706 20.2798 44.8484C20.9575 45.5261 22.0726 45.5261 22.7503 44.8484C40.4374 27.0957 69.1652 27.052 86.9178 44.7609C86.9397 44.7828 86.9834 44.8265 87.0053 44.8484C87.683 45.5261 88.7981 45.5261 89.4758 44.8484C90.1973 44.1488 90.1973 43.0556 89.4977 42.3779Z" fill="#2A4C6B"></path><path d="M79.6167 52.2616C73.0797 45.6809 64.1815 41.986 54.8898 42.0079C45.62 41.986 36.6999 45.6809 30.1629 52.2616C29.4852 52.9612 29.507 54.0544 30.2066 54.7321C30.8844 55.388 31.9557 55.388 32.6334 54.7321C44.8985 42.4452 64.8156 42.4233 77.1025 54.6884C77.1244 54.7102 77.1244 54.7102 77.1462 54.7321C77.8458 55.4099 78.939 55.388 79.6167 54.6884C80.2726 54.0106 80.2726 52.9393 79.6167 52.2616Z" fill="#2A4C6B"></path><path d="M69.778 62.1638C69.7562 62.1419 69.7562 62.1419 69.7343 62.12C65.799 58.1847 60.4645 55.9766 54.8894 55.9766C49.3144 55.9766 43.9798 58.1847 40.0445 62.12C39.3449 62.7978 39.323 63.8909 40.0008 64.5905C40.6785 65.2901 41.7717 65.312 42.4713 64.6343C42.4932 64.6124 42.4932 64.6124 42.515 64.5905C49.3581 57.7693 60.4207 57.7693 67.2638 64.5905C67.9416 65.2901 69.0347 65.2902 69.7343 64.6343C70.4339 63.9784 70.4558 62.8634 69.778 62.1638Z" fill="#2A4C6B"></path><path d="M59.852 72.0466C59.852 72.0247 59.852 72.0247 59.852 72.0466C57.0754 69.4011 52.7247 69.4011 49.9481 72.0466C47.2152 74.7794 47.2152 79.2176 49.9481 81.9504C52.6809 84.6833 57.1191 84.6833 59.852 81.9504C62.5848 79.1957 62.5848 74.7794 59.852 72.0466ZM54.8891 80.4638C52.9652 80.4638 51.391 78.8896 51.391 76.9657C51.391 75.0418 52.9652 73.4676 54.8891 73.4676C56.813 73.4676 58.3872 75.0418 58.3872 76.9657C58.3872 78.8896 56.8349 80.4638 54.8891 80.4638Z" fill="#2A4C6B"></path></svg> 