<?xml version="1.0" encoding="UTF-8"?> <svg xmlns="http://www.w3.org/2000/svg" width="34" height="32" viewBox="0 0 34 32"><g><g><path fill="#e31e24" d="M7.829 16.257c-1.107-2.179-1.668-3.984-1.668-5.371-.003-1.453.287-2.891.852-4.229 2.33-5.523 8.69-8.112 14.21-5.782a.544.544 0 0 1 .114.933.54.54 0 0 1-.538.066 9.812 9.812 0 0 0-7.593 0 9.788 9.788 0 0 0-5.961 9.012c0 1.214.52 2.855 1.55 4.875a46.555 46.555 0 0 0 3.498 5.642 87.694 87.694 0 0 0 4.294 5.55.547.547 0 0 0 .826 0 87.904 87.904 0 0 0 4.293-5.55 46.556 46.556 0 0 0 3.5-5.642c1.028-2.02 1.55-3.661 1.55-4.875a9.766 9.766 0 0 0-2.858-6.916.543.543 0 0 1 .24-.914c.19-.05.39.007.527.148a10.849 10.849 0 0 1 3.174 7.682c0 1.387-.562 3.192-1.668 5.368a47.773 47.773 0 0 1-3.58 5.777 88.818 88.818 0 0 1-3.93 5.115h2.675a.543.543 0 0 1 0 1.086h-8.672a.542.542 0 0 1 0-1.086h2.674a90.18 90.18 0 0 1-3.93-5.116 47.742 47.742 0 0 1-3.58-5.773zm4.919-6.775a4.342 4.342 0 0 0 2.593 4.857 4.334 4.334 0 0 0 5.264-1.599 4.345 4.345 0 0 0-.54-5.48.542.542 0 1 1 .767-.767 5.43 5.43 0 0 1 .674 6.85 5.416 5.416 0 0 1-6.58 1.997A5.425 5.425 0 0 1 17 4.904a.542.542 0 1 1 0 1.085 4.337 4.337 0 0 0-4.252 3.493zM.962 31.205a1.574 1.574 0 0 1-.017-1.578l3.332-5.969c.302-.53.866-.856 1.476-.851h3.863a.542.542 0 1 1 0 1.084H5.753a.603.603 0 0 0-.529.296l-3.332 5.968a.49.49 0 0 0 .005.502c.11.182.31.292.524.287H31.58a.597.597 0 0 0 .524-.287.49.49 0 0 0 .005-.502l-3.332-5.968a.602.602 0 0 0-.53-.296h-3.862a.542.542 0 0 1 0-1.084h3.863a1.68 1.68 0 0 1 1.474.851l3.333 5.969a1.574 1.574 0 0 1-.017 1.578 1.67 1.67 0 0 1-1.458.824H2.42a1.668 1.668 0 0 1-1.46-.824zm26.877-5.144a.543.543 0 0 1-.542.543h-2.005l-1.488.994a.542.542 0 0 1-.602-.903l1.626-1.085a.546.546 0 0 1 .301-.091h2.168c.3 0 .542.242.542.542zm-3.252 2.713h4.336a.542.542 0 0 1 0 1.085h-4.336a.542.542 0 0 1 0-1.085zm-14.39-1.176l-1.49-.994H6.704a.543.543 0 0 1 0-1.085H8.87c.108 0 .212.032.302.091l1.626 1.085a.542.542 0 0 1-.6.903zm-.785 1.176a.542.542 0 0 1 0 1.085H5.077a.542.542 0 0 1 0-1.085z"></path></g></g></svg> 