<?xml version="1.0" encoding="UTF-8"?> <svg xmlns="http://www.w3.org/2000/svg" width="33" height="32" viewBox="0 0 33 32"><g><g><path fill="#e31e24" d="M9.312 22.832C.284 13.795-.45 7.662.525 4.109c.267-.95.89-1.76 1.741-2.26L4.973.22a1.88 1.88 0 0 1 2.533.57l4.317 6.477A1.892 1.892 0 0 1 11.41 9.8L8.99 11.686a.808.808 0 0 0-.214 1.037l.197.36c.648 1.187 1.456 2.668 4.437 5.652 2.98 2.983 4.46 3.79 5.649 4.44l.358.197c.35.196.791.102 1.034-.218l1.885-2.425a1.888 1.888 0 0 1 2.53-.411l6.472 4.319a1.881 1.881 0 0 1 .57 2.535L30.28 29.88c-.5.85-1.31 1.475-2.26 1.742a9.42 9.42 0 0 1-2.505.328c-3.675 0-9.021-1.933-16.203-9.118zm.754-.756c8.668 8.673 14.395 9.42 17.674 8.52a2.758 2.758 0 0 0 1.625-1.262l1.624-2.708a.816.816 0 0 0-.247-1.1l-6.473-4.32a.822.822 0 0 0-1.097.179l-1.885 2.424a1.863 1.863 0 0 1-2.394.494l-.35-.192c-1.249-.682-2.802-1.529-5.893-4.622-3.092-3.093-3.939-4.648-4.62-5.898l-.192-.349a1.867 1.867 0 0 1 .494-2.395l2.423-1.887a.82.82 0 0 0 .178-1.099L8.965 4.907 6.62 1.386a.815.815 0 0 0-1.099-.248L2.814 2.762A2.762 2.762 0 0 0 1.553 4.39c-.9 3.282-.155 9.013 8.513 17.686zm7.72-17.323c0-.294.238-.533.532-.533 5.59.007 10.119 4.539 10.125 10.131a.533.533 0 1 1-1.066 0c-.005-5.002-4.058-9.058-9.059-9.065a.532.532 0 0 1-.533-.533zm0 3.2c0-.295.238-.533.532-.533a6.938 6.938 0 0 1 6.928 6.931.533.533 0 1 1-1.066 0 5.872 5.872 0 0 0-5.862-5.866.532.532 0 0 1-.533-.532zm0 3.2c0-.294.238-.534.532-.534a3.736 3.736 0 0 1 3.73 3.732.533.533 0 1 1-1.065 0 2.669 2.669 0 0 0-2.665-2.665.533.533 0 0 1-.533-.533z"></path></g></g></svg> 