<?xml version="1.0" encoding="UTF-8"?> <svg xmlns="http://www.w3.org/2000/svg" width="32" height="33" viewBox="0 0 32 33"><g><g><path fill="#e31e24" d="M32.088 16.828c0 4.27-1.664 8.286-4.685 11.306a15.891 15.891 0 0 1-11.31 4.684 15.869 15.869 0 0 1-9.226-2.93l-6.05 2.88c-.41.195-.854-.234-.676-.649l2.71-6.323A15.884 15.884 0 0 1 .1 16.828C.1 12.557 1.764 8.54 4.785 5.52A15.89 15.89 0 0 1 16.094.838a15.89 15.89 0 0 1 11.31 4.683 15.883 15.883 0 0 1 4.684 11.307zm-1.002 0c0-8.265-6.725-14.988-14.992-14.988-8.267 0-14.992 6.723-14.992 14.988 0 3.108.943 6.09 2.728 8.623a.5.5 0 0 1 .051.485l-2.297 5.357 5.12-2.437a.505.505 0 0 1 .512.05 14.878 14.878 0 0 0 8.878 2.91c8.267 0 14.992-6.724 14.992-14.988zm-1.67 0c0 7.344-5.976 13.318-13.322 13.318-7.346 0-13.323-5.974-13.323-13.318 0-7.344 5.977-13.32 13.323-13.32 2.342 0 4.646.617 6.662 1.783a.5.5 0 0 1-.502.867 12.318 12.318 0 0 0-6.16-1.648C9.3 4.51 3.773 10.036 3.773 16.828S9.3 29.145 16.093 29.145c6.795 0 12.322-5.525 12.322-12.317 0-3.532-1.52-6.9-4.172-9.239a.5.5 0 1 1 .663-.75 13.33 13.33 0 0 1 4.51 9.989zM19.949 18.5l3.777.755c.201.04.357.199.395.4l.48 2.602a.5.5 0 0 1-.004.202 3.694 3.694 0 0 1-.992 1.795c-.185.185-.39.347-.613.483-.896.548-1.988.623-3.005.463-2.549-.401-6.096-1.65-8.407-3.95l-.031-.032a11.921 11.921 0 0 1-1.76-2.298.5.5 0 1 1 .859-.514c.486.813 1.027 1.52 1.609 2.104l.03.03c2.14 2.132 5.462 3.294 7.856 3.67 1.198.189 2.124-.035 2.753-.664.338-.337.579-.755.7-1.213l-.399-2.162-3.182-.637-1.602 1.602a.5.5 0 0 1-.55.107c-3.14-1.33-4.85-3.037-6.306-6.299a.5.5 0 0 1 .103-.558l1.603-1.603-.637-3.18-2.162-.4a2.694 2.694 0 0 0-1.214.7c-.63.63-.853 1.555-.665 2.753a17.126 17.126 0 0 0 1.16 3.974.5.5 0 1 1-.92.396 18.157 18.157 0 0 1-1.23-4.215c-.237-1.51.09-2.76.946-3.616a3.693 3.693 0 0 1 1.797-.992.499.499 0 0 1 .202-.004l2.602.48a.5.5 0 0 1 .4.394l.755 3.777a.5.5 0 0 1-.137.452l-1.546 1.546c1.273 2.726 2.717 4.173 5.331 5.34l1.551-1.551a.503.503 0 0 1 .453-.137z"></path></g></g></svg> 