<?xml version="1.0" encoding="UTF-8"?> <svg xmlns="http://www.w3.org/2000/svg" width="33" height="32" viewBox="0 0 33 32"><g><g><path fill="#e31e24" d="M32.541 12.12c0 .01.006.02.006.031v18.142a1.586 1.586 0 0 1-.088.505.529.529 0 0 1-.445.819.522.522 0 0 1-.14-.023c-.27.195-.594.3-.927.3H2.145a1.59 1.59 0 0 1-.924-.296.528.528 0 0 1-.586-.8 1.586 1.586 0 0 1-.09-.505V12.15c0-.011.007-.021.007-.032a.503.503 0 0 1 .022-.107.554.554 0 0 1 .03-.093.527.527 0 0 1 .053-.08.504.504 0 0 1 .073-.084c.009-.007.012-.018.021-.025L5.88 7.744v-4.13a1.6 1.6 0 0 1 1.6-1.6h5.78L15.574.214a1.582 1.582 0 0 1 1.945 0l2.314 1.798h5.78a1.6 1.6 0 0 1 1.6 1.601v4.13l5.129 3.985c.009.007.012.018.021.025a.506.506 0 0 1 .073.084c.02.025.038.053.053.08.013.03.023.061.03.093a.51.51 0 0 1 .022.109zM15 2.013h3.094l-1.23-.956a.512.512 0 0 0-.637 0zM5.88 13.22V9.095l-3.753 2.917 8.88 6.899a.533.533 0 1 1-.654.843l-8.74-6.79v17.03l13.962-10.849a1.582 1.582 0 0 1 1.944 0l13.963 10.85v-17.03l-8.756 6.8a.534.534 0 0 1-.655-.843l8.896-6.91-3.752-2.917v4.124a.533.533 0 1 1-1.067 0V3.614a.534.534 0 0 0-.533-.534H7.479a.534.534 0 0 0-.534.534v9.605a.533.533 0 1 1-1.066 0zm10.983 6.768a.515.515 0 0 0-.636 0L2.277 30.827h28.538zM10.679 6.282c0-.296.239-.534.533-.534H21.88a.533.533 0 1 1 0 1.067H11.212a.533.533 0 0 1-.533-.533zm0 3.202c0-.296.239-.534.533-.534H21.88a.533.533 0 1 1 0 1.066H11.212a.533.533 0 0 1-.533-.532zm11.734 3.2a.534.534 0 0 1-.533.535h-4.8a.534.534 0 0 1 0-1.068h4.8c.295 0 .533.238.533.534z"></path></g></g></svg> 