<?xml version="1.0" encoding="UTF-8"?> <svg xmlns="http://www.w3.org/2000/svg" width="90" height="71" viewBox="0 0 90 71"><g><g><path fill="#e31e24" d="M41.719 52.502a22.329 22.329 0 0 1-7.448-24.884 22.345 22.345 0 0 1 21.143-15.102c9.552 0 18.049 6.069 21.143 15.102a22.33 22.33 0 0 1-7.449 24.884l.504 2.407a2.977 2.977 0 0 1-2.857 3.824H44.071a2.976 2.976 0 0 1-2.856-3.824zM65.842 33.42a1.49 1.49 0 0 0-1.49-1.488H46.476c-.823 0-1.489.668-1.49 1.488v16.38h20.857zm.913 22.335a1.571 1.571 0 0 1-.045-.166l-.588-2.811H44.705l-.587 2.81a1.474 1.474 0 0 1-.047.168zM55.414 15.549a19.34 19.34 0 0 0-17.969 12.11 19.319 19.319 0 0 0 4.56 21.174V33.419a4.473 4.473 0 0 1 4.47-4.468h17.878a4.473 4.473 0 0 1 4.47 4.468v15.414a19.32 19.32 0 0 0 4.559-21.175A19.34 19.34 0 0 0 55.414 15.55zM1.779 70.647a1.49 1.49 0 0 1-1.49-1.491V58.733a4.472 4.472 0 0 1 4.47-4.466h16.388V35.64a35.207 35.207 0 0 1 3.232-14.754 9.266 9.266 0 0 1 .184-13.833C29.02 2.596 37.545.269 41.281 3.804A33.29 33.29 0 0 1 54.907.662a34.267 34.267 0 0 1 24.562 9.845 34.218 34.218 0 0 1 10.21 24.4v22.338c-.007 6.575-5.338 11.904-11.918 11.91h-5.31a9.043 9.043 0 0 1-3.546-.738 39.703 39.703 0 0 0-14.237-2.24 39.712 39.712 0 0 0-14.237 2.24 9.036 9.036 0 0 1-3.546.739h-3.819a11.896 11.896 0 0 1-9.29-4.467H3.27v4.467a1.49 1.49 0 0 1-1.49 1.49zM26.67 9.157a6.308 6.308 0 0 0-.823 8.89A35.102 35.102 0 0 1 38.295 5.385a8.017 8.017 0 0 0-4.54-.043 15.191 15.191 0 0 0-7.085 3.815zm28.28-5.516C37.955 3.885 24.127 18.24 24.127 35.64v8.202h4.47a1.49 1.49 0 1 1 0 2.978h-4.47v2.978h4.47a1.49 1.49 0 1 1 0 2.979h-4.47v4.468c.005 4.931 4.004 8.928 8.939 8.933h3.82a6.105 6.105 0 0 0 2.385-.503A42.074 42.074 0 0 1 54.668 63.2a42.074 42.074 0 0 1 15.398 2.476 6.112 6.112 0 0 0 2.386.503h5.31c4.934-.005 8.933-4.002 8.938-8.933v-4.468h-4.47a1.49 1.49 0 0 1 0-2.978h4.47V46.82h-4.47a1.49 1.49 0 1 1 0-2.978h4.47v-8.935a31.247 31.247 0 0 0-9.322-22.28A31.277 31.277 0 0 0 54.95 3.641zM4.76 57.245c-.823 0-1.49.667-1.491 1.488v2.978h18.756a11.832 11.832 0 0 1-.878-4.466zm26.816 4.466a1.489 1.489 0 1 1 0-2.978 1.489 1.489 0 0 1 0 2.978zm47.675 0a1.49 1.49 0 1 1-.001-2.979 1.49 1.49 0 0 1 0 2.979zM55.414 34.907a4.474 4.474 0 0 1 4.469 4.47 4.468 4.468 0 0 1-4.47 4.465 4.468 4.468 0 1 1 0-8.935zm0 5.957a1.49 1.49 0 1 0 0-2.979 1.49 1.49 0 0 0 0 2.98z"></path></g></g></svg> 