<?xml version="1.0" encoding="UTF-8"?> <svg xmlns="http://www.w3.org/2000/svg" width="70" height="70" viewBox="0 0 70 70"><g><g><path fill="#e31e24" d="M68.97 52.356c.566 0 1.025.46 1.025 1.026v12.854a3.763 3.763 0 0 1-3.76 3.76H3.765a3.763 3.763 0 0 1-3.76-3.76V3.764a3.763 3.763 0 0 1 3.76-3.76h13.37a1.025 1.025 0 1 1 0 2.051H3.764a1.71 1.71 0 0 0-1.709 1.709v62.472a1.71 1.71 0 0 0 1.709 1.709h62.472a1.71 1.71 0 0 0 1.709-1.71V53.382c0-.566.458-1.025 1.025-1.025zM66.236.005a3.763 3.763 0 0 1 3.76 3.759v44.898a1.025 1.025 0 1 1-2.051 0V3.764a1.71 1.71 0 0 0-1.71-1.709H21.855a1.025 1.025 0 0 1 0-2.05zM35 5.875c7.85 0 15.23 3.057 20.78 8.607 5.55 5.55 8.607 12.93 8.607 20.78a29.335 29.335 0 0 1-7.494 19.602 1.025 1.025 0 1 1-1.527-1.368 27.287 27.287 0 0 0 6.97-18.233C62.337 20.189 50.075 7.926 35 7.926c-15.074 0-27.337 12.263-27.337 27.337 0 15.073 12.263 27.336 27.337 27.336 6.27 0 12.17-2.066 17.059-5.977a1.026 1.026 0 0 1 1.28 1.602C48.084 62.428 41.742 64.65 35 64.65c-7.849 0-15.228-3.057-20.78-8.607-5.55-5.551-8.606-12.93-8.606-20.78 0-7.85 3.056-15.23 8.607-20.78C19.77 8.931 27.15 5.874 35 5.874zm0 3.893c14.058 0 25.495 11.437 25.495 25.495 0 14.057-11.437 25.494-25.495 25.494-14.058 0-25.495-11.437-25.495-25.494C9.505 21.205 20.942 9.768 35 9.768zm0 48.939c12.927 0 23.444-10.518 23.444-23.444 0-12.928-10.517-23.444-23.444-23.444S11.556 22.335 11.556 35.263c0 12.926 10.517 23.444 23.444 23.444zm19.043-26.36a4.002 4.002 0 0 1 1.267 2.916 4.001 4.001 0 0 1-1.267 2.916 4.003 4.003 0 0 1-2.997 1.06l-11.677-.815a5.6 5.6 0 0 1-1.213 1.144l.82 11.74a3.999 3.999 0 0 1-1.06 2.998A4 4 0 0 1 35 55.573a20.287 20.287 0 0 1-13.413-5.059 1.026 1.026 0 0 1 1.355-1.539 18.229 18.229 0 0 0 8.394 4.176 3.994 3.994 0 0 1-.313-1.842l.17-2.442a14.281 14.281 0 0 1-3.495-1.481 1.025 1.025 0 1 1 1.043-1.765c.82.485 1.693.87 2.6 1.152l.503-7.206a5.61 5.61 0 0 1-1.214-1.144l-11.676.817a4.003 4.003 0 0 1-2.997-1.062 4 4 0 0 1-1.268-2.915 4 4 0 0 1 1.268-2.916 4.005 4.005 0 0 1 2.997-1.062l11.326.792a5.602 5.602 0 0 1 1.529-1.62l-.786-11.24a4 4 0 0 1 1.061-2.997A4.002 4.002 0 0 1 35 14.952 20.178 20.178 0 0 1 49.361 20.9a1.025 1.025 0 0 1-1.45 1.45 18.13 18.13 0 0 0-9.249-4.983c.247.578.36 1.212.315 1.848l-.135 1.929c1.227.34 2.402.84 3.5 1.492a1.026 1.026 0 0 1-1.048 1.763 12.258 12.258 0 0 0-2.598-1.162l-.505 7.22a5.599 5.599 0 0 1 1.53 1.62l11.325-.793c1.1-.076 2.191.31 2.997 1.062zM31.496 35A3.508 3.508 0 0 0 35 38.504 3.508 3.508 0 0 0 38.504 35 3.508 3.508 0 0 0 35 31.496 3.508 3.508 0 0 0 31.496 35zm2.307-5.423a5.564 5.564 0 0 1 2.394 0l.734-10.503a1.919 1.919 0 0 0-.516-1.456A1.917 1.917 0 0 0 35 17.002c-.543 0-1.045.22-1.416.616-.37.397-.553.914-.515 1.456zm-4.167 6.86a5.525 5.525 0 0 1-.113-2.357l-10.712-.749a1.918 1.918 0 0 0-1.455.515c-.397.37-.616.873-.616 1.417 0 .542.219 1.045.616 1.415.397.37.913.554 1.455.516zm6.525 3.994a5.53 5.53 0 0 1-2.322 0l-.77 11.02a1.917 1.917 0 0 0 .515 1.456c.37.397.873.615 1.416.615.542 0 1.045-.218 1.415-.615.371-.397.554-.914.516-1.456zm16.483-3.753c.397-.37.616-.873.616-1.415 0-.544-.219-1.046-.616-1.417a1.916 1.916 0 0 0-1.455-.515l-10.713.75a5.536 5.536 0 0 1-.112 2.356l10.825.757a1.92 1.92 0 0 0 1.455-.516zM65.363 8.791a4.048 4.048 0 0 1-4.044 4.043 4.048 4.048 0 0 1-4.043-4.043 4.048 4.048 0 0 1 4.043-4.044 4.048 4.048 0 0 1 4.044 4.044zm-6.037 0c0 1.099.894 1.993 1.993 1.993 1.1 0 1.993-.894 1.993-1.993 0-1.1-.894-1.993-1.993-1.993a1.995 1.995 0 0 0-1.993 1.993zm2.005 1.025h-.006a1.03 1.03 0 0 1-1.03-1.02 1.019 1.019 0 0 1 1.013-1.03h.018a1.025 1.025 0 0 1 .005 2.05zM8.68 12.834a4.048 4.048 0 0 1-4.044-4.043 4.048 4.048 0 0 1 4.044-4.044 4.049 4.049 0 0 1 4.043 4.044 4.048 4.048 0 0 1-4.043 4.043zm0-6.036c-1.1 0-1.993.894-1.993 1.993 0 1.099.893 1.993 1.993 1.993a1.995 1.995 0 0 0 1.993-1.993A1.995 1.995 0 0 0 8.68 6.798zm.006 3.018a1.03 1.03 0 0 1-1.031-1.02 1.019 1.019 0 0 1 1.013-1.03h.018a1.025 1.025 0 0 1 .005 2.05zM61.319 57.69a4.048 4.048 0 0 1 4.044 4.044 4.048 4.048 0 0 1-4.044 4.044 4.048 4.048 0 0 1-4.043-4.044 4.048 4.048 0 0 1 4.043-4.044zm0 6.037c1.1 0 1.993-.894 1.993-1.993a1.995 1.995 0 0 0-1.993-1.993 1.995 1.995 0 0 0-1.993 1.993c0 1.1.894 1.993 1.993 1.993zm.007-3.018a1.025 1.025 0 0 1 .005 2.05h-.006a1.03 1.03 0 0 1-1.03-1.02 1.019 1.019 0 0 1 1.013-1.03h.018zM4.637 61.734a4.048 4.048 0 0 1 4.044-4.044 4.048 4.048 0 0 1 4.043 4.044 4.048 4.048 0 0 1-4.043 4.044 4.048 4.048 0 0 1-4.044-4.044zm6.037 0a1.995 1.995 0 0 0-1.993-1.993c-1.1 0-1.993.894-1.993 1.993 0 1.1.893 1.993 1.993 1.993a1.995 1.995 0 0 0 1.993-1.993zm-3.018.005a1.02 1.02 0 0 1 1.013-1.03h.018a1.025 1.025 0 0 1 .005 2.05h-.005a1.03 1.03 0 0 1-1.031-1.02z"></path></g></g></svg> 