<?xml version="1.0" encoding="UTF-8"?> <svg xmlns="http://www.w3.org/2000/svg" width="71" height="71" viewBox="0 0 71 71"><g><g><path fill="#e31e24" d="M52.37 34.719c.377.55.598 1.218.598 1.933 0 1.24-.66 2.327-1.647 2.932a3.43 3.43 0 0 1-1.169 4.674c.304.512.478 1.11.478 1.747a3.438 3.438 0 0 1-3.434 3.433H29.297a2.27 2.27 0 0 1-1.98 1.171h-7.014a2.269 2.269 0 0 1-2.265-2.266V29.638a2.27 2.27 0 0 1 2.265-2.265h7.014c.381 0 .74.097 1.056.263a14.41 14.41 0 0 0 1.51-1.392c.662-.703 1.415-1.197 2.24-1.463 2.102-.684 3.526-1.761 4.35-2.546 1.007-.958 1.419-1.763 1.458-1.998a3.967 3.967 0 0 1 1.183-2.82 3.995 3.995 0 0 1 2.833-1.164h.039a3.846 3.846 0 0 1 2.873 1.32c.817.918 1.206 2.169 1.067 3.428-.226 2.06-1.399 4.355-3.193 6.372h7.385a4.023 4.023 0 0 1 4.019 4.018 4.016 4.016 0 0 1-1.767 3.328zm-.425-3.328a1.83 1.83 0 0 0-1.827-1.826H40a1.097 1.097 0 0 1-.689-1.947c2.456-1.989 4.197-4.68 4.437-6.858.07-.633-.128-1.282-.528-1.732a1.67 1.67 0 0 0-1.254-.584 1.84 1.84 0 0 0-1.31.53 1.792 1.792 0 0 0-.533 1.282c0 .922-.75 2.205-2.006 3.439-1.002.985-2.738 2.33-5.318 3.171-.468.15-.912.447-1.318.878-.428.459-1.086 1.1-1.907 1.737.003.052.008.104.008.157v2.34a1.095 1.095 0 0 1-2.192 0v-2.34a.073.073 0 0 0-.073-.073h-7.014a.073.073 0 0 0-.073.073v18.704c0 .04.032.074.073.074h7.014c.04 0 .073-.034.073-.074v-11.69a1.096 1.096 0 0 1 2.192 0v10.594h17.614a1.243 1.243 0 0 0 0-2.484 1.096 1.096 0 1 1 0-2.191h1.169a1.243 1.243 0 0 0 0-2.484 1.096 1.096 0 1 1 0-2.192h1.169a1.244 1.244 0 0 0 0-2.485 1.096 1.096 0 1 1 0-2.192h.584a1.828 1.828 0 0 0 1.827-1.827zm-27.033 13.44c0 .604-.497 1.1-1.102 1.1a1.106 1.106 0 0 1-1.102-1.1c0-.608.496-1.103 1.102-1.103.605 0 1.102.495 1.102 1.102zm45.514-4.365c.137.362.073.77-.17 1.072l-3.33 4.155.251 5.322c.019.385-.169.753-.493.967l-4.451 2.923-1.405 5.139a1.095 1.095 0 0 1-.768.767l-5.137 1.406-2.924 4.45a1.09 1.09 0 0 1-.968.494l-5.32-.252-4.157 3.33a1.094 1.094 0 0 1-1.072.17L35.5 68.527l-4.982 1.884c-.363.136-.77.073-1.073-.171l-4.156-3.33-5.32.252a1.092 1.092 0 0 1-.968-.494l-2.924-4.45-5.137-1.406a1.096 1.096 0 0 1-.768-.767l-1.405-5.14-4.452-2.922a1.098 1.098 0 0 1-.493-.967l.251-5.322-3.33-4.155c-.242-.301-.307-.71-.17-1.072l1.883-4.984-1.883-4.98a1.097 1.097 0 0 1 .17-1.074l3.33-4.155-.25-5.32c-.019-.387.168-.755.492-.967l4.452-2.926 1.405-5.136c.102-.373.394-.666.768-.768l5.137-1.406L19 4.3c.213-.326.579-.514.968-.496l5.32.253L29.445.728c.302-.243.71-.309 1.073-.17L35.5 2.44 40.482.557c.362-.138.77-.072 1.072.17l4.157 3.33 5.32-.253a1.1 1.1 0 0 1 .967.496l2.925 4.45 5.137 1.406c.373.101.665.394.768.768l1.405 5.136 4.451 2.926c.324.212.512.58.493.967l-.25 5.32 3.33 4.155c.242.302.306.712.17 1.073l-1.883 4.981zm-4.079-5.371l1.808-4.783-3.198-3.992a1.098 1.098 0 0 1-.24-.738l.242-5.11-4.276-2.806a1.092 1.092 0 0 1-.455-.629l-1.35-4.932-4.933-1.349a1.101 1.101 0 0 1-.627-.456L50.51 6.025l-5.11.241a1.091 1.091 0 0 1-.736-.239l-3.992-3.199-4.785 1.808c-.25.095-.525.095-.774 0l-4.785-1.808-3.992 3.2c-.208.166-.47.25-.737.238l-5.109-.241-2.808 4.275c-.147.223-.37.385-.627.456l-4.933 1.349-1.35 4.932c-.07.26-.232.483-.455.629l-4.275 2.807.24 5.109c.013.267-.072.53-.239.738l-3.198 3.992 1.808 4.783c.095.25.095.526 0 .776l-1.808 4.784 3.198 3.992c.167.208.252.472.24.737l-.241 5.11 4.275 2.807c.223.146.385.37.455.627l1.35 4.934 4.933 1.35c.258.07.48.232.627.455l2.808 4.274 5.11-.24c.266-.012.528.072.736.24l3.992 3.197 4.785-1.808a1.094 1.094 0 0 1 .774 0l4.785 1.808 3.992-3.197c.208-.168.47-.252.737-.24l5.109.24 2.808-4.274c.146-.223.37-.385.627-.456l4.933-1.349 1.35-4.934c.07-.258.232-.48.455-.627l4.275-2.808-.24-5.109a1.099 1.099 0 0 1 .239-.737l3.198-3.992-1.808-4.784a1.098 1.098 0 0 1 0-.776zM52.892 16.456a1.096 1.096 0 0 1 1.482-1.616 28.599 28.599 0 0 1 1.719 1.72 1.097 1.097 0 0 1-1.615 1.482 26.717 26.717 0 0 0-1.586-1.586zM9.694 34.419a25.702 25.702 0 0 0 6.015 17.633 1.094 1.094 0 0 1-.838 1.801c-.313 0-.623-.132-.84-.392A27.88 27.88 0 0 1 7.505 34.33a27.9 27.9 0 0 1 8.173-18.648 28.033 28.033 0 0 1 16.888-8.046c6.269-.65 12.632.847 17.917 4.214a1.095 1.095 0 1 1-1.178 1.85c-4.87-3.105-10.734-4.484-16.513-3.883a25.832 25.832 0 0 0-15.564 7.415 25.709 25.709 0 0 0-7.533 17.187zm49.39-13.967c3.367 5.284 4.863 11.647 4.214 17.915a28.037 28.037 0 0 1-8.046 16.888 27.905 27.905 0 0 1-19.795 8.197A27.86 27.86 0 0 1 17.47 56.9a1.093 1.093 0 0 1-.133-1.542 1.096 1.096 0 0 1 1.544-.133 25.705 25.705 0 0 0 17.633 6.014 25.722 25.722 0 0 0 17.187-7.533 25.846 25.846 0 0 0 7.416-15.563c.598-5.78-.78-11.643-3.883-16.515a1.096 1.096 0 1 1 1.849-1.176z"></path></g></g></svg> 