<?xml version="1.0" encoding="UTF-8"?> <svg xmlns="http://www.w3.org/2000/svg" width="71" height="70" viewBox="0 0 71 70"><g><g><path fill="#e31e24" d="M46.327 27.194c.255.254.401.606.401.968 0 .359-.146.712-.4.967a1.38 1.38 0 0 1-.969.399 1.38 1.38 0 0 1-.968-.4 1.38 1.38 0 0 1-.4-.966c0-.36.146-.714.4-.968.255-.254.608-.4.968-.4s.713.146.968.4zM70.822 4.088v21.337a4.109 4.109 0 0 1-4.107 4.103H51.383a1.368 1.368 0 1 1 0-2.734h13.99l-11.23-13.11-5.794 4.166a1.372 1.372 0 0 1-1.6 0l-5.787-4.173-11.235 13.117h8.787a1.368 1.368 0 0 1 0 2.734h-10.13a4.109 4.109 0 0 1-4.107-4.103V4.088A4.101 4.101 0 0 1 26.164.64a4.09 4.09 0 0 1 2.22-.654h38.331a4.08 4.08 0 0 1 2.394.772 4.101 4.101 0 0 1 1.713 3.331zm-32.087 7.984L27.082 3.669a1.352 1.352 0 0 0-.067.42v21.336c0 .1.011.196.032.291zM64.71 2.72H30.445l17.106 12.333zm-8.336 9.361l11.678 13.634c.02-.095.032-.191.032-.291V4.088c0-.134-.02-.26-.056-.383zm7.056 49.053v.124c0 .757-.613 1.37-1.37 1.37h-1.242a1.369 1.369 0 1 1 0-2.736h.668a1.37 1.37 0 0 1 1.943 1.242zm0-6.84v1.368c0 .757-.613 1.368-1.37 1.368a1.368 1.368 0 0 1-1.368-1.368v-1.368a1.368 1.368 0 1 1 2.738 0zm-6.72 6.964c0 .757-.612 1.37-1.368 1.37h-1.37a1.369 1.369 0 1 1 0-2.736h1.37c.756 0 1.369.613 1.369 1.366zm6.72-27.48v1.369a1.368 1.368 0 0 1-2.738 0v-1.369a1.368 1.368 0 0 1 2.738 0zm0 6.84v1.367a1.37 1.37 0 0 1-2.738 0v-1.367a1.37 1.37 0 0 1 2.738 0zm0 6.838v1.367a1.368 1.368 0 0 1-2.738 0v-1.367a1.369 1.369 0 0 1 2.738 0zM8.123 8.74c0-.756.613-1.367 1.37-1.367h1.368a1.367 1.367 0 1 1 0 2.734H9.492a1.368 1.368 0 0 1-1.369-1.367zm6.845 0c0-.756.613-1.367 1.37-1.367h1.368a1.367 1.367 0 1 1 0 2.734h-1.369a1.368 1.368 0 0 1-1.369-1.367zm-6.845 6.838v-1.368a1.368 1.368 0 0 1 2.738 0v1.368a1.368 1.368 0 1 1-2.738 0zm0 6.84v-1.369a1.368 1.368 0 0 1 2.738 0v1.369c0 .755-.613 1.366-1.369 1.366a1.367 1.367 0 0 1-1.369-1.366zm7.754 33.007c.255.253.401.607.401.967a1.374 1.374 0 0 1-1.369 1.367 1.39 1.39 0 0 1-.969-.402 1.373 1.373 0 0 1-.4-.965 1.373 1.373 0 0 1 1.37-1.37c.36 0 .713.148.967.403zm27.471 1.445a5.27 5.27 0 0 1 1.555 3.752 5.27 5.27 0 0 1-1.555 3.75l-1.726 1.725a13.357 13.357 0 0 1-9.467 3.912 13.357 13.357 0 0 1-9.467-3.912l-3.545-3.542a1.367 1.367 0 0 1 0-1.934 1.371 1.371 0 0 1 1.936 0l3.545 3.542c3.747 3.744 9.616 4.108 13.777 1.093l-6.47-6.464a1.368 1.368 0 0 1 1.936-1.934l6.565 6.56.98-.98a2.552 2.552 0 0 0 .754-1.816c0-.688-.268-1.332-.753-1.816l-7.214-7.207a2.576 2.576 0 0 0-3.636 0l-.47.47a4.42 4.42 0 0 1-6.24 0l-5.16-5.156a4.37 4.37 0 0 1-1.261-2.607l-6.84-6.833a1.368 1.368 0 1 1 1.937-1.935l5.697 5.691a4.65 4.65 0 0 1 .468-.55l.47-.469a2.57 2.57 0 0 0 0-3.633l-7.213-7.207a2.574 2.574 0 0 0-3.637 0L6.59 31.094c-4.153 4.148-4.153 10.9 0 15.05l4.705 4.7a1.37 1.37 0 0 1-1.936 1.934l-4.705-4.701c-5.22-5.215-5.22-13.701 0-18.918l1.726-1.724a5.317 5.317 0 0 1 7.508 0l7.213 7.207a5.306 5.306 0 0 1 0 7.501l-.47.47c-.316.316-.49.735-.49 1.184 0 .445.174.866.49 1.18l5.16 5.156a1.68 1.68 0 0 0 2.367 0l.47-.469a5.317 5.317 0 0 1 7.508 0z"></path></g></g></svg> 