<?xml version="1.0" encoding="UTF-8"?> <svg xmlns="http://www.w3.org/2000/svg" width="70" height="70" viewBox="0 0 70 70"><g><g><path fill="#e31e24" d="M69.96 16.617a3.5 3.5 0 0 1-.35 2.708l-.583 1.015c.55.325.738 1.032.42 1.587l-2.918 5.053 1.015.584a3.501 3.501 0 0 1 1.284 4.785l-4.669 8.087a1.17 1.17 0 0 1-1.6.431 1.167 1.167 0 0 1-.373-1.645l4.67-8.087a1.166 1.166 0 0 0-.432-1.6l-1.016-.583-10.027 17.4-4.448 5.403-1.167 1.95a3.502 3.502 0 0 1-3.047 1.727 3.6 3.6 0 0 1-.922-.117l-2.72 3.443a2.336 2.336 0 0 1-3.992-.596l-.724-1.832-.432.712a2.335 2.335 0 0 1-4.33-1.003l-.41-4.738-2.86 8.612c-.16.475-.607.795-1.108.793a1.014 1.014 0 0 1-.363-.093 1.167 1.167 0 0 1-.734-1.47l2.871-8.613a2.335 2.335 0 0 1 4.54.549l.398 4.668.42-.712a2.335 2.335 0 0 1 4.168.327l.735 1.843 2.627-3.22a3.5 3.5 0 0 1-.188-3.782l1.168-2.182 2.451-6.547 9.923-17.19-1.016-.584a1.167 1.167 0 1 1 1.167-2.018l1.016.583 2.965-5.053a1.168 1.168 0 0 1 1.587-.42l.584-1.015a3.504 3.504 0 0 1 4.786-1.283 3.501 3.501 0 0 1 1.634 2.123zm-4.984 1.342l2.031 1.167.584-1.015c.15-.27.191-.587.117-.887a1.166 1.166 0 0 0-.549-.711c-.27-.15-.587-.191-.887-.117-.302.08-.558.277-.713.548zM52.672 45.874l-3.677-2.124-1.657 4.434 1.727 1.005.584.338zm-6.525 7.025a1.169 1.169 0 0 0 1.681-.373l.584-1.004-2.031-1.167-.584 1.015a1.166 1.166 0 0 0 .35 1.53zm17.195-25.114l-4.04-2.334-9.338 16.175 4.04 2.334zm3.502-6.056l-4.04-2.334-2.334 4.037 4.04 2.334zM18.457 52.316a1.168 1.168 0 0 1 1.647 1.645l-4.12 4.131c-.442.438-1.038.68-1.658.677a2.334 2.334 0 0 1-1.646-.677l-2.475-2.473a1.166 1.166 0 0 1 0-1.658 1.167 1.167 0 0 1 1.646 0l2.475 2.475zm-13.75 3.139a9.919 9.919 0 0 1 5.485-8.872 9.926 9.926 0 0 1 10.39.936 1.167 1.167 0 1 1-1.4 1.868 7.521 7.521 0 0 0-4.553-1.518 7.587 7.587 0 1 0 0 15.172 7.587 7.587 0 0 0 7.588-7.586 1.167 1.167 0 0 1 2.335 0c0 5.478-4.443 9.92-9.923 9.92s-9.922-4.442-9.922-9.92zm8.17-46.097v2.334h29.184a1.167 1.167 0 1 1 0 2.334h-30.35a1.167 1.167 0 0 1-1.168-1.167V8.191c0-.644.523-1.167 1.168-1.167h30.35a1.167 1.167 0 1 1 0 2.334zM38.56 16.36a1.167 1.167 0 1 1 0 2.334H15.212a1.167 1.167 0 0 1 0-2.334zm7.004 8.17a1.167 1.167 0 1 1 0 2.333h-25.68a1.167 1.167 0 1 1 0-2.334zM33.89 32.697c0 .645-.523 1.167-1.167 1.167H9.376a1.166 1.166 0 1 1 0-2.334h23.347c.644 0 1.167.523 1.167 1.167zm11.673-1.167a1.167 1.167 0 1 1 0 2.334h-8.17a1.167 1.167 0 1 1 0-2.334zm-36.187 8.17a1.166 1.166 0 1 1 0-2.335H21.05a1.167 1.167 0 0 1 0 2.334zm16.343 0a1.167 1.167 0 1 1 0-2.335h8.171a1.168 1.168 0 0 1 0 2.334zm26.848 14.003c.645 0 1.168.523 1.168 1.167v11.67a3.502 3.502 0 0 1-3.502 3.502H3.539A3.502 3.502 0 0 1 .037 66.54V3.523C.037 1.59 1.606.022 3.54.022h46.694a3.502 3.502 0 0 1 3.502 3.5V25.44a1.167 1.167 0 0 1-2.335 0V3.523c0-.644-.523-1.167-1.167-1.167H3.539c-.644 0-1.167.523-1.167 1.167V66.54c0 .645.523 1.167 1.167 1.167h46.694c.644 0 1.167-.522 1.167-1.167v-11.67c0-.644.522-1.167 1.167-1.167z"></path></g></g></svg> 