<?xml version="1.0" encoding="UTF-8"?> <svg xmlns="http://www.w3.org/2000/svg" width="84" height="71" viewBox="0 0 84 71"><g><g><path fill="#e31e24" d="M70.795 13.914c6.813.008 12.333 5.533 12.34 12.352v16.47c-.007 6.818-5.527 12.343-12.34 12.351h-1.371v13.725a1.373 1.373 0 0 1-2.34.97L52.401 55.087h-7.66c-6.812-.008-12.332-5.533-12.34-12.352v-1.372h-3.546l-11.94 11.95a1.371 1.371 0 0 1-2.34-.97v-10.98h-1.371C6.392 41.355.872 35.83.864 29.01V12.54C.872 5.724 6.392.199 13.204.19h26.054c6.812.008 12.332 5.533 12.34 12.352v1.372zM32.401 38.618V26.266c.009-6.819 5.529-12.344 12.341-12.352h4.114v-1.372c-.006-5.304-4.3-9.601-9.598-9.607H13.205c-5.299.006-9.593 4.303-9.599 9.607V29.01c.006 5.303 4.3 9.6 9.599 9.607h2.742c.757 0 1.371.614 1.371 1.372v9.04l10-10.01c.258-.257.606-.402.97-.402zm47.993-12.352c-.007-5.304-4.3-9.601-9.599-9.607H44.742c-5.298.006-9.592 4.303-9.598 9.607v16.47c.006 5.303 4.3 9.6 9.598 9.606h8.228c.363 0 .712.145.969.402L66.682 65.5V53.715c0-.758.613-1.373 1.37-1.373h2.743c5.299-.006 9.592-4.303 9.599-9.607zm-6.856-1.373a1.372 1.372 0 0 1 0 2.745H42a1.372 1.372 0 0 1 0-2.745zm0 8.235a1.372 1.372 0 0 1 0 2.745H42a1.372 1.372 0 0 1 0-2.745zm0 8.235a1.372 1.372 0 0 1 0 2.745H42a1.372 1.372 0 0 1 0-2.745zM9.09 13.914a1.372 1.372 0 0 1 0-2.745h28.795a1.372 1.372 0 0 1 0 2.745zm20.568 5.49a1.372 1.372 0 0 1 0 2.745H9.091a1.372 1.372 0 0 1 0-2.745zm-1.371 8.234a1.372 1.372 0 0 1 0 2.745H9.09a1.372 1.372 0 0 1 0-2.745z"></path></g></g></svg> 