<?xml version="1.0" encoding="UTF-8"?> <svg xmlns="http://www.w3.org/2000/svg" width="80" height="71" viewBox="0 0 80 71"><g><g><path fill="#e31e24" d="M76.848 20.424a2.707 2.707 0 0 1 2.704 2.705v44.66a2.708 2.708 0 0 1-2.704 2.705h-8.43a1.16 1.16 0 0 1 0-2.318h8.43a.387.387 0 0 0 .386-.387V23.13a.387.387 0 0 0-.386-.387h-14.46L51.895 34.43a2.286 2.286 0 0 1-1.713.764c-.03 0-.058-.003-.087-.004l-4.591 2.283a1.833 1.833 0 0 1-2.052-.28 1.834 1.834 0 0 1-.498-2.011l1.777-4.806a2.286 2.286 0 0 1 .564-1.875l5.17-5.758h-20.05a1.159 1.159 0 0 1 0-2.318h22.131L65.262 6.262a2.3 2.3 0 0 1 3.247-.174l3.179 2.856c.456.41.726.974.76 1.588a2.288 2.288 0 0 1-.587 1.66l-7.39 8.232zm-9.874-12.6l-1.377 1.534 3.152 2.831 1.377-1.532zM47.03 30.035l.714.643 17.019-18.954-.714-.64zm-1.488 4.83l2.185-1.087-1.339-1.203zM67.2 13.914l-.713-.641-17.02 18.953.715.64zm-3.828 54.262a1.158 1.158 0 1 1 0 2.318H11.255c-5.959 0-10.807-4.85-10.807-10.81V11.316C.448 5.355 5.296.506 11.254.506h2.381A2.707 2.707 0 0 1 16.34 3.21v8.141a1.158 1.158 0 1 1-2.317 0v-8.14a.387.387 0 0 0-.387-.387h-2.38c-4.681 0-8.49 3.81-8.49 8.492v41.073a10.791 10.791 0 0 1 8.489-4.128h2.381a.387.387 0 0 0 .387-.387V16.4a1.16 1.16 0 0 1 2.317 0v4.025h9.028a1.158 1.158 0 1 1 0 2.318H16.34v25.132a2.707 2.707 0 0 1-2.704 2.705h-2.381c-4.68 0-8.489 3.81-8.489 8.492v.613c0 4.682 3.809 8.492 8.49 8.492zm-1.094-35.514c4.913 0 8.91 3.998 8.91 8.913 0 4.858-3.906 8.819-8.742 8.91v4.955c0 .64-.518 1.16-1.158 1.16H48.05c-.64 0-1.158-.52-1.158-1.16V42.199c0-.64.519-1.16 1.158-1.16h5.335c.278-4.666 4.159-8.377 8.892-8.377zM60.13 43.358h-4.197a6.62 6.62 0 0 0 4.197 4.45zm0 10.923v-4.056a8.94 8.94 0 0 1-6.582-6.867H49.21v10.923zm2.317-6.115a6.601 6.601 0 0 0 6.424-6.59 6.601 6.601 0 0 0-6.592-6.596c-3.455 0-6.296 2.673-6.57 6.06h5.58c.64 0 1.158.519 1.158 1.159zm6.714 3.123a1.158 1.158 0 1 1 0 2.318h-2.578a1.159 1.159 0 1 1 0-2.318zm1.158 4.151c0 .64-.518 1.16-1.158 1.16h-2.578a1.158 1.158 0 1 1 0-2.32h2.578c.64 0 1.158.52 1.158 1.16zM21.614 32.2a1.159 1.159 0 0 1 0-2.319h1.854a1.16 1.16 0 0 1 0 2.319zm0 3.377a1.16 1.16 0 0 1 0-2.318h8.945a1.159 1.159 0 1 1 0 2.318zm7.091-3.377a1.159 1.159 0 0 1 0-2.319h1.854a1.159 1.159 0 0 1 0 2.319zm8.945-2.319a1.159 1.159 0 0 1 0 2.319h-1.854a1.159 1.159 0 0 1 0-2.319zM21.614 38.93a1.16 1.16 0 0 1 0-2.318h8.945a1.159 1.159 0 1 1 0 2.318zm-1.158 2.192c0-.64.519-1.159 1.159-1.159h14.18a1.159 1.159 0 0 1 0 2.318h-14.18c-.64 0-1.16-.518-1.16-1.159zm18.353 3.352c0 .64-.519 1.16-1.16 1.16H21.615a1.159 1.159 0 0 1 0-2.319H37.65c.64 0 1.159.52 1.159 1.16zm-12.843 8.594c0 .64-.519 1.16-1.158 1.16h-3.194c-.64 0-1.158-.52-1.158-1.16v-3.194c0-.64.519-1.159 1.158-1.159h3.194c.64 0 1.158.519 1.158 1.16zm-2.317-2.034h-.876v.876h.876zm9.978 2.034c0 .64-.519 1.16-1.158 1.16h-3.193c-.64 0-1.16-.52-1.16-1.16v-3.194c0-.64.52-1.159 1.16-1.159h3.193c.64 0 1.158.519 1.158 1.16zm-2.317-2.034h-.876v.876h.876zm9.98 2.034c0 .64-.52 1.16-1.16 1.16h-3.193c-.64 0-1.159-.52-1.159-1.16v-3.194c0-.64.519-1.159 1.16-1.159h3.192c.64 0 1.16.519 1.16 1.16zm-2.318-2.034h-.876v.876h.876zm-14.164 5.822c.64 0 1.158.518 1.158 1.159v3.193c0 .641-.519 1.16-1.158 1.16h-3.194c-.64 0-1.158-.519-1.158-1.16v-3.193c0-.64.519-1.16 1.158-1.16zm-1.16 2.317h-.875v.876h.876zm8.82-2.317c.64 0 1.16.518 1.16 1.159v3.193c0 .641-.52 1.16-1.16 1.16h-3.192c-.64 0-1.16-.519-1.16-1.16v-3.193c0-.64.52-1.16 1.16-1.16zm-1.158 2.317h-.876v.876h.876zm5.627 3.195c-.64 0-1.159-.519-1.159-1.16v-3.194c0-.64.519-1.16 1.16-1.16h3.192c.64 0 1.16.52 1.16 1.16v3.194c0 .641-.52 1.16-1.16 1.16zm1.159-2.319h.876v-.875h-.876z"></path></g></g></svg> 