<?xml version="1.0" encoding="UTF-8"?> <svg xmlns="http://www.w3.org/2000/svg" width="70" height="70" viewBox="0 0 70 70"><g><g><path fill="#e31e24" d="M67.39 21.211a2.615 2.615 0 0 1 2.612 2.612v22.202a2.616 2.616 0 0 1-2.612 2.613h-7.062a2.204 2.204 0 0 1-2.201-2.201V45.5H46.991c-.78 0-1.416.635-1.416 1.416v10.8h.526a2.615 2.615 0 0 1 2.612 2.613v7.06a2.615 2.615 0 0 1-2.612 2.613c-1.319 0-1.317-2.051 0-2.051.31 0 .561-.252.561-.562v-7.06a.561.561 0 0 0-.56-.561h-5.504s-.024 9.04-.064 9.149l.003.06c0 .565-.46 1.025-1.025 1.025H23.899a2.615 2.615 0 0 1-2.612-2.613v-7.06a2.615 2.615 0 0 1 2.612-2.612h.525v-10.8c0-.782-.635-1.417-1.416-1.417H12.283v.525a2.615 2.615 0 0 1-2.612 2.613h-7.06a2.615 2.615 0 0 1-2.613-2.613V23.823a2.615 2.615 0 0 1 2.612-2.612h7.061a2.615 2.615 0 0 1 2.612 2.612v.526h10.726c.78 0 1.415-.635 1.415-1.416v-1.196c0-1.318 2.051-1.316 2.051 0v1.196A3.47 3.47 0 0 1 23.01 26.4H12.35V43.45H23.01a3.47 3.47 0 0 1 3.466 3.466v10.733h17.05V46.915a3.47 3.47 0 0 1 3.466-3.466h11.137v-17.05H46.99a3.47 3.47 0 0 1-3.466-3.466V11.872h-17.05v3.303c0 1.319-2.05 1.317-2.05 0v-3.303h-.938c-1.213 0-2.2-.987-2.2-2.2V2.61a2.615 2.615 0 0 1 2.612-2.612H46.1a2.615 2.615 0 0 1 2.612 2.612v7.062c0 1.213-.987 2.2-2.2 2.2h-.937v11.061c0 .78.635 1.416 1.416 1.416h11.136v-.937c0-1.214.987-2.2 2.2-2.2zM31.453 2.05v7.772h7.094V2.049zm-2.051 7.772V2.049h-5.503a.561.561 0 0 0-.561.561v7.062c0 .082.067.149.15.149zm17.11 0a.15.15 0 0 0 .15-.15v-7.06c0-.31-.251-.562-.56-.562h-5.504v7.772zM2.05 38.471h8.183v-7.093H2.05zm.561-15.209a.561.561 0 0 0-.56.561v5.504h8.182v-5.504c0-.31-.251-.56-.561-.56zm7.061 23.325c.31 0 .561-.252.561-.562v-5.503H2.05v5.503c0 .31.252.562.561.562zM23.338 67.39c0 .31.251.562.56.562h5.504v-8.183h-5.503a.561.561 0 0 0-.561.56zm15.209-7.621h-7.094v8.183h7.094zM60.179 38.47h7.772v-7.093h-7.772zm-.001-15.06v5.916h7.773v-5.504c0-.31-.252-.56-.561-.56h-7.062a.15.15 0 0 0-.15.149zm7.212 23.176c.31 0 .56-.252.56-.562v-5.503H60.18v5.915c0 .082.067.15.15.15z"></path></g></g></svg> 