<?xml version="1.0" encoding="UTF-8"?> <svg xmlns="http://www.w3.org/2000/svg" width="60" height="61" viewBox="0 0 60 61"><g><g><path fill="#e31e24" d="M33.34 2.392c.57.651 1.134 1.297 1.48 1.36.354.064 1.114-.358 1.869-.778 1.25-.695 2.492-1.386 3.764-.912 1.287.48 1.769 1.83 2.249 3.175.284.796.567 1.59.838 1.75.271.158 1.104.012 1.936-.134 1.397-.245 2.793-.489 3.829.386 1.03.87 1.024 2.29 1.017 3.711-.003.84-.008 1.678.195 1.918.203.242 1.028.38 1.855.52 1.401.236 2.806.473 3.493 1.647.685 1.17.213 2.507-.262 3.847-.285.804-.57 1.61-.455 1.92.115.31.846.735 1.58 1.163 1.246.725 2.5 1.454 2.747 2.823.244 1.345-.644 2.464-1.54 3.593-.55.694-1.104 1.392-1.104 1.791 0 .4.554 1.099 1.104 1.791.896 1.13 1.784 2.249 1.54 3.594-.248 1.369-1.5 2.098-2.746 2.823-.735.427-1.466.853-1.581 1.162-.116.31.17 1.117.455 1.92.475 1.342.947 2.678.262 3.848-.687 1.174-2.092 1.411-3.493 1.647-.827.14-1.652.279-1.855.52-.203.24-.198 1.078-.195 1.917.007 1.421.013 2.842-1.017 3.713-1.036.875-2.432.63-3.829.384-.832-.145-1.665-.29-1.936-.132-.27.16-.554.952-.838 1.749-.48 1.345-.962 2.695-2.249 3.175-1.272.474-2.515-.217-3.764-.912-.755-.42-1.515-.843-1.869-.778-.346.063-.91.709-1.48 1.36-.962 1.1-1.933 2.211-3.34 2.211-1.407 0-2.378-1.111-3.34-2.21-.57-.652-1.134-1.298-1.48-1.361-.354-.065-1.114.357-1.869.778-1.25.695-2.492 1.386-3.764.912-1.287-.48-1.768-1.83-2.25-3.176-.283-.796-.567-1.59-.837-1.748-.27-.159-1.104-.013-1.937.132-1.397.245-2.792.49-3.828-.385-1.03-.87-1.024-2.292-1.018-3.712.004-.84.008-1.677-.195-1.918-.202-.241-1.027-.38-1.854-.52-1.402-.235-2.806-.472-3.493-1.646-.686-1.171-.213-2.507.262-3.847.284-.804.57-1.611.455-1.92-.115-.31-.846-.736-1.582-1.164-1.244-.724-2.497-1.453-2.745-2.822-.244-1.345.644-2.465 1.54-3.594.55-.693 1.104-1.392 1.104-1.791 0-.4-.555-1.098-1.104-1.79-.896-1.13-1.784-2.249-1.54-3.595.248-1.369 1.5-2.098 2.745-2.823.736-.427 1.467-.853 1.582-1.162.115-.31-.17-1.117-.455-1.92-.475-1.34-.948-2.677-.262-3.847.687-1.174 2.091-1.411 3.493-1.647.827-.14 1.652-.28 1.854-.52.203-.24.2-1.079.195-1.918-.006-1.421-.013-2.842 1.018-3.711 1.036-.875 2.431-.63 3.828-.387.833.147 1.666.292 1.937.133.27-.158.554-.952.838-1.749.48-1.344.962-2.695 2.249-3.174 1.272-.475 2.514.217 3.764.912.755.42 1.515.842 1.869.778.346-.063.91-.709 1.48-1.36.962-1.1 1.933-2.21 3.34-2.21 1.407 0 2.378 1.11 3.34 2.21zm11.164 12.922c.363 0 .688.166.903.426A21.06 21.06 0 0 1 51.1 30.172a21.066 21.066 0 0 1-6.18 14.936A21.026 21.026 0 0 1 30 51.294c-2.494 0-4.887-.433-7.107-1.228a1.173 1.173 0 1 1 .674-2.244l.002.001A18.7 18.7 0 0 0 30 48.954c5.183 0 9.873-2.101 13.27-5.5a18.732 18.732 0 0 0 5.494-13.282 18.725 18.725 0 0 0-5.15-12.926l-.003-.003a1.17 1.17 0 0 1 .894-1.929zm-3.533-2.973a1.17 1.17 0 1 1 0 2.342 1.17 1.17 0 0 1 0-2.342zm-3.798-2.039a1.17 1.17 0 1 1-.795 2.201A18.71 18.71 0 0 0 30 11.39a18.693 18.693 0 0 0-13.268 5.501 18.731 18.731 0 0 0-5.496 13.281A18.729 18.729 0 0 0 16.36 43.07l.005.005v.001a1.171 1.171 0 0 1-1.794 1.505 21.06 21.06 0 0 1-5.673-14.409 21.066 21.066 0 0 1 6.181-14.935A21.023 21.023 0 0 1 30 9.05c2.52 0 4.934.443 7.174 1.252zM19.028 45.661a1.17 1.17 0 1 1 0 2.342 1.17 1.17 0 0 1 0-2.342zm4.158-27.003a4.856 4.856 0 0 1 4.86 4.864 4.85 4.85 0 0 1-1.424 3.44 4.84 4.84 0 0 1-3.436 1.424 4.841 4.841 0 0 1-3.436-1.425 4.85 4.85 0 0 1-1.424-3.438c0-1.344.545-2.56 1.424-3.44a4.844 4.844 0 0 1 3.436-1.425zm0 2.34c-.696 0-1.327.283-1.784.74a2.519 2.519 0 0 0-.738 1.785 2.52 2.52 0 0 0 2.522 2.524 2.52 2.52 0 0 0 2.522-2.524c0-.698-.283-1.33-.739-1.786a2.514 2.514 0 0 0-1.783-.74zm12.656-1.81a1.163 1.163 0 1 1 1.944 1.28L24.158 41.156a1.164 1.164 0 1 1-1.944-1.279zm.972 12.77c1.342 0 2.557.545 3.436 1.425a4.85 4.85 0 0 1 1.424 3.44 4.847 4.847 0 0 1-1.424 3.438 4.84 4.84 0 0 1-3.436 1.425 4.84 4.84 0 0 1-3.436-1.425 4.85 4.85 0 0 1-1.423-3.439c0-1.343.544-2.559 1.423-3.44a4.842 4.842 0 0 1 3.436-1.424zm0 2.34c-.697 0-1.327.282-1.783.74a2.515 2.515 0 0 0-.74 1.784c0 .698.283 1.328.74 1.785.456.457 1.086.74 1.783.74.696 0 1.327-.283 1.783-.74a2.513 2.513 0 0 0 .739-1.785c0-.697-.282-1.328-.74-1.785a2.51 2.51 0 0 0-1.782-.739zM30 2.521c-.357 0-.975.707-1.587 1.407-.838.958-1.67 1.908-2.822 2.118-1.17.213-2.294-.413-3.412-1.034-.78-.434-1.554-.865-1.819-.766-.262.098-.563.939-.861 1.777-.426 1.192-.85 2.38-1.861 2.973-1.018.598-2.268.379-3.516.16-.862-.15-1.723-.302-1.92-.135-.204.172-.2 1.046-.196 1.92.006 1.27.012 2.54-.743 3.436-.752.893-2.001 1.104-3.252 1.314-.865.146-1.732.292-1.867.523-.135.23.159 1.059.454 1.891.424 1.198.85 2.4.436 3.51-.408 1.097-1.498 1.732-2.594 2.37-.782.455-1.569.913-1.623 1.214-.056.305.507 1.014 1.074 1.73.805 1.013 1.616 2.035 1.616 3.243 0 1.21-.811 2.23-1.616 3.245-.567.714-1.13 1.423-1.074 1.729.054.3.841.759 1.623 1.214 1.096.638 2.186 1.273 2.594 2.368.413 1.111-.012 2.314-.436 3.512-.295.832-.589 1.662-.454 1.89.135.232 1.002.379 1.867.524 1.251.211 2.5.42 3.252 1.314.755.895.749 2.165.743 3.435-.004.874-.008 1.748.196 1.921.197.166 1.058.016 1.92-.136 1.248-.218 2.498-.437 3.516.16 1.012.593 1.436 1.781 1.86 2.973.3.838.6 1.68.862 1.777.265.099 1.04-.332 1.819-.765 1.118-.621 2.241-1.246 3.412-1.034 1.154.21 1.984 1.16 2.822 2.119.612.7 1.23 1.406 1.587 1.406s.975-.706 1.587-1.406c.838-.959 1.67-1.91 2.822-2.119 1.17-.212 2.295.413 3.412 1.034.78.433 1.554.864 1.82.765.261-.097.561-.939.86-1.777.426-1.192.85-2.38 1.86-2.973 1.019-.597 2.268-.378 3.516-.16.863.152 1.724.303 1.921.136.204-.173.2-1.047.196-1.92-.006-1.27-.011-2.541.743-3.436.752-.894 2-1.103 3.25-1.314.867-.145 1.735-.292 1.87-.523.134-.23-.16-1.06-.454-1.891-.425-1.198-.85-2.4-.437-3.512.407-1.095 1.498-1.73 2.594-2.368.782-.455 1.569-.913 1.624-1.214.054-.306-.508-1.015-1.075-1.73-.804-1.013-1.616-2.034-1.616-3.244 0-1.208.812-2.23 1.616-3.244.567-.715 1.13-1.424 1.075-1.729-.055-.3-.842-.76-1.624-1.214-1.096-.638-2.187-1.273-2.594-2.37-.414-1.11.012-2.312.437-3.51.295-.832.588-1.661.453-1.891-.134-.231-1.002-.377-1.868-.523-1.25-.21-2.499-.42-3.25-1.314-.755-.896-.75-2.165-.744-3.436.004-.874.008-1.748-.196-1.92-.197-.167-1.058-.016-1.92.135-1.249.219-2.498.438-3.516-.16-1.011-.592-1.436-1.78-1.861-2.973-.299-.838-.599-1.679-.86-1.777-.266-.099-1.04.332-1.82.766-1.118.621-2.242 1.247-3.412 1.034-1.153-.21-1.984-1.16-2.822-2.118-.612-.7-1.23-1.407-1.587-1.407z"></path></g></g></svg> 