<?xml version="1.0" encoding="UTF-8"?> <svg xmlns="http://www.w3.org/2000/svg" width="60" height="60" viewBox="0 0 60 60"><g><g><path fill="#e31e24" d="M25.934 28.413a.947.947 0 0 1-.948.948h-5.432a.947.947 0 0 1 0-1.895h5.432c.524 0 .948.424.948.947zM54.38 55.322a.947.947 0 0 1-.947.947h-5.432a.947.947 0 1 1 0-1.895h5.432c.523 0 .947.425.947.948zM24.19 8.327a.947.947 0 0 1-.948.948H17.81a.947.947 0 1 1 0-1.895h5.432c.524 0 .948.424.948.947zm1.745 23.245a.947.947 0 0 1-.948.947h-5.432a.947.947 0 1 1 0-1.895h5.432c.524 0 .948.425.948.948zm-7.327 20.086c0-.523.424-.947.947-.947h5.432a.947.947 0 1 1 0 1.895h-5.432a.947.947 0 0 1-.947-.948zm0 3.159c0-.524.424-.948.947-.948h5.432a.947.947 0 1 1 0 1.895h-5.432a.947.947 0 0 1-.947-.947zm41.396-6.16v9.681c0 .918-.747 1.665-1.665 1.665H30.055a2.03 2.03 0 0 1-1.238-.421 2.448 2.448 0 0 1-1.377.421h-2.577a.947.947 0 1 1 0-1.895h2.577a.57.57 0 0 0 .569-.569V37.074a.569.569 0 0 0-.569-.568h-8.257v10.8a.947.947 0 0 1-1.535.744l-2.697-2.132-2.698 2.132a.947.947 0 0 1-1.535-.743V36.506H2.46a.569.569 0 0 0-.568.568v20.465a.57.57 0 0 0 .568.57h19.16a.947.947 0 1 1 0 1.894H2.46A2.466 2.466 0 0 1-.003 57.54V37.074c0-.572.197-1.098.525-1.516a2.449 2.449 0 0 1-.525-1.516V13.576a2.467 2.467 0 0 1 2.463-2.463h8.258V1.66c0-.918.747-1.664 1.665-1.664h15.856c.918 0 1.665.746 1.665 1.664v9.682c0 .375-.126.72-.335.998.212.364.335.785.335 1.235v7.655c.05-.003.1-.007.15-.007h19.613c1.128 0 2.045.917 2.045 2.045v10.52a.947.947 0 1 1-1.894 0V23.27a.151.151 0 0 0-.151-.15h-5.574V33.92a.948.948 0 0 1-1.535.743l-2.697-2.132-2.697 2.132a.947.947 0 0 1-1.535-.743V23.118h-5.574a.15.15 0 0 0-.15.151v34.688c0 .083.067.151.15.151h10.762v-9.452c0-.918.747-1.664 1.665-1.664h7.336V36.948a.947.947 0 1 1 1.894 0v10.044h6.626c.918 0 1.665.746 1.665 1.664zm-22.48-25.539v8.845l1.75-1.383a.946.946 0 0 1 1.175 0l1.75 1.383v-8.845zm-24.91-1.266l1.75-1.382a.946.946 0 0 1 1.175 0l1.75 1.382v-8.844h-4.675zm15.396-10.74V5.802H12.613v5.312zM12.613 3.907H28.01V1.89H12.613zm4.675 32.6h-4.675v8.844l1.75-1.383a.945.945 0 0 1 1.175 0l1.75 1.383zM27.44 34.61a.57.57 0 0 0 .569-.568V13.576a.57.57 0 0 0-.569-.568h-8.257v10.801a.947.947 0 0 1-1.535.743l-2.697-2.131-2.698 2.131a.947.947 0 0 1-1.534-.743V13.008H2.46a.57.57 0 0 0-.568.568v20.466a.57.57 0 0 0 .568.568zm15.272 16.291h15.396v-2.014H42.712zm0 7.207h15.396v-5.312H42.712z"></path></g></g></svg> 