<?xml version="1.0" encoding="UTF-8"?> <svg xmlns="http://www.w3.org/2000/svg" width="61" height="61" viewBox="0 0 61 61"><g><g><path fill="#e31e24" d="M53.798 35.967a4.97 4.97 0 0 1 6.623 1.809.779.779 0 0 1-.227 1.044L42.102 51.23a.716.716 0 0 1-.095.056 13.549 13.549 0 0 1-8.364 1.18l-10.46-1.924a3.093 3.093 0 0 0-2.306.28l-5.142 3.247 1.65 5.414a.777.777 0 0 1-.746 1.006H4.071a.78.78 0 0 1-.774-.685L.504 36.924a.779.779 0 0 1 .774-.873h8.38a.78.78 0 0 1 .746.552l.984 3.226a6.007 6.007 0 0 0 2.268-1.262l1.732-1.541a12.32 12.32 0 0 1 12.861-1.29l.718.346a7.534 7.534 0 0 0 3.262.747h5.217l3.92-2.13a5.533 5.533 0 0 1 6.33.57l.729-.39a.14.14 0 0 1 .017-.009c1.644-.833 3.803-.248 5.049 1.263zm-9.933 3.136c.405.514.722 1.09.94 1.706l.403-.213 6.86-3.696c-.764-.73-1.962-1.12-2.913-.644zm-3.407-2.139a5.947 5.947 0 0 1 2.228 1.003l3.488-1.877a3.97 3.97 0 0 0-4.035-.038c-.005.004-.012.007-.018.01zM15.586 58.931L9.08 37.61H2.16l2.602 21.32zm43.055-20.937a3.411 3.411 0 0 0-4.101-.657l-8.6 4.634-.814.429c.008.124.013.249.013.375a.78.78 0 0 1-.78.78l-.035-.001-5.935-.269a28.69 28.69 0 0 0-5.205.24.78.78 0 0 1-.214-1.544 30.246 30.246 0 0 1 5.49-.253l5.042.228a4.399 4.399 0 0 0-4.316-3.57h-6.958a9.118 9.118 0 0 1-3.941-.902l-.717-.347A10.764 10.764 0 0 0 16.4 38.21l-1.709 1.52a7.558 7.558 0 0 1-2.848 1.591l3.418 11.203 4.8-3.031a4.65 4.65 0 0 1 3.427-.48l10.434 1.919a11.97 11.97 0 0 0 7.343-1.02zM7.24 55.707a2.455 2.455 0 1 1 4.912 0c0 1.354-1.1 2.453-2.456 2.453a2.454 2.454 0 0 1-2.456-2.453zm2.456-.895a.896.896 0 1 0 0 0zM36.446 8.965a5.918 5.918 0 0 1-5.92 5.888 5.918 5.918 0 0 1-5.921-5.888V6.398A5.918 5.918 0 0 1 30.525.51a5.918 5.918 0 0 1 5.921 5.888zm-10.281 0a4.358 4.358 0 0 0 4.36 4.333 4.359 4.359 0 0 0 4.361-4.333V6.398a4.359 4.359 0 0 0-4.36-4.334 4.358 4.358 0 0 0-4.361 4.334zM20.982 30.93a.78.78 0 0 1-.78-.78v-1.788H7.115a.78.78 0 0 1-.78-.779v-5.058a5.841 5.841 0 0 1 5.695-5.836.781.781 0 0 1 .647.316 3.582 3.582 0 0 0 5.648.138c.173-.211.388-.475.803-.444a5.804 5.804 0 0 1 2.66.834 6.536 6.536 0 0 1 4.813-2.286.779.779 0 0 1 .646.317 4.203 4.203 0 0 0 6.627.162c.197-.24.402-.484.804-.468 1.77.106 3.42.925 4.577 2.267a5.796 5.796 0 0 1 2.87-.836.779.779 0 0 1 .645.316 3.581 3.581 0 0 0 5.648.139c.174-.212.388-.476.803-.445a5.843 5.843 0 0 1 5.475 5.826v5.058a.78.78 0 0 1-.78.78H40.849v1.788c0 .43-.35.78-.78.78zm20.81-12.657a4.21 4.21 0 0 0-1.664.548 6.52 6.52 0 0 1 .721 2.984v4.998h12.287v-4.278a4.285 4.285 0 0 0-3.65-4.232 5.142 5.142 0 0 1-7.695-.02zM26.263 16.83a5.035 5.035 0 0 0-4.502 4.975v7.567h17.527v-7.567a5.006 5.006 0 0 0-4.323-4.954 5.765 5.765 0 0 1-8.702-.02zm-6.062 9.973v-4.998a6.52 6.52 0 0 1 .713-2.976 4.259 4.259 0 0 0-1.522-.536 5.14 5.14 0 0 1-7.695-.02 4.31 4.31 0 0 0-3.803 4.252v4.278zm30.64-15.517a5.277 5.277 0 0 1-5.28 5.276 5.278 5.278 0 0 1-5.28-5.276V9.04a5.277 5.277 0 0 1 5.28-5.274 5.276 5.276 0 0 1 5.28 5.274zm-9 0a3.718 3.718 0 0 0 3.72 3.717 3.718 3.718 0 0 0 3.72-3.717V9.04a3.718 3.718 0 0 0-3.72-3.716 3.718 3.718 0 0 0-3.72 3.716zm-21.094 0a5.277 5.277 0 0 1-5.28 5.276 5.277 5.277 0 0 1-5.28-5.276V9.04a5.277 5.277 0 0 1 5.28-5.274 5.276 5.276 0 0 1 5.28 5.274zm-9 0a3.718 3.718 0 0 0 3.72 3.717 3.718 3.718 0 0 0 3.72-3.717V9.04a3.718 3.718 0 0 0-3.72-3.716 3.718 3.718 0 0 0-3.72 3.716z"></path></g></g></svg> 