<?xml version="1.0" encoding="UTF-8"?> <svg xmlns="http://www.w3.org/2000/svg" width="60" height="60" viewBox="0 0 60 60"><g><g><path fill="#e31e24" d="M10.996 16.997a1 1 0 0 1 0-2h7.002a1 1 0 0 1 1 1v1h2v-1a1 1 0 0 1 1-1H30a1 1 0 0 1 0 2h-7.001v1a1 1 0 0 1-1 1h-4.001a1 1 0 0 1-1-1v-1zM45.003 39a6 6 0 1 1-4.244 10.245 6.002 6.002 0 0 1 4.244-10.245zm0 10.002a4 4 0 1 0 0-8.002 4 4 0 0 0 0 8.002zm14.003-8.001a1 1 0 0 1 1 1v6a1 1 0 0 1-1 1h-3.754c-.057.145-.114.284-.174.42l2.655 2.655c.39.39.39 1.023 0 1.414l-4.241 4.241a1.03 1.03 0 0 1-1.415 0l-2.654-2.655c-.136.06-.275.117-.42.174v3.754a1 1 0 0 1-1 1h-6a1 1 0 0 1-1-1v-3.754a11.625 11.625 0 0 1-.42-.174l-2.654 2.655c-.391.39-1.024.39-1.415 0l-4.24-4.24a1 1 0 0 1 0-1.415l2.654-2.654a11.82 11.82 0 0 1-.174-.42H31a1 1 0 0 1-1-1v-6.001a1 1 0 0 1 1-1h3.755c.057-.144.114-.284.174-.42L32.347 38H24.9a5 5 0 0 1-9.802 0H9.996v20.004h2V47.003a1 1 0 0 1 1-1H27a1 1 0 0 1 1 1v11.002h6.002a1 1 0 0 1 0 2H.994a1 1 0 0 1-1-1V43.002A7.01 7.01 0 0 1 6.995 36h8.002v-1.215A11.008 11.008 0 0 1 9.04 25.87a4.001 4.001 0 0 1-3.045-3.872 3 3 0 1 1 0-6.002A13.93 13.93 0 0 1 16.04 2.575a3 3 0 0 1 2.959-2.581h2a3 3 0 0 1 2.958 2.575A14.004 14.004 0 0 1 34 15.996a3 3 0 0 1 0 6.002 4.001 4.001 0 0 1-3.045 3.872 11.008 11.008 0 0 1-5.957 8.916v1.215h7.787l3.728-3.728a1 1 0 0 1 1.415 0l2.654 2.654c.136-.06.275-.117.42-.173v-3.755a1 1 0 0 1 1-1h6a1 1 0 0 1 1 1v3.755c.145.056.284.114.42.173l2.654-2.654a1 1 0 0 1 1.415 0l4.24 4.24c.39.391.39 1.024 0 1.415l-2.654 2.654c.06.136.117.276.174.42zm-45.01 17.003H26V48.003H13.997zM31 23.729c.619-.357 1-1.017 1-1.731h-1zM4.995 18.997a1 1 0 0 0 1 1h28.006a1 1 0 0 0 0-2 1 1 0 0 1-2 0v-2a11.958 11.958 0 0 0-8.002-11.303v6.302a1 1 0 0 1-2 0V2.993a1 1 0 0 0-1-1h-2.001a1 1 0 0 0-1 1v8.003a1 1 0 0 1-2 0V4.684a11.94 11.94 0 0 0-8.002 11.312v2a1 1 0 0 1-2 0 1 1 0 0 0-1.001 1.001zm3 3c.001.715.382 1.375 1 1.732v-1.731zm3.001 3.001a9.002 9.002 0 1 0 18.004 0v-3H10.996zM1.994 58.005h6.001V38h-1a5.007 5.007 0 0 0-5 5.001zM19.998 40a3 3 0 0 0 3-3v-1.426c-1.96.568-4.04.568-6 0V37a3 3 0 0 0 3 3zm38.007 3.001h-3.46a1 1 0 0 1-.952-.694 8.287 8.287 0 0 0-.606-1.446 1 1 0 0 1 .17-1.188l2.454-2.454-2.827-2.826-2.453 2.454a1 1 0 0 1-1.188.17 8.298 8.298 0 0 0-1.446-.605 1 1 0 0 1-.694-.952v-3.462h-4v3.462a1 1 0 0 1-.695.952c-.5.155-.983.358-1.445.604a1 1 0 0 1-1.188-.17l-2.454-2.453-2.826 2.826 2.453 2.454a1 1 0 0 1 .17 1.188c-.247.462-.45.946-.605 1.446a1 1 0 0 1-.952.694h-3.46v4h3.46a1 1 0 0 1 .952.695c.156.5.358.984.605 1.446a1 1 0 0 1-.17 1.187l-2.453 2.454 2.826 2.827 2.454-2.454a.999.999 0 0 1 1.188-.17 8.35 8.35 0 0 0 1.445.605 1 1 0 0 1 .695.952v3.46h4v-3.46a1 1 0 0 1 .694-.952c.5-.156.984-.358 1.446-.605a.999.999 0 0 1 1.188.17l2.453 2.454 2.827-2.827-2.453-2.454a1 1 0 0 1-.17-1.187 8.28 8.28 0 0 0 .605-1.446 1 1 0 0 1 .951-.694h3.461zM44.003 33h2v2h-2zm-8.194 4.223l1.414-1.415 1.415 1.415-1.415 1.414zM33 44.002h2v2h-2zm2.81 8.78l1.413-1.415 1.415 1.415-1.415 1.414zm8.193 2.222h2v2h-2zm7.365-2.222l1.415-1.415 1.414 1.415-1.414 1.414zm0-15.56l1.415-1.414 1.414 1.415-1.414 1.415zm3.637 6.78h2v2h-2zm4-29.006a1 1 0 0 1 1 1v4.001a1 1 0 0 1-1 1H57.25l1.244 1.243a1 1 0 0 1 0 1.415l-2.831 2.83a.999.999 0 0 1-1.414 0l-1.243-1.242v1.755a1 1 0 0 1-1 1h-4.001a1 1 0 0 1-1-1v-1.755l-1.244 1.242a.999.999 0 0 1-1.414 0l-2.83-2.83a1 1 0 0 1 0-1.415l1.242-1.243h-1.756a1 1 0 0 1-1-1v-4a1 1 0 0 1 1-1h1.756l-1.243-1.244a1 1 0 0 1 0-1.414l2.83-2.83a.999.999 0 0 1 1.415 0l1.243 1.242V8.995a1 1 0 0 1 1-1h4.001a1 1 0 0 1 1 1v1.756l1.244-1.243a.999.999 0 0 1 1.414 0l2.83 2.83a1 1 0 0 1 0 1.415l-1.243 1.243zm-1 2h-2.35c-.444.001-.835-.29-.961-.716a2.231 2.231 0 0 0-.168-.4 1.002 1.002 0 0 1 .179-1.171l1.664-1.663-1.417-1.416-1.664 1.663a.999.999 0 0 1-1.17.179 2.266 2.266 0 0 0-.4-.168 1 1 0 0 1-.714-.958v-2.35h-2v2.35a1 1 0 0 1-.717.96c-.138.044-.272.1-.4.169a1 1 0 0 1-1.17-.179l-1.664-1.666-1.416 1.416 1.663 1.666a1 1 0 0 1 .179 1.17 2.279 2.279 0 0 0-.168.402 1.001 1.001 0 0 1-.958.713h-2.35v2h2.35a1 1 0 0 1 .961.716c.043.138.1.273.168.4.203.388.13.863-.179 1.172l-1.666 1.663 1.416 1.416L46.72 22.7a1 1 0 0 1 1.171-.179c.128.068.262.125.4.168a1 1 0 0 1 .714.957v2.351h2v-2.35a1 1 0 0 1 .716-.961c.139-.043.273-.1.4-.169.388-.202.862-.13 1.172.18l1.663 1.666 1.416-1.419-1.663-1.664a.999.999 0 0 1-.179-1.17c.068-.128.125-.262.168-.401a1 1 0 0 1 .958-.713h2.35zm-8.001-3a4 4 0 1 1 0 8.002 4 4 0 0 1 0-8.002zm0 6.001a2 2 0 1 0 .001-4 2 2 0 0 0-.001 4z"></path></g></g></svg> 