<?xml version="1.0" encoding="UTF-8"?> <svg xmlns="http://www.w3.org/2000/svg" width="61" height="61" viewBox="0 0 61 61"><g><g><path fill="#e31e24" d="M44.96 29.826a2.946 2.946 0 0 1-.899 4.17 2.942 2.942 0 0 1-1.002 4.007 2.946 2.946 0 0 1-2.534 4.44H25.183a1.945 1.945 0 0 1-1.698 1.003h-6.012a1.945 1.945 0 0 1-1.941-1.943V25.472c0-1.07.87-1.942 1.941-1.942h6.012c.327 0 .635.083.906.225.551-.44.997-.876 1.294-1.193.567-.603 1.213-1.025 1.92-1.254 1.801-.586 3.022-1.51 3.728-2.182.863-.82 1.216-1.511 1.25-1.712a3.402 3.402 0 0 1 1.013-2.418 3.424 3.424 0 0 1 2.43-.997h.032a3.295 3.295 0 0 1 2.463 1.131c.7.788 1.033 1.86.914 2.938-.194 1.766-1.199 3.732-2.736 5.462h6.33a3.444 3.444 0 1 1 1.93 6.297zm-.365-2.852c0-.862-.702-1.566-1.566-1.566h-8.672a.94.94 0 0 1-.59-1.669c2.104-1.704 3.597-4.011 3.802-5.877.06-.543-.109-1.1-.452-1.485a1.432 1.432 0 0 0-1.075-.5 1.577 1.577 0 0 0-1.122.454 1.537 1.537 0 0 0-.458 1.099c0 .79-.642 1.89-1.719 2.948-.858.843-2.346 1.997-4.558 2.717-.401.13-.782.383-1.13.753-.367.393-.93.942-1.634 1.488.003.045.006.09.006.136v2.004a.939.939 0 0 1-1.878 0v-2.004a.063.063 0 0 0-.063-.064h-6.012a.063.063 0 0 0-.062.064v16.03c0 .035.028.064.062.064h6.012c.035 0 .063-.03.063-.064v-10.02a.94.94 0 0 1 1.878 0v9.081h15.098a1.065 1.065 0 0 0 0-2.13.939.939 0 1 1 0-1.878h1.001a1.065 1.065 0 0 0 0-2.128.94.94 0 0 1 0-1.88h1.002a1.066 1.066 0 0 0 0-2.129.94.94 0 0 1 0-1.879h.501c.864 0 1.566-.7 1.566-1.565zm-23.17 11.518a.948.948 0 0 1-.945.944.948.948 0 0 1-.944-.944c0-.52.426-.944.944-.944.52 0 .945.424.945.944zm39.01-3.74c.118.31.062.66-.145.919l-2.854 3.561.215 4.561a.94.94 0 0 1-.423.829l-3.815 2.505-1.205 4.405a.937.937 0 0 1-.658.657l-4.403 1.206-2.506 3.813a.933.933 0 0 1-.83.424l-4.56-.216-3.562 2.854a.939.939 0 0 1-.919.146l-4.27-1.613-4.27 1.613a.938.938 0 0 1-.92-.146l-3.562-2.854-4.56.216a.934.934 0 0 1-.83-.424l-2.505-3.813L9.45 52.19a.938.938 0 0 1-.659-.657l-1.204-4.405-3.815-2.505a.94.94 0 0 1-.423-.829l.215-4.56L.71 35.67a.938.938 0 0 1-.146-.92l1.614-4.271L.564 26.21a.94.94 0 0 1 .146-.92l2.854-3.56-.215-4.56a.939.939 0 0 1 .423-.83l3.815-2.507L8.791 9.43a.94.94 0 0 1 .659-.658l4.403-1.205 2.506-3.815a.938.938 0 0 1 .83-.424l4.559.217L25.31.693a.936.936 0 0 1 .92-.148L30.5 2.16 34.77.545a.941.941 0 0 1 .92.145l3.562 2.856 4.56-.217a.941.941 0 0 1 .829.424l2.506 3.815 4.403 1.205c.32.086.57.338.658.658l1.205 4.403 3.815 2.507a.939.939 0 0 1 .423.83l-.215 4.56 2.854 3.56a.94.94 0 0 1 .145.92l-1.613 4.269zm-3.496-4.604l1.55-4.1-2.741-3.42a.94.94 0 0 1-.206-.633l.207-4.38-3.664-2.405a.936.936 0 0 1-.39-.539l-1.157-4.227-4.229-1.157a.945.945 0 0 1-.537-.39l-2.407-3.665-4.379.207a.938.938 0 0 1-.632-.205l-3.42-2.742-4.102 1.55a.938.938 0 0 1-.664 0l-4.1-1.55-3.422 2.742a.942.942 0 0 1-.632.205l-4.379-.207-2.407 3.665a.945.945 0 0 1-.537.39l-4.229 1.157-1.156 4.227a.936.936 0 0 1-.39.539L5.25 17.616l.207 4.379a.941.941 0 0 1-.205.632L2.51 26.05l1.55 4.1a.94.94 0 0 1 0 .664l-1.55 4.101 2.742 3.421a.942.942 0 0 1 .205.632l-.207 4.38 3.664 2.406c.192.125.33.316.39.537l1.157 4.23 4.229 1.156c.22.06.412.199.537.39l2.407 3.664 4.38-.206a.94.94 0 0 1 .63.205l3.422 2.74 4.101-1.55a.94.94 0 0 1 .664 0l4.101 1.55 3.421-2.74a.94.94 0 0 1 .632-.205l4.379.206 2.407-3.664a.936.936 0 0 1 .537-.39l4.229-1.157 1.156-4.23c.06-.22.2-.41.39-.536l3.665-2.406-.207-4.38a.942.942 0 0 1 .206-.632l2.74-3.42-1.549-4.102a.939.939 0 0 1 0-.665zM45.407 14.173a.94.94 0 0 1 1.27-1.386 25.046 25.046 0 0 1 1.473 1.474.94.94 0 0 1-1.384 1.27 22.375 22.375 0 0 0-1.36-1.358zM8.382 29.568a22.03 22.03 0 0 0 5.155 15.114.938.938 0 1 1-1.437 1.208 23.9 23.9 0 0 1-5.595-16.397A23.913 23.913 0 0 1 13.51 13.51a24.02 24.02 0 0 1 14.475-6.896 24.065 24.065 0 0 1 15.356 3.61.94.94 0 0 1-1.01 1.586c-4.173-2.661-9.2-3.842-14.153-3.328a22.14 22.14 0 0 0-13.34 6.356 22.035 22.035 0 0 0-6.456 14.73zm42.332-11.97c2.885 4.529 4.168 9.983 3.612 15.355a24.033 24.033 0 0 1-6.897 14.475 23.915 23.915 0 0 1-16.966 7.025 23.88 23.88 0 0 1-15.416-5.616.937.937 0 1 1 1.21-1.435 22.036 22.036 0 0 0 15.113 5.155A22.047 22.047 0 0 0 46.1 46.1a22.152 22.152 0 0 0 6.357-13.34 22.192 22.192 0 0 0-3.328-14.154.94.94 0 1 1 1.585-1.008z"></path></g></g></svg> 