<?xml version="1.0" encoding="UTF-8"?> <svg xmlns="http://www.w3.org/2000/svg" width="62" height="60" viewBox="0 0 62 60"><g><g><path fill="#e31e24" d="M.807 44.343a.911.911 0 0 1-.911-.912V8.877a5.548 5.548 0 0 1 5.54-5.544h1.405v-1.13c0-1.221.993-2.214 2.214-2.214h1.692c1.221 0 2.214.993 2.214 2.215v1.129h6.044v-1.13c0-1.221.992-2.214 2.213-2.214h1.693c1.22 0 2.213.993 2.213 2.215v1.129h6.044v-1.13c0-1.221.993-2.214 2.214-2.214h1.692c1.221 0 2.214.993 2.214 2.215v1.129h6.044v-1.13c0-1.221.993-2.214 2.213-2.214h1.693c1.22 0 2.213.993 2.213 2.215v1.129h2.39a5.548 5.548 0 0 1 5.54 5.544v18.02a.911.911 0 1 1-1.822 0V16.874H1.719v26.557a.911.911 0 0 1-.912.912zm44.347-37.71c0 .217.176.392.391.392h1.693c.216 0 .39-.176.39-.392v-4.43a.391.391 0 0 0-.39-.39h-1.693a.391.391 0 0 0-.39.39zm-12.163 0c0 .217.175.392.39.392h1.693a.392.392 0 0 0 .392-.392v-4.43a.391.391 0 0 0-.392-.39h-1.692a.39.39 0 0 0-.391.39zm-12.164 0c0 .217.176.392.391.392h1.693a.392.392 0 0 0 .391-.392v-4.43a.391.391 0 0 0-.39-.39h-1.694a.391.391 0 0 0-.39.39zm-12.163 0c0 .217.175.392.391.392h1.693c.215 0 .39-.176.39-.392v-4.43a.39.39 0 0 0-.39-.39H9.055a.391.391 0 0 0-.391.39zM5.437 5.156a3.723 3.723 0 0 0-3.719 3.72v6.175H55.56V8.877a3.723 3.723 0 0 0-3.718-3.72h-2.39v1.476a2.217 2.217 0 0 1-2.213 2.216h-1.693a2.217 2.217 0 0 1-2.213-2.216V5.156h-6.044v1.477a2.217 2.217 0 0 1-2.213 2.216h-1.693a2.217 2.217 0 0 1-2.214-2.216V5.156h-6.043v1.477A2.217 2.217 0 0 1 22.91 8.85h-1.693a2.217 2.217 0 0 1-2.213-2.216V5.156h-6.044v1.477a2.217 2.217 0 0 1-2.213 2.216H9.055a2.217 2.217 0 0 1-2.214-2.216V5.156zm4.775 47.667a.911.911 0 1 1 0 1.823H2.267a2.374 2.374 0 0 1-2.371-2.372v-4.688a.911.911 0 1 1 1.822 0v4.688c0 .302.246.549.549.549zm-.03-33.29a.912.912 0 0 1 0 1.824H7.015a.912.912 0 0 1 0-1.824zm6.567 1.824a.912.912 0 0 1 0-1.824h3.167a.911.911 0 0 1 0 1.824zm9.734 0a.911.911 0 0 1 0-1.824h3.167a.912.912 0 0 1 0 1.824zm9.734 0a.912.912 0 0 1 0-1.824h3.167a.912.912 0 0 1 0 1.824zm12.901-1.824a.912.912 0 0 1 0 1.824h-3.167a.911.911 0 0 1 0-1.824zm-38.936 4.585a.912.912 0 0 1 0 1.824H7.015a.911.911 0 0 1 0-1.824zm6.567 1.824a.911.911 0 0 1 0-1.824h3.167a.912.912 0 0 1 0 1.824zm9.734 0a.911.911 0 1 1 0-1.824h3.167a.912.912 0 0 1 0 1.824zm9.734 0a.911.911 0 0 1 0-1.824h3.167a.912.912 0 0 1 0 1.824zm12.901-1.824a.912.912 0 0 1 0 1.824h-3.167a.91.91 0 1 1 0-1.824zM16.771 43.842a3.597 3.597 0 0 1 0-5.078c1.4-1.4 3.676-1.4 5.075 0l2.148 2.149 10.293-10.3a3.593 3.593 0 0 1 5.075 0c1.4 1.4 1.4 3.679 0 5.079L26.531 48.53a3.564 3.564 0 0 1-2.537 1.051c-.959 0-1.86-.374-2.537-1.051zm1.289-3.789a1.77 1.77 0 0 0 0 2.5l4.685 4.687c.334.334.777.518 1.249.518.472 0 .915-.184 1.248-.518l12.831-12.838a1.77 1.77 0 0 0 0-2.5 1.768 1.768 0 0 0-2.497.001L24.638 42.847a.91.91 0 0 1-1.289 0l-2.792-2.794a1.763 1.763 0 0 0-1.249-.516c-.452 0-.904.172-1.248.516zm39.321-1.725a12.086 12.086 0 0 1 4.723 9.584c0 6.671-5.424 12.098-12.09 12.098-4.177 0-7.866-2.131-10.039-5.364h-25.61a.912.912 0 0 1 0-1.823h24.6a12.04 12.04 0 0 1-1.04-4.91c0-6.67 5.423-12.098 12.09-12.098 1.996 0 3.882.488 5.544 1.35v-6.113a.912.912 0 1 1 1.822 0zm-7.367 19.858c5.661 0 10.267-4.608 10.267-10.274 0-5.664-4.606-10.273-10.267-10.273-5.66 0-10.267 4.609-10.267 10.273 0 5.666 4.606 10.274 10.267 10.274zm0-19.23c4.935 0 8.95 4.018 8.95 8.956 0 4.939-4.014 8.956-8.95 8.956-4.935 0-8.95-4.017-8.95-8.956 0-4.938 4.015-8.956 8.95-8.956zm.816 16.04a7.141 7.141 0 0 0 6.264-6.267.9.9 0 0 1-.404.096h-1.11a.912.912 0 0 1 0-1.824h1.11c.145 0 .282.035.404.095a7.142 7.142 0 0 0-6.264-6.268.91.91 0 0 1 .095.405v1.11a.912.912 0 1 1-1.822 0v-1.11c0-.146.035-.282.095-.405a7.141 7.141 0 0 0-6.263 6.268.906.906 0 0 1 .403-.095h1.11a.911.911 0 1 1 0 1.824h-1.11a.897.897 0 0 1-.403-.096 7.14 7.14 0 0 0 6.263 6.267.9.9 0 0 1-.095-.403v-1.111a.912.912 0 1 1 1.822 0v1.11a.907.907 0 0 1-.095.404zm1.193-7.995a.911.911 0 0 1 0 1.824h-2.009a.912.912 0 0 1-.911-.913v-1.846a.911.911 0 1 1 1.822 0V47z"></path></g></g></svg> 