<?xml version="1.0" encoding="UTF-8"?> <svg xmlns="http://www.w3.org/2000/svg" width="72" height="61" viewBox="0 0 72 61"><g><g><path fill="#e31e24" d="M71.308 40.45v11.796c0 .611-.495 1.106-1.105 1.106h-3.614l.002.074c0 3.862-3.142 7.005-7.003 7.005s-7.003-3.143-7.003-7.005l.002-.074H27.668l.002.074c0 3.862-3.141 7.005-7.002 7.005-3.861 0-7.003-3.143-7.003-7.005l.002-.074H7.694a2.288 2.288 0 0 1-2.285-2.285v-2.434H1.797a1.106 1.106 0 0 1 0-2.211h10.615a1.106 1.106 0 1 1 0 2.211H7.62v2.434c0 .04.033.073.073.073h6.356c.95-2.743 3.557-4.718 6.618-4.718 3.06 0 5.668 1.975 6.617 4.718h22.941V42.81a1.106 1.106 0 1 1 2.212 0v8.331h.532c.95-2.743 3.557-4.718 6.618-4.718 3.061 0 5.668 1.975 6.618 4.718h2.891v-4.866h-1.253a3.469 3.469 0 0 1-3.465-3.465v-2.36c0-.61.495-1.106 1.106-1.106h3.438a3.618 3.618 0 0 0-3.435-2.507h-.004-13.046v1.254a1.106 1.106 0 1 1-2.212 0V18.034a.074.074 0 0 0-.073-.074H7.694a.074.074 0 0 0-.073.074V38.09a1.106 1.106 0 1 1-2.212 0V18.034a2.288 2.288 0 0 1 2.285-2.286h15.488l-9.411-3.765a1.106 1.106 0 0 1 .82-2.054l7.707 3.083c-2.348-1.507-4.671-3.166-5.556-4.326a5.157 5.157 0 0 1 .972-7.219 5.154 5.154 0 0 1 7.217.972c1.258 1.65 2.918 6.288 3.993 9.555 1.074-3.267 2.734-7.905 3.992-9.555a5.154 5.154 0 0 1 7.217-.972 5.157 5.157 0 0 1 .972 7.22c-.884 1.16-3.207 2.818-5.556 4.325l7.707-3.083a1.106 1.106 0 1 1 .82 2.054l-9.411 3.765h15.488a2.288 2.288 0 0 1 2.285 2.286v2.433h8.33a4.65 4.65 0 0 1 4.643 4.646v1.18c0 .53-.375.974-.875 1.08l1.829 7.318a5.833 5.833 0 0 1 4.943 5.758zM30.824 13.306c.747-.44 1.604-.954 2.485-1.502 4.361-2.71 5.655-3.958 6.038-4.46a2.943 2.943 0 0 0-.555-4.119 2.941 2.941 0 0 0-4.117.555c-1.07 1.402-2.745 6.124-3.85 9.526zm-6.286-1.501c.881.547 1.739 1.062 2.485 1.501-1.106-3.402-2.78-8.124-3.85-9.526a2.936 2.936 0 0 0-4.118-.555 2.943 2.943 0 0 0-.555 4.119c.383.502 1.677 1.75 6.038 4.46zm27.9 22.818h11.63l-1.805-7.226h-9.825zm0-11.945v2.507H63.2v-.073a2.436 2.436 0 0 0-2.433-2.434zM25.459 53.426a4.797 4.797 0 0 0-4.791-4.793 4.797 4.797 0 0 0-4.792 4.793 4.798 4.798 0 0 0 4.792 4.793 4.798 4.798 0 0 0 4.791-4.793zm38.92 0a4.797 4.797 0 0 0-4.79-4.793 4.797 4.797 0 0 0-4.792 4.793 4.798 4.798 0 0 0 4.791 4.793 4.798 4.798 0 0 0 4.791-4.793zm4.718-9.364v-2.507h-2.506v1.253c0 .692.562 1.254 1.253 1.254zm-46.144 9.364a2.288 2.288 0 0 1-2.285 2.286 2.288 2.288 0 0 1-2.285-2.286 2.288 2.288 0 0 1 2.285-2.286 2.288 2.288 0 0 1 2.285 2.286zm38.92 0a2.288 2.288 0 0 1-2.285 2.286 2.288 2.288 0 0 1-2.285-2.286 2.288 2.288 0 0 1 2.285-2.286 2.288 2.288 0 0 1 2.285 2.286zm-31.77-7.005h16.512a1.106 1.106 0 0 1 0 2.212H30.103a1.106 1.106 0 0 1 0-2.212zM3.05 42.808c0-.61.495-1.105 1.106-1.105h14.153a1.106 1.106 0 1 1 0 2.211H4.156c-.61 0-1.106-.495-1.106-1.106zm15.259-15.41h-3.612v2.507h2.432a1.106 1.106 0 0 1 0 2.212h-2.432v3.613a1.106 1.106 0 1 1-2.211 0v-9.438c0-.61.495-1.106 1.105-1.106h4.718a1.106 1.106 0 1 1 0 2.212zm8.701 5.238l1.654 2.48a1.106 1.106 0 0 1-1.84 1.228l-2.03-3.047h-1.841v2.433a1.106 1.106 0 1 1-2.212 0v-9.438c0-.61.495-1.106 1.106-1.106h2.949a4.06 4.06 0 0 1 4.054 4.056c0 1.418-.733 2.669-1.84 3.394zm-4.057-1.551h1.843a1.845 1.845 0 0 0 1.842-1.843 1.845 1.845 0 0 0-1.842-1.844h-1.843zM36 27.398h-3.612v2.51c.024-.001.049-.003.074-.003h2.359a1.106 1.106 0 0 1 0 2.212h-2.36c-.024 0-.049-.002-.073-.004v2.511H36a1.106 1.106 0 0 1 0 2.212h-4.718c-.61 0-1.105-.495-1.105-1.106v-9.438c0-.61.495-1.106 1.105-1.106H36a1.106 1.106 0 0 1 0 2.212zm8.256 0h-3.612v2.507h1.253a1.106 1.106 0 0 1 0 2.212h-1.253v2.507h3.612a1.106 1.106 0 1 1 0 2.212h-4.718c-.61 0-1.106-.495-1.106-1.106v-9.438c0-.61.495-1.106 1.106-1.106h4.718a1.106 1.106 0 1 1 0 2.212z"></path></g></g></svg> 