<?xml version="1.0" encoding="UTF-8"?> <svg xmlns="http://www.w3.org/2000/svg" width="61" height="61" viewBox="0 0 61 61"><g><g><path fill="#e31e24" d="M52.416 44.175a8.01 8.01 0 0 1 6.992 3.9 7.999 7.999 0 0 1 .116 8.003 8.008 8.008 0 0 1-6.875 4.102H8.61A8 8 0 0 1 .62 52.389a8 8 0 0 1 7.58-8.193L.811 26.383a2.006 2.006 0 0 1 1.084-2.614l8.326-3.445a2.023 2.023 0 0 1 2.612 1.07l5.447 13.148c.758-.195 1.533-.31 2.315-.344l-4.953-21.124v-.045a1.06 1.06 0 0 1-.025-.223l.376-10.398a2.31 2.31 0 0 1 4.342-1.016l4.958 9.151c.03.061.054.127.07.193.006.02.027.034.027.055l4.854 20.747a13.638 13.638 0 0 1 2.492-1.736 50.019 50.019 0 0 1 .174-7.094c.13-1.425.32-2.889.563-4.434a7.775 7.775 0 0 1-1.425-2.3 5.852 5.852 0 0 1 1.372-6.38c3.807-4.199 4.254-6.24 3.738-8.175A1 1 0 0 1 38.745.376c.225.177 5.496 4.388 6.122 10.217a10.913 10.913 0 0 1-2.484 8.014 54.038 54.038 0 0 1-.519 9.837c1.247.259 2.45.692 3.575 1.29L47.73 24.2v-.012a18.756 18.756 0 0 0 1.683-6.235c.012-.502.278-.965.706-1.23l7.067-4.408h.01c.015-.01.033-.013.048-.02a.999.999 0 0 1 .552-.123c.023.002.043.016.066.016.08.01.158.03.234.058a.996.996 0 0 1 .155.094 1 1 0 0 1 .11.065c.052.05.1.106.14.166.02.026.055.06.063.074.008.014.011.031.02.046a.978.978 0 0 1 .1.243l1.879 8.112a1.491 1.491 0 0 1-.37 1.366 18.772 18.772 0 0 0-3.217 5.583.18.18 0 0 1 0 .022l-4.584 11.056c.334 1.683.342 3.415.024 5.102zm-1.02-25.891a19.76 19.76 0 0 1-1.34 5.44 4.114 4.114 0 0 0 5.595 2.312 19.781 19.781 0 0 1 2.902-4.789l-1.112-4.814-1.485 3.585a1 1 0 0 1-1.85-.766l1.486-3.585zm-4.242 12.54a13.572 13.572 0 0 1 4.297 5.31l3.194-7.703a5.523 5.523 0 0 1-.607.038 6.366 6.366 0 0 1-2.449-.517 6.1 6.1 0 0 1-2.495-1.815zM35.38 18.994c-.147 1-.27 1.954-.37 2.896.126.017.249.032.375.05 1.656.28 3.339.361 5.014.241.031-.98.042-1.947.01-2.881l-5.027-.307zm-.477-8.056a4.169 4.169 0 0 0 .076 6.021c1.934.12 3.89.24 5.867.36a8.96 8.96 0 0 0 2.025-6.514 13.375 13.375 0 0 0-3.612-7.17c-.32 2.119-1.697 4.373-4.355 7.303zm-.076 12.946a48.215 48.215 0 0 0-.127 5.05 13.38 13.38 0 0 1 4.436-.763c.248 0 .49.023.737.037.19-1.39.339-2.735.43-4.022-.437.034-.874.068-1.288.068a28.614 28.614 0 0 1-3.896-.332l-.29-.038zm-7.74 11.698c.419-.827.922-1.608 1.502-2.33l-4.466-19.086a4.738 4.738 0 0 1-1.748 1.33l.709 3.023a1 1 0 1 1-1.95.455l-.707-3.019c-.064.003-.13.012-.194.012a4.737 4.737 0 0 1-1.96-.426l4.393 18.735c.744.11 1.475.29 2.182.543l-2.573-10.972a1 1 0 0 1 1.948-.456zm-6.115-21.705a3.32 3.32 0 0 0 2.399-2.689L21.686 8.08a5.111 5.111 0 0 1-1.855.923 4.461 4.461 0 0 1-1.017.112 5.848 5.848 0 0 1-1.056-.1l-.127 3.524a3.324 3.324 0 0 0 3.342 1.337zM18.232 2.19a.31.31 0 0 0-.24.29l-.164 4.507a3.397 3.397 0 0 0 1.542.073c.502-.143.964-.4 1.352-.75l-2.146-3.966a.312.312 0 0 0-.344-.154zM2.659 25.614l7.253 17.48a11.61 11.61 0 0 1 6.48-7.882l-.809-1.954-3.703 1.533a1 1 0 0 1-.767-1.849l3.707-1.535-.766-1.85-1.853.768a1 1 0 0 1-.766-1.849l1.852-.766-.765-1.85-3.704 1.535a1.002 1.002 0 0 1-1.363-.728 1 1 0 0 1 .595-1.12l3.703-1.532-.765-1.846zm49.99 32.565a6.003 6.003 0 0 0 6.004-6.002 6.003 6.003 0 0 0-6.004-6.002c-.45.001-.898.05-1.337.147a1 1 0 0 1-1.171-1.272c.337-1.094.508-2.232.506-3.376a11.505 11.505 0 0 0-9.45-11.327 11.51 11.51 0 0 0-12.836 7.277 1 1 0 0 1-1.534.45 9.511 9.511 0 0 0-9.873-.942 9.502 9.502 0 0 0-5.34 8.352 1.002 1.002 0 0 1-1.29.94 6.003 6.003 0 0 0-7.718 5.754 6.003 6.003 0 0 0 6.005 6.001zm-13.32-42.314a1 1 0 0 1-.802-1.6 5.552 5.552 0 0 0 .993-4.168 1.001 1.001 0 1 1 1.934-.515c.4 2.063-.082 4.2-1.331 5.89a1 1 0 0 1-.8.395zm-1.323 30.31a5.005 5.005 0 0 1 4.544 2.916 1 1 0 0 1-1.822.83 3.002 3.002 0 0 0-2.722-1.745c-.676 0-1.332.231-1.858.656a.957.957 0 0 1-.105.054.851.851 0 0 1-.093.07.818.818 0 0 1-.079.019 1.25 1.25 0 0 1-.382.063.91.91 0 0 1-.188-.029 1.008 1.008 0 0 1-.18-.055.993.993 0 0 1-.16-.101.944.944 0 0 1-.156-.13c-.02-.021-.046-.03-.064-.053a1.035 1.035 0 0 1-.053-.1 1.382 1.382 0 0 1-.07-.093A3.963 3.963 0 0 0 31 46.175a4.002 4.002 0 0 0-4.003 4.001c0 .553.112 1.1.33 1.607a1.001 1.001 0 1 1-1.842.784 6.005 6.005 0 0 1 10.374-5.891 4.918 4.918 0 0 1 2.147-.5zM18.303 39.22a1.003 1.003 0 0 1 .64 1.901 3.44 3.44 0 0 0-2.325 3.054 1 1 0 0 1-2.002 0c0-3.679 3.536-4.902 3.687-4.95zm14.085-1.076a1.001 1.001 0 0 1-.727-1.214 6.233 6.233 0 0 1 5.975-4.758 1 1 0 1 1 .005 2 4.267 4.267 0 0 0-4.04 3.244 1 1 0 0 1-1.213.728z"></path></g></g></svg> 