<?xml version="1.0" encoding="UTF-8"?><!DOCTYPE svg PUBLIC "-//W3C//DTD SVG 1.1//EN" "http://www.w3.org/Graphics/SVG/1.1/DTD/svg11.dtd"><svg xmlns="http://www.w3.org/2000/svg"><symbol id="ico-arrow-left" viewBox="0 0 16 30">
    <path d="M16.01 29.995L3.85 15 16.01.005h-3.86L-.01 15l12.16 14.995z"/>
</symbol><symbol id="ico-arrow-right" viewBox="0 0 16 30">
    <path d="M-.01 29.995L12.15 15-.01.005h3.86L16.01 15 3.85 29.995z"/>
</symbol><symbol id="ico-con-ic-1" viewBox="0 0 33 32">
    <path d="M9.312 22.832C.284 13.795-.45 7.662.525 4.109c.267-.95.89-1.76 1.741-2.26L4.973.22a1.88 1.88 0 0 1 2.533.57l4.317 6.477A1.892 1.892 0 0 1 11.41 9.8l-2.42 1.886a.808.808 0 0 0-.214 1.037l.197.36c.648 1.187 1.456 2.668 4.437 5.652 2.98 2.983 4.46 3.79 5.649 4.44l.358.197a.805.805 0 0 0 1.034-.218l1.885-2.425a1.888 1.888 0 0 1 2.53-.411l6.472 4.319a1.881 1.881 0 0 1 .57 2.535L30.28 29.88c-.5.85-1.31 1.475-2.26 1.742a9.42 9.42 0 0 1-2.505.328c-3.675 0-9.021-1.933-16.203-9.118zm.754-.756c8.668 8.673 14.395 9.42 17.674 8.52a2.758 2.758 0 0 0 1.625-1.262l1.624-2.708a.816.816 0 0 0-.247-1.1l-6.473-4.32a.822.822 0 0 0-1.097.179l-1.885 2.424a1.863 1.863 0 0 1-2.394.494l-.35-.192c-1.249-.682-2.802-1.529-5.893-4.622-3.092-3.093-3.939-4.648-4.62-5.898l-.192-.349a1.867 1.867 0 0 1 .494-2.395l2.423-1.887a.82.82 0 0 0 .178-1.099L8.965 4.907 6.62 1.386a.815.815 0 0 0-1.099-.248L2.814 2.762A2.762 2.762 0 0 0 1.553 4.39c-.9 3.282-.155 9.013 8.513 17.686zm7.72-17.323c0-.294.238-.533.532-.533 5.59.007 10.119 4.539 10.125 10.131a.533.533 0 1 1-1.066 0c-.005-5.002-4.058-9.058-9.059-9.065a.532.532 0 0 1-.533-.533zm0 3.2c0-.295.238-.533.532-.533a6.938 6.938 0 0 1 6.928 6.931.533.533 0 1 1-1.066 0 5.872 5.872 0 0 0-5.862-5.866.532.532 0 0 1-.533-.532zm0 3.2c0-.294.238-.534.532-.534a3.736 3.736 0 0 1 3.73 3.732.533.533 0 1 1-1.065 0 2.669 2.669 0 0 0-2.665-2.665.533.533 0 0 1-.533-.533z"/>
</symbol><symbol id="ico-con-ic-2" viewBox="0 0 32 33">
    <path d="M32.088 16.828c0 4.27-1.664 8.286-4.685 11.306a15.891 15.891 0 0 1-11.31 4.684 15.869 15.869 0 0 1-9.226-2.93l-6.05 2.88c-.41.195-.854-.234-.676-.649l2.71-6.323A15.884 15.884 0 0 1 .1 16.828C.1 12.557 1.764 8.54 4.785 5.52A15.89 15.89 0 0 1 16.094.838a15.89 15.89 0 0 1 11.31 4.683 15.883 15.883 0 0 1 4.684 11.307zm-1.002 0c0-8.265-6.725-14.988-14.992-14.988-8.267 0-14.992 6.723-14.992 14.988 0 3.108.943 6.09 2.728 8.623a.5.5 0 0 1 .051.485l-2.297 5.357 5.12-2.437a.505.505 0 0 1 .512.05 14.878 14.878 0 0 0 8.878 2.91c8.267 0 14.992-6.724 14.992-14.988zm-1.67 0c0 7.344-5.976 13.318-13.322 13.318-7.346 0-13.323-5.974-13.323-13.318 0-7.344 5.977-13.32 13.323-13.32 2.342 0 4.646.617 6.662 1.783a.5.5 0 0 1-.502.867 12.318 12.318 0 0 0-6.16-1.648C9.3 4.51 3.773 10.036 3.773 16.828S9.3 29.145 16.093 29.145c6.795 0 12.322-5.525 12.322-12.317 0-3.532-1.52-6.9-4.172-9.239a.5.5 0 1 1 .663-.75 13.33 13.33 0 0 1 4.51 9.989zM19.949 18.5l3.777.755c.201.04.357.199.395.4l.48 2.602a.5.5 0 0 1-.004.202 3.694 3.694 0 0 1-.992 1.795c-.185.185-.39.347-.613.483-.896.548-1.988.623-3.005.463-2.549-.401-6.096-1.65-8.407-3.95l-.031-.032a11.921 11.921 0 0 1-1.76-2.298.5.5 0 1 1 .859-.514c.486.813 1.027 1.52 1.609 2.104l.03.03c2.14 2.132 5.462 3.294 7.856 3.67 1.198.189 2.124-.035 2.753-.664.338-.337.579-.755.7-1.213l-.399-2.162-3.182-.637-1.602 1.602a.5.5 0 0 1-.55.107c-3.14-1.33-4.85-3.037-6.306-6.299a.5.5 0 0 1 .103-.558l1.603-1.603-.637-3.18-2.162-.4a2.694 2.694 0 0 0-1.214.7c-.63.63-.853 1.555-.665 2.753a17.126 17.126 0 0 0 1.16 3.974.5.5 0 1 1-.92.396 18.157 18.157 0 0 1-1.23-4.215c-.237-1.51.09-2.76.946-3.616a3.693 3.693 0 0 1 1.797-.992.499.499 0 0 1 .202-.004l2.602.48a.5.5 0 0 1 .4.394l.755 3.777a.5.5 0 0 1-.137.452l-1.546 1.546c1.273 2.726 2.717 4.173 5.331 5.34l1.551-1.551a.503.503 0 0 1 .453-.137z"/>
</symbol><symbol id="ico-con-ic-3" viewBox="0 0 34 32">
    <path d="M7.829 16.257c-1.107-2.179-1.668-3.984-1.668-5.371a10.813 10.813 0 0 1 .852-4.229c2.33-5.523 8.69-8.112 14.21-5.782a.544.544 0 0 1 .114.933.54.54 0 0 1-.538.066 9.812 9.812 0 0 0-7.593 0 9.788 9.788 0 0 0-5.961 9.012c0 1.214.52 2.855 1.55 4.875a46.555 46.555 0 0 0 3.498 5.642 87.694 87.694 0 0 0 4.294 5.55.547.547 0 0 0 .826 0 87.904 87.904 0 0 0 4.293-5.55 46.556 46.556 0 0 0 3.5-5.642c1.028-2.02 1.55-3.661 1.55-4.875a9.766 9.766 0 0 0-2.858-6.916.543.543 0 0 1 .24-.914c.19-.05.39.007.527.148a10.849 10.849 0 0 1 3.174 7.682c0 1.387-.562 3.192-1.668 5.368a47.773 47.773 0 0 1-3.58 5.777 88.818 88.818 0 0 1-3.93 5.115h2.675a.543.543 0 0 1 0 1.086h-8.672a.542.542 0 0 1 0-1.086h2.674a90.18 90.18 0 0 1-3.93-5.116 47.742 47.742 0 0 1-3.58-5.773zm4.919-6.775a4.342 4.342 0 0 0 2.593 4.857 4.334 4.334 0 0 0 5.264-1.599 4.345 4.345 0 0 0-.54-5.48.542.542 0 1 1 .767-.767 5.43 5.43 0 0 1 .674 6.85 5.416 5.416 0 0 1-6.58 1.997A5.425 5.425 0 0 1 17 4.904a.542.542 0 1 1 0 1.085 4.337 4.337 0 0 0-4.252 3.493zM.962 31.205a1.574 1.574 0 0 1-.017-1.578l3.332-5.969c.302-.53.866-.856 1.476-.851h3.863a.542.542 0 1 1 0 1.084H5.753a.603.603 0 0 0-.529.296l-3.332 5.968a.49.49 0 0 0 .005.502c.11.182.31.292.524.287H31.58a.597.597 0 0 0 .524-.287.49.49 0 0 0 .005-.502l-3.332-5.968a.602.602 0 0 0-.53-.296h-3.862a.542.542 0 0 1 0-1.084h3.863a1.68 1.68 0 0 1 1.474.851l3.333 5.969a1.574 1.574 0 0 1-.017 1.578 1.67 1.67 0 0 1-1.458.824H2.42a1.668 1.668 0 0 1-1.46-.824zm26.877-5.144a.543.543 0 0 1-.542.543h-2.005l-1.488.994a.542.542 0 0 1-.602-.903l1.626-1.085a.546.546 0 0 1 .301-.091h2.168c.3 0 .542.242.542.542zm-3.252 2.713h4.336a.542.542 0 0 1 0 1.085h-4.336a.542.542 0 0 1 0-1.085zm-14.39-1.176l-1.49-.994H6.704a.543.543 0 0 1 0-1.085H8.87a.55.55 0 0 1 .302.091l1.626 1.085a.542.542 0 0 1-.6.903zm-.785 1.176a.542.542 0 0 1 0 1.085H5.077a.542.542 0 0 1 0-1.085z"/>
</symbol><symbol id="ico-con-ic-4" viewBox="0 0 33 32">
    <path d="M32.541 12.12c0 .01.006.02.006.031v18.142a1.586 1.586 0 0 1-.088.505.529.529 0 0 1-.445.819.522.522 0 0 1-.14-.023c-.27.195-.594.3-.927.3H2.145a1.59 1.59 0 0 1-.924-.296.528.528 0 0 1-.586-.8 1.586 1.586 0 0 1-.09-.505V12.15c0-.011.007-.021.007-.032a.503.503 0 0 1 .022-.107.554.554 0 0 1 .03-.093.527.527 0 0 1 .053-.08.504.504 0 0 1 .073-.084c.009-.007.012-.018.021-.025L5.88 7.744v-4.13a1.6 1.6 0 0 1 1.6-1.6h5.78l2.314-1.8a1.582 1.582 0 0 1 1.945 0l2.314 1.798h5.78a1.6 1.6 0 0 1 1.6 1.601v4.13l5.129 3.985c.009.007.012.018.021.025a.506.506 0 0 1 .073.084c.02.025.038.053.053.08.013.03.023.061.03.093a.51.51 0 0 1 .022.109zM15 2.013h3.094l-1.23-.956a.512.512 0 0 0-.637 0zM5.88 13.22V9.095l-3.753 2.917 8.88 6.899a.533.533 0 1 1-.654.843l-8.74-6.79v17.03l13.962-10.849a1.582 1.582 0 0 1 1.944 0l13.963 10.85v-17.03l-8.756 6.8a.534.534 0 0 1-.655-.843l8.896-6.91-3.752-2.917v4.124a.533.533 0 1 1-1.067 0V3.614a.534.534 0 0 0-.533-.534H7.479a.534.534 0 0 0-.534.534v9.605a.533.533 0 1 1-1.066 0zm10.983 6.768a.515.515 0 0 0-.636 0L2.277 30.827h28.538zM10.679 6.282c0-.296.239-.534.533-.534H21.88a.533.533 0 1 1 0 1.067H11.212a.533.533 0 0 1-.533-.533zm0 3.202c0-.296.239-.534.533-.534H21.88a.533.533 0 1 1 0 1.066H11.212a.533.533 0 0 1-.533-.532zm11.734 3.2a.534.534 0 0 1-.533.535h-4.8a.534.534 0 0 1 0-1.068h4.8c.295 0 .533.238.533.534z"/>
</symbol><symbol id="ico-steps-svg-1-3" viewBox="0 0 84 71">
    <path d="M70.795 13.914c6.813.008 12.333 5.533 12.34 12.352v16.47c-.007 6.818-5.527 12.343-12.34 12.351h-1.371v13.725a1.373 1.373 0 0 1-2.34.97L52.401 55.087h-7.66c-6.812-.008-12.332-5.533-12.34-12.352v-1.372h-3.546l-11.94 11.95a1.371 1.371 0 0 1-2.34-.97v-10.98h-1.371C6.392 41.355.872 35.83.864 29.01V12.54C.872 5.724 6.392.199 13.204.19h26.054c6.812.008 12.332 5.533 12.34 12.352v1.372zM32.401 38.618V26.266c.009-6.819 5.529-12.344 12.341-12.352h4.114v-1.372c-.006-5.304-4.3-9.601-9.598-9.607H13.205c-5.299.006-9.593 4.303-9.599 9.607V29.01c.006 5.303 4.3 9.6 9.599 9.607h2.742c.757 0 1.371.614 1.371 1.372v9.04l10-10.01c.258-.257.606-.402.97-.402zm47.993-12.352c-.007-5.304-4.3-9.601-9.599-9.607H44.742c-5.298.006-9.592 4.303-9.598 9.607v16.47c.006 5.303 4.3 9.6 9.598 9.606h8.228c.363 0 .712.145.969.402L66.682 65.5V53.715c0-.758.613-1.373 1.37-1.373h2.743c5.299-.006 9.592-4.303 9.599-9.607zm-6.856-1.373a1.372 1.372 0 0 1 0 2.745H42a1.372 1.372 0 0 1 0-2.745zm0 8.235a1.372 1.372 0 0 1 0 2.745H42a1.372 1.372 0 0 1 0-2.745zm0 8.235a1.372 1.372 0 0 1 0 2.745H42a1.372 1.372 0 0 1 0-2.745zM9.09 13.914a1.372 1.372 0 0 1 0-2.745h28.795a1.372 1.372 0 0 1 0 2.745zm20.568 5.49a1.372 1.372 0 0 1 0 2.745H9.091a1.372 1.372 0 0 1 0-2.745zm-1.371 8.234a1.372 1.372 0 0 1 0 2.745H9.09a1.372 1.372 0 0 1 0-2.745z"/>
</symbol><symbol id="ico-steps-svg-1" viewBox="0 0 71 70">
    <path d="M46.327 27.194c.255.254.401.606.401.968 0 .359-.146.712-.4.967a1.38 1.38 0 0 1-.969.399 1.38 1.38 0 0 1-.968-.4 1.38 1.38 0 0 1-.4-.966c0-.36.146-.714.4-.968.255-.254.608-.4.968-.4s.713.146.968.4zM70.822 4.088v21.337a4.109 4.109 0 0 1-4.107 4.103H51.383a1.368 1.368 0 1 1 0-2.734h13.99l-11.23-13.11-5.794 4.166a1.372 1.372 0 0 1-1.6 0l-5.787-4.173-11.235 13.117h8.787a1.368 1.368 0 0 1 0 2.734h-10.13a4.109 4.109 0 0 1-4.107-4.103V4.088A4.101 4.101 0 0 1 26.164.64a4.09 4.09 0 0 1 2.22-.654h38.331a4.08 4.08 0 0 1 2.394.772 4.101 4.101 0 0 1 1.713 3.331zm-32.087 7.984L27.082 3.669a1.352 1.352 0 0 0-.067.42v21.336c0 .1.011.196.032.291zM64.71 2.72H30.445l17.106 12.333zm-8.336 9.361l11.678 13.634c.02-.095.032-.191.032-.291V4.088c0-.134-.02-.26-.056-.383zm7.056 49.053v.124a1.37 1.37 0 0 1-1.37 1.37h-1.242a1.369 1.369 0 1 1 0-2.736h.668a1.37 1.37 0 0 1 1.943 1.242zm0-6.84v1.368c0 .757-.613 1.368-1.37 1.368a1.368 1.368 0 0 1-1.368-1.368v-1.368a1.368 1.368 0 1 1 2.738 0zm-6.72 6.964c0 .757-.612 1.37-1.368 1.37h-1.37a1.369 1.369 0 1 1 0-2.736h1.37c.756 0 1.369.613 1.369 1.366zm6.72-27.48v1.369a1.368 1.368 0 0 1-2.738 0v-1.369a1.368 1.368 0 0 1 2.738 0zm0 6.84v1.367a1.37 1.37 0 0 1-2.738 0v-1.367a1.37 1.37 0 0 1 2.738 0zm0 6.838v1.367a1.368 1.368 0 0 1-2.738 0v-1.367a1.369 1.369 0 0 1 2.738 0zM8.123 8.74c0-.756.613-1.367 1.37-1.367h1.368a1.367 1.367 0 1 1 0 2.734H9.492A1.368 1.368 0 0 1 8.123 8.74zm6.845 0c0-.756.613-1.367 1.37-1.367h1.368a1.367 1.367 0 1 1 0 2.734h-1.369a1.368 1.368 0 0 1-1.369-1.367zm-6.845 6.838V14.21a1.368 1.368 0 0 1 2.738 0v1.368a1.368 1.368 0 1 1-2.738 0zm0 6.84v-1.369a1.368 1.368 0 0 1 2.738 0v1.369c0 .755-.613 1.366-1.369 1.366a1.367 1.367 0 0 1-1.369-1.366zm7.754 33.007c.255.253.401.607.401.967a1.374 1.374 0 0 1-1.369 1.367 1.39 1.39 0 0 1-.969-.402 1.373 1.373 0 0 1-.4-.965 1.373 1.373 0 0 1 1.37-1.37c.36 0 .713.148.967.403zm27.471 1.445a5.27 5.27 0 0 1 1.555 3.752 5.27 5.27 0 0 1-1.555 3.75l-1.726 1.725a13.357 13.357 0 0 1-9.467 3.912 13.357 13.357 0 0 1-9.467-3.912l-3.545-3.542a1.367 1.367 0 0 1 0-1.934 1.371 1.371 0 0 1 1.936 0l3.545 3.542c3.747 3.744 9.616 4.108 13.777 1.093l-6.47-6.464a1.368 1.368 0 0 1 1.936-1.934l6.565 6.56.98-.98a2.552 2.552 0 0 0 .754-1.816c0-.688-.268-1.332-.753-1.816l-7.214-7.207a2.576 2.576 0 0 0-3.636 0l-.47.47a4.42 4.42 0 0 1-6.24 0l-5.16-5.156a4.37 4.37 0 0 1-1.261-2.607l-6.84-6.833a1.368 1.368 0 1 1 1.937-1.935l5.697 5.691a4.65 4.65 0 0 1 .468-.55l.47-.469a2.57 2.57 0 0 0 0-3.633l-7.213-7.207a2.574 2.574 0 0 0-3.637 0L6.59 31.094c-4.153 4.148-4.153 10.9 0 15.05l4.705 4.7a1.37 1.37 0 0 1-1.936 1.934l-4.705-4.701c-5.22-5.215-5.22-13.701 0-18.918l1.726-1.724a5.317 5.317 0 0 1 7.508 0l7.213 7.207a5.306 5.306 0 0 1 0 7.501l-.47.47a1.66 1.66 0 0 0-.49 1.184c0 .445.174.866.49 1.18l5.16 5.156a1.68 1.68 0 0 0 2.367 0l.47-.469a5.317 5.317 0 0 1 7.508 0z"/>
</symbol><symbol id="ico-steps-svg-2-3" viewBox="0 0 70 70">
    <path d="M68.97 52.356c.566 0 1.025.46 1.025 1.026v12.854a3.763 3.763 0 0 1-3.76 3.76H3.765a3.763 3.763 0 0 1-3.76-3.76V3.764a3.763 3.763 0 0 1 3.76-3.76h13.37a1.025 1.025 0 1 1 0 2.051H3.764a1.71 1.71 0 0 0-1.709 1.709v62.472a1.71 1.71 0 0 0 1.709 1.709h62.472a1.71 1.71 0 0 0 1.709-1.71V53.382c0-.566.458-1.025 1.025-1.025zM66.236.005a3.763 3.763 0 0 1 3.76 3.759v44.898a1.025 1.025 0 1 1-2.051 0V3.764a1.71 1.71 0 0 0-1.71-1.709h-44.38a1.025 1.025 0 0 1 0-2.05zM35 5.875c7.85 0 15.23 3.057 20.78 8.607 5.55 5.55 8.607 12.93 8.607 20.78a29.335 29.335 0 0 1-7.494 19.602 1.025 1.025 0 1 1-1.527-1.368 27.287 27.287 0 0 0 6.97-18.233C62.337 20.189 50.075 7.926 35 7.926c-15.074 0-27.337 12.263-27.337 27.337 0 15.073 12.263 27.336 27.337 27.336 6.27 0 12.17-2.066 17.059-5.977a1.026 1.026 0 0 1 1.28 1.602C48.084 62.428 41.742 64.65 35 64.65c-7.849 0-15.228-3.057-20.78-8.607-5.55-5.551-8.606-12.93-8.606-20.78 0-7.85 3.056-15.23 8.607-20.78C19.77 8.931 27.15 5.874 35 5.874zm0 3.893c14.058 0 25.495 11.437 25.495 25.495 0 14.057-11.437 25.494-25.495 25.494-14.058 0-25.495-11.437-25.495-25.494C9.505 21.205 20.942 9.768 35 9.768zm0 48.939c12.927 0 23.444-10.518 23.444-23.444 0-12.928-10.517-23.444-23.444-23.444S11.556 22.335 11.556 35.263c0 12.926 10.517 23.444 23.444 23.444zm19.043-26.36a4.002 4.002 0 0 1 1.267 2.916 4.001 4.001 0 0 1-1.267 2.916 4.003 4.003 0 0 1-2.997 1.06l-11.677-.815a5.6 5.6 0 0 1-1.213 1.144l.82 11.74a3.999 3.999 0 0 1-1.06 2.998A4 4 0 0 1 35 55.573a20.287 20.287 0 0 1-13.413-5.059 1.026 1.026 0 0 1 1.355-1.539 18.229 18.229 0 0 0 8.394 4.176 3.994 3.994 0 0 1-.313-1.842l.17-2.442a14.281 14.281 0 0 1-3.495-1.481 1.025 1.025 0 1 1 1.043-1.765c.82.485 1.693.87 2.6 1.152l.503-7.206a5.61 5.61 0 0 1-1.214-1.144l-11.676.817a4.003 4.003 0 0 1-2.997-1.062 4 4 0 0 1-1.268-2.915 4 4 0 0 1 1.268-2.916 4.005 4.005 0 0 1 2.997-1.062l11.326.792a5.602 5.602 0 0 1 1.529-1.62l-.786-11.24a4 4 0 0 1 1.061-2.997A4.002 4.002 0 0 1 35 14.952 20.178 20.178 0 0 1 49.361 20.9a1.025 1.025 0 0 1-1.45 1.45 18.13 18.13 0 0 0-9.249-4.983c.247.578.36 1.212.315 1.848l-.135 1.929c1.227.34 2.402.84 3.5 1.492a1.026 1.026 0 0 1-1.048 1.763 12.258 12.258 0 0 0-2.598-1.162l-.505 7.22a5.599 5.599 0 0 1 1.53 1.62l11.325-.793a4 4 0 0 1 2.997 1.062zM31.496 35A3.508 3.508 0 0 0 35 38.504 3.508 3.508 0 0 0 38.504 35 3.508 3.508 0 0 0 35 31.496 3.508 3.508 0 0 0 31.496 35zm2.307-5.423a5.564 5.564 0 0 1 2.394 0l.734-10.503a1.919 1.919 0 0 0-.516-1.456A1.917 1.917 0 0 0 35 17.002c-.543 0-1.045.22-1.416.616-.37.397-.553.914-.515 1.456zm-4.167 6.86a5.525 5.525 0 0 1-.113-2.357l-10.712-.749a1.918 1.918 0 0 0-1.455.515c-.397.37-.616.873-.616 1.417 0 .542.219 1.045.616 1.415.397.37.913.554 1.455.516zm6.525 3.994a5.53 5.53 0 0 1-2.322 0l-.77 11.02a1.917 1.917 0 0 0 .515 1.456c.37.397.873.615 1.416.615.542 0 1.045-.218 1.415-.615.371-.397.554-.914.516-1.456zm16.483-3.753c.397-.37.616-.873.616-1.415 0-.544-.219-1.046-.616-1.417a1.916 1.916 0 0 0-1.455-.515l-10.713.75a5.536 5.536 0 0 1-.112 2.356l10.825.757a1.92 1.92 0 0 0 1.455-.516zM65.363 8.791a4.048 4.048 0 0 1-4.044 4.043 4.048 4.048 0 0 1-4.043-4.043 4.048 4.048 0 0 1 4.043-4.044 4.048 4.048 0 0 1 4.044 4.044zm-6.037 0c0 1.099.894 1.993 1.993 1.993 1.1 0 1.993-.894 1.993-1.993 0-1.1-.894-1.993-1.993-1.993a1.995 1.995 0 0 0-1.993 1.993zm2.005 1.025h-.006a1.03 1.03 0 0 1-1.03-1.02 1.019 1.019 0 0 1 1.013-1.03h.018a1.025 1.025 0 0 1 .005 2.05zM8.68 12.834a4.048 4.048 0 0 1-4.044-4.043A4.048 4.048 0 0 1 8.68 4.747a4.049 4.049 0 0 1 4.043 4.044 4.048 4.048 0 0 1-4.043 4.043zm0-6.036c-1.1 0-1.993.894-1.993 1.993 0 1.099.893 1.993 1.993 1.993a1.995 1.995 0 0 0 1.993-1.993A1.995 1.995 0 0 0 8.68 6.798zm.006 3.018a1.03 1.03 0 0 1-1.031-1.02 1.019 1.019 0 0 1 1.013-1.03h.018a1.025 1.025 0 0 1 .005 2.05zM61.319 57.69a4.048 4.048 0 0 1 4.044 4.044 4.048 4.048 0 0 1-4.044 4.044 4.048 4.048 0 0 1-4.043-4.044 4.048 4.048 0 0 1 4.043-4.044zm0 6.037c1.1 0 1.993-.894 1.993-1.993a1.995 1.995 0 0 0-1.993-1.993 1.995 1.995 0 0 0-1.993 1.993c0 1.1.894 1.993 1.993 1.993zm.007-3.018a1.025 1.025 0 0 1 .005 2.05h-.006a1.03 1.03 0 0 1-1.03-1.02 1.019 1.019 0 0 1 1.013-1.03h.018zM4.637 61.734a4.048 4.048 0 0 1 4.044-4.044 4.048 4.048 0 0 1 4.043 4.044 4.048 4.048 0 0 1-4.043 4.044 4.048 4.048 0 0 1-4.044-4.044zm6.037 0a1.995 1.995 0 0 0-1.993-1.993 1.994 1.994 0 0 0 0 3.986 1.995 1.995 0 0 0 1.993-1.993zm-3.018.005a1.02 1.02 0 0 1 1.013-1.03h.018a1.025 1.025 0 0 1 .005 2.05h-.005a1.03 1.03 0 0 1-1.031-1.02z"/>
</symbol><symbol id="ico-steps-svg-2" viewBox="0 0 90 71">
    <path d="M41.719 52.502a22.329 22.329 0 0 1-7.448-24.884 22.345 22.345 0 0 1 21.143-15.102 22.348 22.348 0 0 1 21.143 15.102 22.33 22.33 0 0 1-7.449 24.884l.504 2.407a2.977 2.977 0 0 1-2.857 3.824H44.071a2.976 2.976 0 0 1-2.856-3.824zM65.842 33.42a1.49 1.49 0 0 0-1.49-1.488H46.476a1.49 1.49 0 0 0-1.49 1.488V49.8h20.857zm.913 22.335a1.571 1.571 0 0 1-.045-.166l-.588-2.811H44.705l-.587 2.81a1.474 1.474 0 0 1-.047.168zM55.414 15.549a19.34 19.34 0 0 0-17.969 12.11 19.319 19.319 0 0 0 4.56 21.174V33.419a4.473 4.473 0 0 1 4.47-4.468h17.878a4.473 4.473 0 0 1 4.47 4.468v15.414a19.32 19.32 0 0 0 4.559-21.175A19.34 19.34 0 0 0 55.414 15.55zM1.779 70.647a1.49 1.49 0 0 1-1.49-1.491V58.733a4.472 4.472 0 0 1 4.47-4.466h16.388V35.64a35.207 35.207 0 0 1 3.232-14.754 9.266 9.266 0 0 1 .184-13.833C29.02 2.596 37.545.269 41.281 3.804A33.29 33.29 0 0 1 54.907.662a34.267 34.267 0 0 1 24.562 9.845 34.218 34.218 0 0 1 10.21 24.4v22.338c-.007 6.575-5.338 11.904-11.918 11.91h-5.31a9.043 9.043 0 0 1-3.546-.738 39.703 39.703 0 0 0-14.237-2.24 39.712 39.712 0 0 0-14.237 2.24 9.036 9.036 0 0 1-3.546.739h-3.819a11.896 11.896 0 0 1-9.29-4.467H3.27v4.467a1.49 1.49 0 0 1-1.49 1.49zM26.67 9.157a6.308 6.308 0 0 0-.823 8.89A35.102 35.102 0 0 1 38.295 5.385a8.017 8.017 0 0 0-4.54-.043 15.191 15.191 0 0 0-7.085 3.815zm28.28-5.516C37.955 3.885 24.127 18.24 24.127 35.64v8.202h4.47a1.49 1.49 0 1 1 0 2.978h-4.47v2.978h4.47a1.49 1.49 0 1 1 0 2.979h-4.47v4.468c.005 4.931 4.004 8.928 8.939 8.933h3.82a6.105 6.105 0 0 0 2.385-.503A42.074 42.074 0 0 1 54.668 63.2a42.074 42.074 0 0 1 15.398 2.476 6.112 6.112 0 0 0 2.386.503h5.31c4.934-.005 8.933-4.002 8.938-8.933v-4.468h-4.47a1.49 1.49 0 0 1 0-2.978h4.47v-2.98h-4.47a1.49 1.49 0 1 1 0-2.978h4.47v-8.935a31.247 31.247 0 0 0-9.322-22.28A31.277 31.277 0 0 0 54.95 3.641zM4.76 57.245a1.49 1.49 0 0 0-1.491 1.488v2.978h18.756a11.832 11.832 0 0 1-.878-4.466zm26.816 4.466a1.489 1.489 0 1 1 0-2.978 1.489 1.489 0 0 1 0 2.978zm47.675 0a1.49 1.49 0 1 1-.001-2.979 1.49 1.49 0 0 1 0 2.979zM55.414 34.907a4.474 4.474 0 0 1 4.469 4.47 4.468 4.468 0 0 1-4.47 4.465 4.468 4.468 0 1 1 0-8.935zm0 5.957a1.49 1.49 0 1 0 0-2.979 1.49 1.49 0 0 0 0 2.98z"/>
</symbol><symbol id="ico-steps-svg-3-2" viewBox="0 0 80 71">
    <path d="M76.848 20.424a2.707 2.707 0 0 1 2.704 2.705v44.66a2.708 2.708 0 0 1-2.704 2.705h-8.43a1.16 1.16 0 0 1 0-2.318h8.43a.387.387 0 0 0 .386-.387V23.13a.387.387 0 0 0-.386-.387h-14.46L51.895 34.43a2.286 2.286 0 0 1-1.713.764c-.03 0-.058-.003-.087-.004l-4.591 2.283a1.833 1.833 0 0 1-2.052-.28 1.834 1.834 0 0 1-.498-2.011l1.777-4.806a2.286 2.286 0 0 1 .564-1.875l5.17-5.758h-20.05a1.159 1.159 0 0 1 0-2.318h22.131L65.262 6.262a2.3 2.3 0 0 1 3.247-.174l3.179 2.856c.456.41.726.974.76 1.588a2.288 2.288 0 0 1-.587 1.66l-7.39 8.232zm-9.874-12.6l-1.377 1.534 3.152 2.831 1.377-1.532zM47.03 30.035l.714.643 17.019-18.954-.714-.64zm-1.488 4.83l2.185-1.087-1.339-1.203zM67.2 13.914l-.713-.641-17.02 18.953.715.64zm-3.828 54.262a1.158 1.158 0 1 1 0 2.318H11.255c-5.959 0-10.807-4.85-10.807-10.81V11.316C.448 5.355 5.296.506 11.254.506h2.381A2.707 2.707 0 0 1 16.34 3.21v8.141a1.158 1.158 0 1 1-2.317 0v-8.14a.387.387 0 0 0-.387-.387h-2.38c-4.681 0-8.49 3.81-8.49 8.492v41.073a10.791 10.791 0 0 1 8.489-4.128h2.381a.387.387 0 0 0 .387-.387V16.4a1.16 1.16 0 0 1 2.317 0v4.025h9.028a1.158 1.158 0 1 1 0 2.318H16.34v25.132a2.707 2.707 0 0 1-2.704 2.705h-2.381c-4.68 0-8.489 3.81-8.489 8.492v.613c0 4.682 3.809 8.492 8.49 8.492zm-1.094-35.514c4.913 0 8.91 3.998 8.91 8.913 0 4.858-3.906 8.819-8.742 8.91v4.955c0 .64-.518 1.16-1.158 1.16H48.05a1.16 1.16 0 0 1-1.158-1.16V42.199c0-.64.519-1.16 1.158-1.16h5.335c.278-4.666 4.159-8.377 8.892-8.377zM60.13 43.358h-4.197a6.62 6.62 0 0 0 4.197 4.45zm0 10.923v-4.056a8.94 8.94 0 0 1-6.582-6.867H49.21v10.923zm2.317-6.115a6.601 6.601 0 0 0 6.424-6.59 6.601 6.601 0 0 0-6.592-6.596c-3.455 0-6.296 2.673-6.57 6.06h5.58c.64 0 1.158.519 1.158 1.159zm6.714 3.123a1.158 1.158 0 1 1 0 2.318h-2.578a1.159 1.159 0 1 1 0-2.318zm1.158 4.151c0 .64-.518 1.16-1.158 1.16h-2.578a1.158 1.158 0 1 1 0-2.32h2.578c.64 0 1.158.52 1.158 1.16zM21.614 32.2a1.159 1.159 0 0 1 0-2.319h1.854a1.16 1.16 0 0 1 0 2.319zm0 3.377a1.16 1.16 0 0 1 0-2.318h8.945a1.159 1.159 0 1 1 0 2.318zm7.091-3.377a1.159 1.159 0 0 1 0-2.319h1.854a1.159 1.159 0 0 1 0 2.319zm8.945-2.319a1.159 1.159 0 0 1 0 2.319h-1.854a1.159 1.159 0 0 1 0-2.319zM21.614 38.93a1.16 1.16 0 0 1 0-2.318h8.945a1.159 1.159 0 1 1 0 2.318zm-1.158 2.192c0-.64.519-1.159 1.159-1.159h14.18a1.159 1.159 0 0 1 0 2.318h-14.18a1.16 1.16 0 0 1-1.16-1.159zm18.353 3.352c0 .64-.519 1.16-1.16 1.16H21.615a1.159 1.159 0 0 1 0-2.319H37.65c.64 0 1.159.52 1.159 1.16zm-12.843 8.594c0 .64-.519 1.16-1.158 1.16h-3.194a1.16 1.16 0 0 1-1.158-1.16v-3.194c0-.64.519-1.159 1.158-1.159h3.194c.64 0 1.158.519 1.158 1.16zm-2.317-2.034h-.876v.876h.876zm9.978 2.034c0 .64-.519 1.16-1.158 1.16h-3.193c-.64 0-1.16-.52-1.16-1.16v-3.194c0-.64.52-1.159 1.16-1.159h3.193c.64 0 1.158.519 1.158 1.16zm-2.317-2.034h-.876v.876h.876zm9.98 2.034c0 .64-.52 1.16-1.16 1.16h-3.193a1.16 1.16 0 0 1-1.159-1.16v-3.194c0-.64.519-1.159 1.16-1.159h3.192c.64 0 1.16.519 1.16 1.16zm-2.318-2.034h-.876v.876h.876zm-14.164 5.822c.64 0 1.158.518 1.158 1.159v3.193a1.16 1.16 0 0 1-1.158 1.16h-3.194c-.64 0-1.158-.519-1.158-1.16v-3.193c0-.64.519-1.16 1.158-1.16zm-1.16 2.317h-.875v.876h.876zm8.82-2.317c.64 0 1.16.518 1.16 1.159v3.193c0 .641-.52 1.16-1.16 1.16h-3.192a1.16 1.16 0 0 1-1.16-1.16v-3.193c0-.64.52-1.16 1.16-1.16zm-1.158 2.317h-.876v.876h.876zm5.627 3.195a1.16 1.16 0 0 1-1.159-1.16v-3.194c0-.64.519-1.16 1.16-1.16h3.192c.64 0 1.16.52 1.16 1.16v3.194c0 .641-.52 1.16-1.16 1.16zm1.159-2.319h.876v-.875h-.876z"/>
</symbol><symbol id="ico-steps-svg-3-3" viewBox="0 0 70 70">
    <path d="M69.96 16.617a3.5 3.5 0 0 1-.35 2.707l-.583 1.015a1.17 1.17 0 0 1 .42 1.588l-2.919 5.052 1.016.584a3.501 3.501 0 0 1 1.284 4.785l-4.669 8.087a1.17 1.17 0 0 1-1.6.432 1.167 1.167 0 0 1-.373-1.645l4.67-8.088a1.166 1.166 0 0 0-.432-1.599l-1.016-.583-10.028 17.4-4.447 5.403-1.167 1.949a3.502 3.502 0 0 1-3.047 1.728 3.6 3.6 0 0 1-.922-.117l-2.72 3.442a2.336 2.336 0 0 1-3.992-.595l-.724-1.832-.432.712a2.335 2.335 0 0 1-4.33-1.004l-.41-4.738-2.86 8.613c-.16.475-.607.794-1.109.793a1.014 1.014 0 0 1-.362-.093 1.167 1.167 0 0 1-.734-1.47l2.871-8.613a2.335 2.335 0 0 1 4.54.548l.398 4.668.42-.712a2.335 2.335 0 0 1 4.168.328l.735 1.843 2.626-3.221a3.5 3.5 0 0 1-.187-3.781l1.168-2.182 2.451-6.547 9.923-17.19-1.016-.584a1.167 1.167 0 1 1 1.167-2.019l1.016.584 2.965-5.053a1.168 1.168 0 0 1 1.587-.42l.584-1.016a3.504 3.504 0 0 1 4.786-1.283 3.501 3.501 0 0 1 1.634 2.124zm-4.984 1.342l2.031 1.167.584-1.016c.15-.27.19-.587.117-.886a1.166 1.166 0 0 0-.55-.712 1.225 1.225 0 0 0-.886-.116c-.302.08-.558.277-.713.547zM52.672 45.874l-3.677-2.125-1.657 4.435 1.727 1.004.584.339zm-6.525 7.025a1.169 1.169 0 0 0 1.681-.373l.584-1.004-2.031-1.167-.584 1.015a1.166 1.166 0 0 0 .35 1.529zm17.195-25.114l-4.04-2.334-9.338 16.175 4.039 2.334zm3.502-6.057l-4.04-2.334-2.334 4.038 4.04 2.334zM18.457 52.315a1.168 1.168 0 0 1 1.647 1.646l-4.12 4.131a2.341 2.341 0 0 1-1.658.677 2.334 2.334 0 0 1-1.647-.677l-2.474-2.474a1.166 1.166 0 0 1 0-1.657 1.167 1.167 0 0 1 1.646 0l2.475 2.474zm-13.75 3.14a9.919 9.919 0 0 1 5.485-8.873 9.926 9.926 0 0 1 10.39.937 1.167 1.167 0 1 1-1.4 1.868 7.521 7.521 0 0 0-4.553-1.518 7.587 7.587 0 1 0 0 15.171 7.587 7.587 0 0 0 7.587-7.585 1.167 1.167 0 0 1 2.336 0c0 5.478-4.443 9.919-9.923 9.919s-9.922-4.441-9.922-9.92zm8.17-46.097v2.334h29.184a1.167 1.167 0 1 1 0 2.334h-30.35a1.167 1.167 0 0 1-1.168-1.167V8.191c0-.645.523-1.167 1.168-1.167h30.35a1.167 1.167 0 1 1 0 2.334zM38.56 16.36a1.167 1.167 0 1 1 0 2.334H15.212a1.167 1.167 0 0 1 0-2.334zm7.004 8.169a1.167 1.167 0 1 1 0 2.334H19.882a1.167 1.167 0 1 1 0-2.334zM33.89 32.698c0 .645-.523 1.167-1.168 1.167H9.376a1.166 1.166 0 1 1 0-2.334h23.346c.645 0 1.168.522 1.168 1.167zm11.673-1.167a1.167 1.167 0 1 1 0 2.334h-8.171a1.167 1.167 0 1 1 0-2.334zM9.376 39.7a1.166 1.166 0 1 1 0-2.334H21.05a1.167 1.167 0 0 1 0 2.334zm16.342 0a1.167 1.167 0 1 1 0-2.334h8.172a1.168 1.168 0 0 1 0 2.334zm26.85 14.004c.644 0 1.167.522 1.167 1.167v11.67a3.502 3.502 0 0 1-3.502 3.501H3.539a3.502 3.502 0 0 1-3.502-3.5V3.521c0-1.933 1.569-3.5 3.502-3.5h46.694a3.502 3.502 0 0 1 3.502 3.5V25.44a1.167 1.167 0 0 1-2.335 0V3.523c0-.644-.523-1.167-1.167-1.167H3.539c-.645 0-1.167.523-1.167 1.167V66.54c0 .645.522 1.167 1.167 1.167h46.694c.644 0 1.167-.522 1.167-1.167V54.87c0-.645.522-1.167 1.167-1.167z"/>
</symbol><symbol id="ico-steps-svg-3" viewBox="0 0 71 71">
    <path d="M52.37 34.719c.377.55.598 1.218.598 1.933 0 1.24-.66 2.327-1.647 2.932a3.43 3.43 0 0 1-1.169 4.674c.304.512.478 1.11.478 1.747a3.438 3.438 0 0 1-3.434 3.433H29.297a2.27 2.27 0 0 1-1.98 1.171h-7.014a2.269 2.269 0 0 1-2.265-2.266V29.638a2.27 2.27 0 0 1 2.265-2.265h7.014c.381 0 .74.097 1.056.263a14.41 14.41 0 0 0 1.51-1.392c.662-.703 1.415-1.197 2.24-1.463 2.102-.684 3.526-1.761 4.35-2.546 1.007-.958 1.419-1.763 1.458-1.998a3.967 3.967 0 0 1 1.183-2.82 3.995 3.995 0 0 1 2.833-1.164h.039a3.846 3.846 0 0 1 2.873 1.32c.817.918 1.206 2.169 1.067 3.428-.226 2.06-1.399 4.355-3.193 6.372h7.385a4.023 4.023 0 0 1 4.019 4.018 4.016 4.016 0 0 1-1.767 3.328zm-.425-3.328a1.83 1.83 0 0 0-1.827-1.826H40a1.097 1.097 0 0 1-.689-1.947c2.456-1.989 4.197-4.68 4.437-6.858.07-.633-.128-1.282-.528-1.732a1.67 1.67 0 0 0-1.254-.584 1.84 1.84 0 0 0-1.31.53 1.792 1.792 0 0 0-.533 1.282c0 .922-.75 2.205-2.006 3.439-1.002.985-2.738 2.33-5.318 3.171-.468.15-.912.447-1.318.878-.428.459-1.086 1.1-1.907 1.737.003.052.008.104.008.157v2.34a1.095 1.095 0 0 1-2.192 0v-2.34a.073.073 0 0 0-.073-.073h-7.014a.073.073 0 0 0-.073.073v18.704c0 .04.032.074.073.074h7.014c.04 0 .073-.034.073-.074v-11.69a1.096 1.096 0 0 1 2.192 0v10.594h17.614a1.243 1.243 0 0 0 0-2.484 1.096 1.096 0 1 1 0-2.191h1.169a1.243 1.243 0 0 0 0-2.484 1.096 1.096 0 1 1 0-2.192h1.169a1.244 1.244 0 0 0 0-2.485 1.096 1.096 0 1 1 0-2.192h.584a1.828 1.828 0 0 0 1.827-1.827zm-27.033 13.44c0 .604-.497 1.1-1.102 1.1a1.106 1.106 0 0 1-1.102-1.1c0-.608.496-1.103 1.102-1.103.605 0 1.102.495 1.102 1.102zm45.514-4.365c.137.362.073.77-.17 1.072l-3.33 4.155.251 5.322c.019.385-.169.753-.493.967l-4.451 2.923-1.405 5.139a1.095 1.095 0 0 1-.768.767l-5.137 1.406-2.924 4.45a1.09 1.09 0 0 1-.968.494l-5.32-.252-4.157 3.33a1.094 1.094 0 0 1-1.072.17L35.5 68.527l-4.982 1.884c-.363.136-.77.073-1.073-.171l-4.156-3.33-5.32.252a1.092 1.092 0 0 1-.968-.494l-2.924-4.45-5.137-1.406a1.096 1.096 0 0 1-.768-.767l-1.405-5.14-4.452-2.922a1.098 1.098 0 0 1-.493-.967l.251-5.322-3.33-4.155a1.095 1.095 0 0 1-.17-1.072l1.883-4.984-1.883-4.98a1.097 1.097 0 0 1 .17-1.074l3.33-4.155-.25-5.32a1.091 1.091 0 0 1 .492-.967l4.452-2.926 1.405-5.136c.102-.373.394-.666.768-.768l5.137-1.406L19 4.3c.213-.326.579-.514.968-.496l5.32.253L29.445.728a1.09 1.09 0 0 1 1.073-.17L35.5 2.44 40.482.557c.362-.138.77-.072 1.072.17l4.157 3.33 5.32-.253a1.1 1.1 0 0 1 .967.496l2.925 4.45 5.137 1.406c.373.101.665.394.768.768l1.405 5.136 4.451 2.926c.324.212.512.58.493.967l-.25 5.32 3.33 4.155a1.1 1.1 0 0 1 .17 1.073l-1.883 4.981zm-4.079-5.371l1.808-4.783-3.198-3.992a1.098 1.098 0 0 1-.24-.738l.242-5.11-4.276-2.806a1.092 1.092 0 0 1-.455-.629l-1.35-4.932-4.933-1.349a1.101 1.101 0 0 1-.627-.456L50.51 6.025l-5.11.241a1.091 1.091 0 0 1-.736-.239l-3.992-3.199-4.785 1.808c-.25.095-.525.095-.774 0l-4.785-1.808-3.992 3.2c-.208.166-.47.25-.737.238l-5.109-.241-2.808 4.275c-.147.223-.37.385-.627.456l-4.933 1.349-1.35 4.932c-.07.26-.232.483-.455.629l-4.275 2.807.24 5.109c.013.267-.072.53-.239.738l-3.198 3.992 1.808 4.783c.095.25.095.526 0 .776l-1.808 4.784 3.198 3.992c.167.208.252.472.24.737l-.241 5.11 4.275 2.807c.223.146.385.37.455.627l1.35 4.934 4.933 1.35c.258.07.48.232.627.455l2.808 4.274 5.11-.24c.266-.012.528.072.736.24l3.992 3.197 4.785-1.808a1.094 1.094 0 0 1 .774 0l4.785 1.808 3.992-3.197c.208-.168.47-.252.737-.24l5.109.24 2.808-4.274a1.1 1.1 0 0 1 .627-.456l4.933-1.349 1.35-4.934c.07-.258.232-.48.455-.627l4.275-2.808-.24-5.109a1.099 1.099 0 0 1 .239-.737l3.198-3.992-1.808-4.784a1.098 1.098 0 0 1 0-.776zM52.892 16.456a1.096 1.096 0 0 1 1.482-1.616 28.599 28.599 0 0 1 1.719 1.72 1.097 1.097 0 0 1-1.615 1.482 26.717 26.717 0 0 0-1.586-1.586zM9.694 34.419a25.702 25.702 0 0 0 6.015 17.633 1.094 1.094 0 0 1-.838 1.801c-.313 0-.623-.132-.84-.392A27.88 27.88 0 0 1 7.505 34.33a27.9 27.9 0 0 1 8.173-18.648 28.033 28.033 0 0 1 16.888-8.046c6.269-.65 12.632.847 17.917 4.214a1.095 1.095 0 1 1-1.178 1.85c-4.87-3.105-10.734-4.484-16.513-3.883a25.832 25.832 0 0 0-15.564 7.415 25.709 25.709 0 0 0-7.533 17.187zm49.39-13.967c3.367 5.284 4.863 11.647 4.214 17.915a28.037 28.037 0 0 1-8.046 16.888 27.905 27.905 0 0 1-19.795 8.197A27.86 27.86 0 0 1 17.47 56.9a1.093 1.093 0 0 1-.133-1.542 1.096 1.096 0 0 1 1.544-.133 25.705 25.705 0 0 0 17.633 6.014 25.722 25.722 0 0 0 17.187-7.533 25.846 25.846 0 0 0 7.416-15.563c.598-5.78-.78-11.643-3.883-16.515a1.096 1.096 0 1 1 1.849-1.176z"/>
</symbol><symbol id="ico-steps-svg-4" viewBox="0 0 70 70">
    <path d="M69.96 16.617a3.5 3.5 0 0 1-.35 2.708l-.583 1.015c.55.325.738 1.032.42 1.587l-2.918 5.053 1.015.584a3.501 3.501 0 0 1 1.284 4.785l-4.669 8.087a1.17 1.17 0 0 1-1.6.431 1.167 1.167 0 0 1-.373-1.645l4.67-8.087a1.166 1.166 0 0 0-.432-1.6l-1.016-.583-10.027 17.4-4.448 5.403-1.167 1.95a3.502 3.502 0 0 1-3.047 1.727 3.6 3.6 0 0 1-.922-.117l-2.72 3.443a2.336 2.336 0 0 1-3.992-.596l-.724-1.832-.432.712a2.335 2.335 0 0 1-4.33-1.003l-.41-4.738-2.86 8.612c-.16.475-.607.795-1.108.793a1.014 1.014 0 0 1-.363-.093 1.167 1.167 0 0 1-.734-1.47l2.871-8.613a2.335 2.335 0 0 1 4.54.549l.398 4.668.42-.712a2.335 2.335 0 0 1 4.168.327l.735 1.843 2.627-3.22a3.5 3.5 0 0 1-.188-3.782l1.168-2.182 2.451-6.547 9.923-17.19-1.016-.584a1.167 1.167 0 1 1 1.167-2.018l1.016.583 2.965-5.053a1.168 1.168 0 0 1 1.587-.42l.584-1.015a3.504 3.504 0 0 1 4.786-1.283 3.501 3.501 0 0 1 1.634 2.123zm-4.984 1.342l2.031 1.167.584-1.015c.15-.27.191-.587.117-.887a1.166 1.166 0 0 0-.549-.711 1.223 1.223 0 0 0-.887-.117c-.302.08-.558.277-.713.548zM52.672 45.874l-3.677-2.124-1.657 4.434 1.727 1.005.584.338zm-6.525 7.025a1.169 1.169 0 0 0 1.681-.373l.584-1.004-2.031-1.167-.584 1.015a1.166 1.166 0 0 0 .35 1.53zm17.195-25.114l-4.04-2.334-9.338 16.175 4.04 2.334zm3.502-6.056l-4.04-2.334-2.334 4.037 4.04 2.334zM18.457 52.316a1.168 1.168 0 0 1 1.647 1.645l-4.12 4.131a2.337 2.337 0 0 1-1.658.677 2.334 2.334 0 0 1-1.646-.677l-2.475-2.473a1.166 1.166 0 0 1 0-1.658 1.167 1.167 0 0 1 1.646 0l2.475 2.475zm-13.75 3.139a9.919 9.919 0 0 1 5.485-8.872 9.926 9.926 0 0 1 10.39.936 1.167 1.167 0 1 1-1.4 1.868 7.521 7.521 0 0 0-4.553-1.518 7.587 7.587 0 1 0 0 15.172 7.587 7.587 0 0 0 7.588-7.586 1.167 1.167 0 0 1 2.335 0c0 5.478-4.443 9.92-9.923 9.92s-9.922-4.442-9.922-9.92zm8.17-46.097v2.334h29.184a1.167 1.167 0 1 1 0 2.334h-30.35a1.167 1.167 0 0 1-1.168-1.167V8.191c0-.644.523-1.167 1.168-1.167h30.35a1.167 1.167 0 1 1 0 2.334zM38.56 16.36a1.167 1.167 0 1 1 0 2.334H15.212a1.167 1.167 0 0 1 0-2.334zm7.004 8.17a1.167 1.167 0 1 1 0 2.333h-25.68a1.167 1.167 0 1 1 0-2.334zM33.89 32.697c0 .645-.523 1.167-1.167 1.167H9.376a1.166 1.166 0 1 1 0-2.334h23.347c.644 0 1.167.523 1.167 1.167zm11.673-1.167a1.167 1.167 0 1 1 0 2.334h-8.17a1.167 1.167 0 1 1 0-2.334zM9.376 39.7a1.166 1.166 0 1 1 0-2.335H21.05a1.167 1.167 0 0 1 0 2.334zm16.343 0a1.167 1.167 0 1 1 0-2.335h8.171a1.168 1.168 0 0 1 0 2.334zm26.848 14.003c.645 0 1.168.523 1.168 1.167v11.67a3.502 3.502 0 0 1-3.502 3.502H3.539A3.502 3.502 0 0 1 .037 66.54V3.523A3.503 3.503 0 0 1 3.54.022h46.694a3.502 3.502 0 0 1 3.502 3.5V25.44a1.167 1.167 0 0 1-2.335 0V3.523c0-.644-.523-1.167-1.167-1.167H3.539c-.644 0-1.167.523-1.167 1.167V66.54c0 .645.523 1.167 1.167 1.167h46.694c.644 0 1.167-.522 1.167-1.167V54.87c0-.644.522-1.167 1.167-1.167z"/>
</symbol><symbol id="ico-wwd-ic-1" viewBox="0 0 61 61">
    <path d="M52.416 44.175a8.01 8.01 0 0 1 6.992 3.9 7.999 7.999 0 0 1 .116 8.003 8.008 8.008 0 0 1-6.875 4.102H8.61a8 8 0 0 1-7.99-7.791 8 8 0 0 1 7.58-8.193L.811 26.383a2.006 2.006 0 0 1 1.084-2.614l8.326-3.445a2.023 2.023 0 0 1 2.612 1.07l5.447 13.148c.758-.195 1.533-.31 2.315-.344l-4.953-21.124v-.045a1.06 1.06 0 0 1-.025-.223l.376-10.398a2.31 2.31 0 0 1 4.342-1.016l4.958 9.151c.03.061.054.127.07.193.006.02.027.034.027.055l4.854 20.747a13.638 13.638 0 0 1 2.492-1.736 50.019 50.019 0 0 1 .174-7.094c.13-1.425.32-2.889.563-4.434a7.775 7.775 0 0 1-1.425-2.3 5.852 5.852 0 0 1 1.372-6.38c3.807-4.199 4.254-6.24 3.738-8.175A1 1 0 0 1 38.745.376c.225.177 5.496 4.388 6.122 10.217a10.913 10.913 0 0 1-2.484 8.014 54.038 54.038 0 0 1-.519 9.837c1.247.259 2.45.692 3.575 1.29L47.73 24.2v-.012a18.756 18.756 0 0 0 1.683-6.235 1.49 1.49 0 0 1 .706-1.23l7.067-4.408h.01c.015-.01.033-.013.048-.02a.999.999 0 0 1 .552-.123c.023.002.043.016.066.016.08.01.158.03.234.058a.996.996 0 0 1 .155.094 1 1 0 0 1 .11.065c.052.05.1.106.14.166.02.026.055.06.063.074.008.014.011.031.02.046a.978.978 0 0 1 .1.243l1.879 8.112a1.491 1.491 0 0 1-.37 1.366 18.772 18.772 0 0 0-3.217 5.583.18.18 0 0 1 0 .022l-4.584 11.056a13.43 13.43 0 0 1 .024 5.102zm-1.02-25.891a19.76 19.76 0 0 1-1.34 5.44 4.114 4.114 0 0 0 5.595 2.312 19.781 19.781 0 0 1 2.902-4.789l-1.112-4.814-1.485 3.585a1 1 0 0 1-1.85-.766l1.486-3.585zm-4.242 12.54a13.572 13.572 0 0 1 4.297 5.31l3.194-7.703a5.523 5.523 0 0 1-.607.038 6.366 6.366 0 0 1-2.449-.517 6.1 6.1 0 0 1-2.495-1.815zM35.38 18.994c-.147 1-.27 1.954-.37 2.896.126.017.249.032.375.05a21.05 21.05 0 0 0 5.014.241c.031-.98.042-1.947.01-2.881l-5.027-.307zm-.477-8.056a4.169 4.169 0 0 0 .076 6.021c1.934.12 3.89.24 5.867.36a8.96 8.96 0 0 0 2.025-6.514 13.375 13.375 0 0 0-3.612-7.17c-.32 2.119-1.697 4.373-4.355 7.303zm-.076 12.946a48.215 48.215 0 0 0-.127 5.05 13.38 13.38 0 0 1 4.436-.763c.248 0 .49.023.737.037.19-1.39.339-2.735.43-4.022a16.94 16.94 0 0 1-1.288.068 28.614 28.614 0 0 1-3.896-.332l-.29-.038zm-7.74 11.698c.419-.827.922-1.608 1.502-2.33l-4.466-19.086a4.738 4.738 0 0 1-1.748 1.33l.709 3.023a1 1 0 1 1-1.95.455l-.707-3.019c-.064.003-.13.012-.194.012a4.737 4.737 0 0 1-1.96-.426l4.393 18.735c.744.11 1.475.29 2.182.543l-2.573-10.972a1 1 0 0 1 1.948-.456zm-6.115-21.705a3.32 3.32 0 0 0 2.399-2.689L21.686 8.08a5.111 5.111 0 0 1-1.855.923 4.461 4.461 0 0 1-1.017.112 5.848 5.848 0 0 1-1.056-.1l-.127 3.524a3.324 3.324 0 0 0 3.342 1.337zM18.232 2.19a.31.31 0 0 0-.24.29l-.164 4.507a3.397 3.397 0 0 0 1.542.073c.502-.143.964-.4 1.352-.75l-2.146-3.966a.312.312 0 0 0-.344-.154zM2.659 25.614l7.253 17.48a11.61 11.61 0 0 1 6.48-7.882l-.809-1.954-3.703 1.533a1 1 0 0 1-.767-1.849l3.707-1.535-.766-1.85-1.853.768a1 1 0 0 1-.766-1.849l1.852-.766-.765-1.85-3.704 1.535a1.002 1.002 0 0 1-1.363-.728 1 1 0 0 1 .595-1.12l3.703-1.532-.765-1.846zm49.99 32.565a6.003 6.003 0 0 0 6.004-6.002 6.003 6.003 0 0 0-6.004-6.002 6.26 6.26 0 0 0-1.337.147 1 1 0 0 1-1.171-1.272 11.4 11.4 0 0 0 .506-3.376 11.505 11.505 0 0 0-9.45-11.327 11.51 11.51 0 0 0-12.836 7.277 1 1 0 0 1-1.534.45 9.511 9.511 0 0 0-9.873-.942 9.502 9.502 0 0 0-5.34 8.352 1.002 1.002 0 0 1-1.29.94 6.003 6.003 0 0 0-7.718 5.754 6.003 6.003 0 0 0 6.005 6.001zm-13.32-42.314a1 1 0 0 1-.802-1.6 5.552 5.552 0 0 0 .993-4.168 1.001 1.001 0 1 1 1.934-.515c.4 2.063-.082 4.2-1.331 5.89a1 1 0 0 1-.8.395zm-1.323 30.31a5.005 5.005 0 0 1 4.544 2.916 1 1 0 0 1-1.822.83 3.002 3.002 0 0 0-2.722-1.745c-.676 0-1.332.231-1.858.656a.957.957 0 0 1-.105.054.851.851 0 0 1-.093.07.818.818 0 0 1-.079.019 1.25 1.25 0 0 1-.382.063.91.91 0 0 1-.188-.029 1.008 1.008 0 0 1-.18-.055.993.993 0 0 1-.16-.101.944.944 0 0 1-.156-.13c-.02-.021-.046-.03-.064-.053a1.035 1.035 0 0 1-.053-.1 1.382 1.382 0 0 1-.07-.093A3.963 3.963 0 0 0 31 46.175a4.002 4.002 0 0 0-4.003 4.001c0 .553.112 1.1.33 1.607a1.001 1.001 0 1 1-1.842.784 6.005 6.005 0 0 1 10.374-5.891 4.918 4.918 0 0 1 2.147-.5zM18.303 39.22a1.003 1.003 0 0 1 .64 1.901 3.44 3.44 0 0 0-2.325 3.054 1 1 0 0 1-2.002 0c0-3.679 3.536-4.902 3.687-4.95zm14.085-1.076a1.001 1.001 0 0 1-.727-1.214 6.233 6.233 0 0 1 5.975-4.758 1 1 0 1 1 .005 2 4.267 4.267 0 0 0-4.04 3.244 1 1 0 0 1-1.213.728z"/>
</symbol><symbol id="ico-wwd-ic-2" viewBox="0 0 61 61">
    <path d="M53.798 35.967a4.97 4.97 0 0 1 6.623 1.809.779.779 0 0 1-.227 1.044L42.102 51.23a.716.716 0 0 1-.095.056 13.549 13.549 0 0 1-8.364 1.18l-10.46-1.924a3.093 3.093 0 0 0-2.306.28l-5.142 3.247 1.65 5.414a.777.777 0 0 1-.746 1.006H4.071a.78.78 0 0 1-.774-.685L.504 36.924a.779.779 0 0 1 .774-.873h8.38a.78.78 0 0 1 .746.552l.984 3.226a6.007 6.007 0 0 0 2.268-1.262l1.732-1.541a12.32 12.32 0 0 1 12.861-1.29l.718.346a7.534 7.534 0 0 0 3.262.747h5.217l3.92-2.13a5.533 5.533 0 0 1 6.33.57l.729-.39a.14.14 0 0 1 .017-.009c1.644-.833 3.803-.248 5.049 1.263zm-9.933 3.136c.405.514.722 1.09.94 1.706l.403-.213 6.86-3.696c-.764-.73-1.962-1.12-2.913-.644zm-3.407-2.139a5.947 5.947 0 0 1 2.228 1.003l3.488-1.877a3.97 3.97 0 0 0-4.035-.038c-.005.004-.012.007-.018.01zM15.586 58.931L9.08 37.61H2.16l2.602 21.32zm43.055-20.937a3.411 3.411 0 0 0-4.101-.657l-8.6 4.634-.814.429c.008.124.013.249.013.375a.78.78 0 0 1-.78.78l-.035-.001-5.935-.269a28.69 28.69 0 0 0-5.205.24.78.78 0 0 1-.214-1.544 30.246 30.246 0 0 1 5.49-.253l5.042.228a4.399 4.399 0 0 0-4.316-3.57h-6.958a9.118 9.118 0 0 1-3.941-.902l-.717-.347A10.764 10.764 0 0 0 16.4 38.21l-1.709 1.52a7.558 7.558 0 0 1-2.848 1.591l3.418 11.203 4.8-3.031a4.65 4.65 0 0 1 3.427-.48l10.434 1.919a11.97 11.97 0 0 0 7.343-1.02zM7.24 55.707a2.455 2.455 0 1 1 4.912 0c0 1.354-1.1 2.453-2.456 2.453a2.454 2.454 0 0 1-2.456-2.453zm2.456-.895zm26.75-45.847a5.918 5.918 0 0 1-5.92 5.888 5.918 5.918 0 0 1-5.921-5.888V6.398A5.918 5.918 0 0 1 30.525.51a5.918 5.918 0 0 1 5.921 5.888zm-10.281 0a4.358 4.358 0 0 0 4.36 4.333 4.359 4.359 0 0 0 4.361-4.333V6.398a4.359 4.359 0 0 0-4.36-4.334 4.358 4.358 0 0 0-4.361 4.334zM20.982 30.93a.78.78 0 0 1-.78-.78v-1.788H7.115a.78.78 0 0 1-.78-.779v-5.058a5.841 5.841 0 0 1 5.695-5.836.781.781 0 0 1 .647.316 3.582 3.582 0 0 0 5.648.138c.173-.211.388-.475.803-.444a5.804 5.804 0 0 1 2.66.834 6.536 6.536 0 0 1 4.813-2.286.779.779 0 0 1 .646.317 4.203 4.203 0 0 0 6.627.162c.197-.24.402-.484.804-.468 1.77.106 3.42.925 4.577 2.267a5.796 5.796 0 0 1 2.87-.836.779.779 0 0 1 .645.316 3.581 3.581 0 0 0 5.648.139c.174-.212.388-.476.803-.445a5.843 5.843 0 0 1 5.475 5.826v5.058a.78.78 0 0 1-.78.78H40.849v1.788c0 .43-.35.78-.78.78zm20.81-12.657a4.21 4.21 0 0 0-1.664.548 6.52 6.52 0 0 1 .721 2.984v4.998h12.287v-4.278a4.285 4.285 0 0 0-3.65-4.232 5.142 5.142 0 0 1-7.695-.02zM26.263 16.83a5.035 5.035 0 0 0-4.502 4.975v7.567h17.527v-7.567a5.006 5.006 0 0 0-4.323-4.954 5.765 5.765 0 0 1-8.702-.02zm-6.062 9.973v-4.998a6.52 6.52 0 0 1 .713-2.976 4.259 4.259 0 0 0-1.522-.536 5.14 5.14 0 0 1-7.695-.02 4.31 4.31 0 0 0-3.803 4.252v4.278zm30.64-15.517a5.277 5.277 0 0 1-5.28 5.276 5.278 5.278 0 0 1-5.28-5.276V9.04a5.277 5.277 0 0 1 5.28-5.274 5.276 5.276 0 0 1 5.28 5.274zm-9 0a3.718 3.718 0 0 0 3.72 3.717 3.718 3.718 0 0 0 3.72-3.717V9.04a3.718 3.718 0 0 0-3.72-3.716 3.718 3.718 0 0 0-3.72 3.716zm-21.094 0a5.277 5.277 0 0 1-5.28 5.276 5.277 5.277 0 0 1-5.28-5.276V9.04a5.277 5.277 0 0 1 5.28-5.274 5.276 5.276 0 0 1 5.28 5.274zm-9 0a3.718 3.718 0 0 0 3.72 3.717 3.718 3.718 0 0 0 3.72-3.717V9.04a3.718 3.718 0 0 0-3.72-3.716 3.718 3.718 0 0 0-3.72 3.716z"/>
</symbol><symbol id="ico-wwd-ic-3" viewBox="0 0 60 61">
    <path d="M33.34 2.392c.57.651 1.134 1.297 1.48 1.36.354.064 1.114-.358 1.869-.778 1.25-.695 2.492-1.386 3.764-.912 1.287.48 1.769 1.83 2.249 3.175.284.796.567 1.59.838 1.75.271.158 1.104.012 1.936-.134 1.397-.245 2.793-.489 3.829.386 1.03.87 1.024 2.29 1.017 3.711-.003.84-.008 1.678.195 1.918.203.242 1.028.38 1.855.52 1.401.236 2.806.473 3.493 1.647.685 1.17.213 2.507-.262 3.847-.285.804-.57 1.61-.455 1.92.115.31.846.735 1.58 1.163 1.246.725 2.5 1.454 2.747 2.823.244 1.345-.644 2.464-1.54 3.593-.55.694-1.104 1.392-1.104 1.791 0 .4.554 1.099 1.104 1.791.896 1.13 1.784 2.249 1.54 3.594-.248 1.369-1.5 2.098-2.746 2.823-.735.427-1.466.853-1.581 1.162-.116.31.17 1.117.455 1.92.475 1.342.947 2.678.262 3.848-.687 1.174-2.092 1.411-3.493 1.647-.827.14-1.652.279-1.855.52-.203.24-.198 1.078-.195 1.917.007 1.421.013 2.842-1.017 3.713-1.036.875-2.432.63-3.829.384-.832-.145-1.665-.29-1.936-.132-.27.16-.554.952-.838 1.749-.48 1.345-.962 2.695-2.249 3.175-1.272.474-2.515-.217-3.764-.912-.755-.42-1.515-.843-1.869-.778-.346.063-.91.709-1.48 1.36-.962 1.1-1.933 2.211-3.34 2.211-1.407 0-2.378-1.111-3.34-2.21-.57-.652-1.134-1.298-1.48-1.361-.354-.065-1.114.357-1.869.778-1.25.695-2.492 1.386-3.764.912-1.287-.48-1.768-1.83-2.25-3.176-.283-.796-.567-1.59-.837-1.748-.27-.159-1.104-.013-1.937.132-1.397.245-2.792.49-3.828-.385-1.03-.87-1.024-2.292-1.018-3.712.004-.84.008-1.677-.195-1.918-.202-.241-1.027-.38-1.854-.52-1.402-.235-2.806-.472-3.493-1.646-.686-1.171-.213-2.507.262-3.847.284-.804.57-1.611.455-1.92-.115-.31-.846-.736-1.582-1.164-1.244-.724-2.497-1.453-2.745-2.822-.244-1.345.644-2.465 1.54-3.594.55-.693 1.104-1.392 1.104-1.791 0-.4-.555-1.098-1.104-1.79-.896-1.13-1.784-2.249-1.54-3.595.248-1.369 1.5-2.098 2.745-2.823.736-.427 1.467-.853 1.582-1.162.115-.31-.17-1.117-.455-1.92-.475-1.34-.948-2.677-.262-3.847.687-1.174 2.091-1.411 3.493-1.647.827-.14 1.652-.28 1.854-.52.203-.24.2-1.079.195-1.918-.006-1.421-.013-2.842 1.018-3.711 1.036-.875 2.431-.63 3.828-.387.833.147 1.666.292 1.937.133.27-.158.554-.952.838-1.749.48-1.344.962-2.695 2.249-3.174 1.272-.475 2.514.217 3.764.912.755.42 1.515.842 1.869.778.346-.063.91-.709 1.48-1.36.962-1.1 1.933-2.21 3.34-2.21 1.407 0 2.378 1.11 3.34 2.21zm11.164 12.922c.363 0 .688.166.903.426A21.06 21.06 0 0 1 51.1 30.172a21.066 21.066 0 0 1-6.18 14.936A21.026 21.026 0 0 1 30 51.294c-2.494 0-4.887-.433-7.107-1.228a1.173 1.173 0 1 1 .674-2.244l.002.001A18.7 18.7 0 0 0 30 48.954c5.183 0 9.873-2.101 13.27-5.5a18.732 18.732 0 0 0 5.494-13.282 18.725 18.725 0 0 0-5.15-12.926l-.003-.003a1.17 1.17 0 0 1 .894-1.929zm-3.533-2.973a1.17 1.17 0 1 1 0 2.342 1.17 1.17 0 0 1 0-2.342zm-3.798-2.039a1.17 1.17 0 1 1-.795 2.201A18.71 18.71 0 0 0 30 11.39a18.693 18.693 0 0 0-13.268 5.501 18.731 18.731 0 0 0-5.496 13.281A18.729 18.729 0 0 0 16.36 43.07l.005.005v.001a1.171 1.171 0 0 1-1.794 1.505 21.06 21.06 0 0 1-5.673-14.409 21.066 21.066 0 0 1 6.181-14.935A21.023 21.023 0 0 1 30 9.05c2.52 0 4.934.443 7.174 1.252zM19.028 45.661a1.17 1.17 0 1 1 0 2.342 1.17 1.17 0 0 1 0-2.342zm4.158-27.003a4.856 4.856 0 0 1 4.86 4.864 4.85 4.85 0 0 1-1.424 3.44 4.84 4.84 0 0 1-3.436 1.424 4.841 4.841 0 0 1-3.436-1.425 4.85 4.85 0 0 1-1.424-3.438c0-1.344.545-2.56 1.424-3.44a4.844 4.844 0 0 1 3.436-1.425zm0 2.34c-.696 0-1.327.283-1.784.74a2.519 2.519 0 0 0-.738 1.785 2.52 2.52 0 0 0 2.522 2.524 2.52 2.52 0 0 0 2.522-2.524c0-.698-.283-1.33-.739-1.786a2.514 2.514 0 0 0-1.783-.74zm12.656-1.81a1.163 1.163 0 1 1 1.944 1.28L24.158 41.156a1.164 1.164 0 1 1-1.944-1.279zm.972 12.77c1.342 0 2.557.545 3.436 1.425a4.85 4.85 0 0 1 1.424 3.44 4.847 4.847 0 0 1-1.424 3.438 4.84 4.84 0 0 1-3.436 1.425 4.84 4.84 0 0 1-3.436-1.425 4.85 4.85 0 0 1-1.423-3.439c0-1.343.544-2.559 1.423-3.44a4.842 4.842 0 0 1 3.436-1.424zm0 2.34c-.697 0-1.327.282-1.783.74a2.515 2.515 0 0 0-.74 1.784c0 .698.283 1.328.74 1.785a2.51 2.51 0 0 0 1.783.74c.696 0 1.327-.283 1.783-.74a2.513 2.513 0 0 0 .739-1.785c0-.697-.282-1.328-.74-1.785a2.51 2.51 0 0 0-1.782-.739zM30 2.521c-.357 0-.975.707-1.587 1.407-.838.958-1.67 1.908-2.822 2.118-1.17.213-2.294-.413-3.412-1.034-.78-.434-1.554-.865-1.819-.766-.262.098-.563.939-.861 1.777-.426 1.192-.85 2.38-1.861 2.973-1.018.598-2.268.379-3.516.16-.862-.15-1.723-.302-1.92-.135-.204.172-.2 1.046-.196 1.92.006 1.27.012 2.54-.743 3.436-.752.893-2.001 1.104-3.252 1.314-.865.146-1.732.292-1.867.523-.135.23.159 1.059.454 1.891.424 1.198.85 2.4.436 3.51-.408 1.097-1.498 1.732-2.594 2.37-.782.455-1.569.913-1.623 1.214-.056.305.507 1.014 1.074 1.73.805 1.013 1.616 2.035 1.616 3.243 0 1.21-.811 2.23-1.616 3.245-.567.714-1.13 1.423-1.074 1.729.054.3.841.759 1.623 1.214 1.096.638 2.186 1.273 2.594 2.368.413 1.111-.012 2.314-.436 3.512-.295.832-.589 1.662-.454 1.89.135.232 1.002.379 1.867.524 1.251.211 2.5.42 3.252 1.314.755.895.749 2.165.743 3.435-.004.874-.008 1.748.196 1.921.197.166 1.058.016 1.92-.136 1.248-.218 2.498-.437 3.516.16 1.012.593 1.436 1.781 1.86 2.973.3.838.6 1.68.862 1.777.265.099 1.04-.332 1.819-.765 1.118-.621 2.241-1.246 3.412-1.034 1.154.21 1.984 1.16 2.822 2.119.612.7 1.23 1.406 1.587 1.406s.975-.706 1.587-1.406c.838-.959 1.67-1.91 2.822-2.119 1.17-.212 2.295.413 3.412 1.034.78.433 1.554.864 1.82.765.261-.097.561-.939.86-1.777.426-1.192.85-2.38 1.86-2.973 1.019-.597 2.268-.378 3.516-.16.863.152 1.724.303 1.921.136.204-.173.2-1.047.196-1.92-.006-1.27-.011-2.541.743-3.436.752-.894 2-1.103 3.25-1.314.867-.145 1.735-.292 1.87-.523.134-.23-.16-1.06-.454-1.891-.425-1.198-.85-2.4-.437-3.512.407-1.095 1.498-1.73 2.594-2.368.782-.455 1.569-.913 1.624-1.214.054-.306-.508-1.015-1.075-1.73-.804-1.013-1.616-2.034-1.616-3.244 0-1.208.812-2.23 1.616-3.244.567-.715 1.13-1.424 1.075-1.729-.055-.3-.842-.76-1.624-1.214-1.096-.638-2.187-1.273-2.594-2.37-.414-1.11.012-2.312.437-3.51.295-.832.588-1.661.453-1.891-.134-.231-1.002-.377-1.868-.523-1.25-.21-2.499-.42-3.25-1.314-.755-.896-.75-2.165-.744-3.436.004-.874.008-1.748-.196-1.92-.197-.167-1.058-.016-1.92.135-1.249.219-2.498.438-3.516-.16-1.011-.592-1.436-1.78-1.861-2.973-.299-.838-.599-1.679-.86-1.777-.266-.099-1.04.332-1.82.766-1.118.621-2.242 1.247-3.412 1.034-1.153-.21-1.984-1.16-2.822-2.118-.612-.7-1.23-1.407-1.587-1.407z"/>
</symbol><symbol id="ico-wwd-ic-4" viewBox="0 0 62 60">
    <path d="M.807 44.343a.911.911 0 0 1-.911-.912V8.877a5.548 5.548 0 0 1 5.54-5.544h1.405v-1.13c0-1.221.993-2.214 2.214-2.214h1.692c1.221 0 2.214.993 2.214 2.215v1.129h6.044v-1.13c0-1.221.992-2.214 2.213-2.214h1.693c1.22 0 2.213.993 2.213 2.215v1.129h6.044v-1.13c0-1.221.993-2.214 2.214-2.214h1.692c1.221 0 2.214.993 2.214 2.215v1.129h6.044v-1.13c0-1.221.993-2.214 2.213-2.214h1.693c1.22 0 2.213.993 2.213 2.215v1.129h2.39a5.548 5.548 0 0 1 5.54 5.544v18.02a.911.911 0 1 1-1.822 0V16.874H1.719v26.557a.911.911 0 0 1-.912.912zm44.347-37.71c0 .217.176.392.391.392h1.693a.39.39 0 0 0 .39-.392v-4.43a.391.391 0 0 0-.39-.39h-1.693a.391.391 0 0 0-.39.39zm-12.163 0a.39.39 0 0 0 .39.392h1.693a.392.392 0 0 0 .392-.392v-4.43a.391.391 0 0 0-.392-.39h-1.692a.39.39 0 0 0-.391.39zm-12.164 0c0 .217.176.392.391.392h1.693a.392.392 0 0 0 .391-.392v-4.43a.391.391 0 0 0-.39-.39h-1.694a.391.391 0 0 0-.39.39zm-12.163 0c0 .217.175.392.391.392h1.693c.215 0 .39-.176.39-.392v-4.43a.39.39 0 0 0-.39-.39H9.055a.391.391 0 0 0-.391.39zM5.437 5.156a3.723 3.723 0 0 0-3.719 3.72v6.175H55.56V8.877a3.723 3.723 0 0 0-3.718-3.72h-2.39v1.476a2.217 2.217 0 0 1-2.213 2.216h-1.693a2.217 2.217 0 0 1-2.213-2.216V5.156h-6.044v1.477a2.217 2.217 0 0 1-2.213 2.216h-1.693a2.217 2.217 0 0 1-2.214-2.216V5.156h-6.043v1.477A2.217 2.217 0 0 1 22.91 8.85h-1.693a2.217 2.217 0 0 1-2.213-2.216V5.156H12.96v1.477a2.217 2.217 0 0 1-2.213 2.216H9.055a2.217 2.217 0 0 1-2.214-2.216V5.156zm4.775 47.667a.911.911 0 1 1 0 1.823H2.267a2.374 2.374 0 0 1-2.371-2.372v-4.688a.911.911 0 1 1 1.822 0v4.688a.55.55 0 0 0 .549.549zm-.03-33.29a.912.912 0 0 1 0 1.824H7.015a.912.912 0 0 1 0-1.824zm6.567 1.824a.912.912 0 0 1 0-1.824h3.167a.911.911 0 0 1 0 1.824zm9.734 0a.911.911 0 0 1 0-1.824h3.167a.912.912 0 0 1 0 1.824zm9.734 0a.912.912 0 0 1 0-1.824h3.167a.912.912 0 0 1 0 1.824zm12.901-1.824a.912.912 0 0 1 0 1.824h-3.167a.911.911 0 0 1 0-1.824zm-38.936 4.585a.912.912 0 0 1 0 1.824H7.015a.911.911 0 0 1 0-1.824zm6.567 1.824a.911.911 0 0 1 0-1.824h3.167a.912.912 0 0 1 0 1.824zm9.734 0a.911.911 0 1 1 0-1.824h3.167a.912.912 0 0 1 0 1.824zm9.734 0a.911.911 0 0 1 0-1.824h3.167a.912.912 0 0 1 0 1.824zm12.901-1.824a.912.912 0 0 1 0 1.824h-3.167a.91.91 0 1 1 0-1.824zM16.771 43.842a3.597 3.597 0 0 1 0-5.078c1.4-1.4 3.676-1.4 5.075 0l2.148 2.149 10.293-10.3a3.593 3.593 0 0 1 5.075 0c1.4 1.4 1.4 3.679 0 5.079L26.531 48.53a3.564 3.564 0 0 1-2.537 1.051c-.959 0-1.86-.374-2.537-1.051zm1.289-3.789a1.77 1.77 0 0 0 0 2.5l4.685 4.687c.334.334.777.518 1.249.518a1.75 1.75 0 0 0 1.248-.518l12.831-12.838a1.77 1.77 0 0 0 0-2.5 1.768 1.768 0 0 0-2.497.001L24.638 42.847a.91.91 0 0 1-1.289 0l-2.792-2.794a1.763 1.763 0 0 0-1.249-.516 1.76 1.76 0 0 0-1.248.516zm39.321-1.725a12.086 12.086 0 0 1 4.723 9.584c0 6.671-5.424 12.098-12.09 12.098-4.177 0-7.866-2.131-10.039-5.364h-25.61a.912.912 0 0 1 0-1.823h24.6a12.04 12.04 0 0 1-1.04-4.91c0-6.67 5.423-12.098 12.09-12.098 1.996 0 3.882.488 5.544 1.35v-6.113a.912.912 0 1 1 1.822 0zm-7.367 19.858c5.661 0 10.267-4.608 10.267-10.274 0-5.664-4.606-10.273-10.267-10.273-5.66 0-10.267 4.609-10.267 10.273 0 5.666 4.606 10.274 10.267 10.274zm0-19.23c4.935 0 8.95 4.018 8.95 8.956 0 4.939-4.014 8.956-8.95 8.956-4.935 0-8.95-4.017-8.95-8.956 0-4.938 4.015-8.956 8.95-8.956zm.816 16.04a7.141 7.141 0 0 0 6.264-6.267.9.9 0 0 1-.404.096h-1.11a.912.912 0 0 1 0-1.824h1.11c.145 0 .282.035.404.095a7.142 7.142 0 0 0-6.264-6.268.91.91 0 0 1 .095.405v1.11a.912.912 0 1 1-1.822 0v-1.11c0-.146.035-.282.095-.405a7.141 7.141 0 0 0-6.263 6.268.906.906 0 0 1 .403-.095h1.11a.911.911 0 1 1 0 1.824h-1.11a.897.897 0 0 1-.403-.096 7.14 7.14 0 0 0 6.263 6.267.9.9 0 0 1-.095-.403v-1.111a.912.912 0 1 1 1.822 0v1.11a.907.907 0 0 1-.095.404zm1.193-7.995a.911.911 0 0 1 0 1.824h-2.009a.912.912 0 0 1-.911-.913v-1.846a.911.911 0 1 1 1.822 0V47z"/>
</symbol><symbol id="ico-wwd-ic-5" viewBox="0 0 61 60">
    <path d="M30.396.028c7.942 0 15.56 3.16 21.176 8.787 11.695 11.716 11.695 30.71 0 42.426a29.91 29.91 0 0 1-33.414 6.169C3.06 50.64-3.7 32.89 3.058 17.766a30.265 30.265 0 0 1 7.54-10.247A29.885 29.885 0 0 1 30.396.028zm20.052 50.087c10.594-10.603 11.13-27.632 1.225-38.884C41.316-.537 23.396-1.663 11.65 8.714c-3.04 2.691-5.475 6-7.142 9.704a28.452 28.452 0 0 0 5.827 31.674c11.07 11.103 29.03 11.113 40.112.023zm-21-7.727a.796.796 0 0 1 0-1.593c3.943.005 7.146-3.19 7.16-7.14a.796.796 0 1 1 1.59 0c.003 4.813-3.922 8.731-8.75 8.734zm.948-38.378c14.32 0 25.972 11.672 25.972 26.018 0 14.347-11.651 26.018-25.972 26.018-14.32 0-25.971-11.671-25.971-26.018a25.868 25.868 0 0 1 2.261-10.634 26.263 26.263 0 0 1 6.54-8.887 25.919 25.919 0 0 1 17.17-6.497zm18.055 9.621a24.588 24.588 0 0 0-1.686-1.69l-8.299 8.314 1.41 1.966zm-30.385 28.08c2.551 4.442 7.275 7.2 12.33 7.2h.009a14.287 14.287 0 0 0 12.343-7.232c2.338-4.093 2.371-8.683.092-12.597L30.38 11.714 17.944 29.048c-2.279 3.948-2.235 8.563.122 12.664zM8.137 20.047a24.455 24.455 0 0 0 3.171 25.161l4.495-4.502c-1.697-4.118-1.438-8.663.785-12.49a.941.941 0 0 1 .042-.065L29.734 9.884a.794.794 0 0 1 1.291 0l6.5 9.06 8.023-8.037c-9.239-7.361-22.416-7.026-31.27.794a24.656 24.656 0 0 0-6.14 8.345zm4.204 26.38c.536.59 1.097 1.153 1.687 1.689l3.836-3.842a16.065 16.065 0 0 1-1.176-1.766c-.054-.093-.104-.187-.155-.28l-4.192 4.198zm18.055 8.027c13.444 0 24.381-10.957 24.381-24.425a24.332 24.332 0 0 0-5.294-15.179l-8.667 8.682 3.338 4.653c.014.019.027.04.04.06 2.555 4.363 2.531 9.68-.066 14.226-2.827 4.952-8.086 8.03-13.722 8.034h-.01a15.812 15.812 0 0 1-11.498-5.015l-3.654 3.66a24.234 24.234 0 0 0 15.152 5.304z"/>
</symbol><symbol id="ico-wwd-ic-6" viewBox="0 0 60 60">
    <path d="M10.996 16.997a1 1 0 0 1 0-2h7.002a1 1 0 0 1 1 1v1h2v-1a1 1 0 0 1 1-1H30a1 1 0 0 1 0 2h-7.001v1a1 1 0 0 1-1 1h-4.001a1 1 0 0 1-1-1v-1zM45.003 39a6 6 0 1 1-4.244 10.245A6.002 6.002 0 0 1 45.003 39zm0 10.002a4 4 0 1 0 0-8.002 4 4 0 0 0 0 8.002zm14.003-8.001a1 1 0 0 1 1 1v6a1 1 0 0 1-1 1h-3.754c-.057.145-.114.284-.174.42l2.655 2.655a1 1 0 0 1 0 1.414l-4.241 4.241a1.03 1.03 0 0 1-1.415 0l-2.654-2.655c-.136.06-.275.117-.42.174v3.754a1 1 0 0 1-1 1h-6a1 1 0 0 1-1-1V55.25a11.625 11.625 0 0 1-.42-.174l-2.654 2.655c-.391.39-1.024.39-1.415 0l-4.24-4.24a1 1 0 0 1 0-1.415l2.654-2.654a11.82 11.82 0 0 1-.174-.42H31a1 1 0 0 1-1-1v-6.001a1 1 0 0 1 1-1h3.755c.057-.144.114-.284.174-.42L32.347 38H24.9a5 5 0 0 1-9.802 0H9.996v20.004h2V47.003a1 1 0 0 1 1-1H27a1 1 0 0 1 1 1v11.002h6.002a1 1 0 0 1 0 2H.994a1 1 0 0 1-1-1V43.002A7.01 7.01 0 0 1 6.995 36h8.002v-1.215A11.008 11.008 0 0 1 9.04 25.87a4.001 4.001 0 0 1-3.045-3.872 3 3 0 1 1 0-6.002A13.93 13.93 0 0 1 16.04 2.575a3 3 0 0 1 2.959-2.581h2a3 3 0 0 1 2.958 2.575A14.004 14.004 0 0 1 34 15.996a3 3 0 0 1 0 6.002 4.001 4.001 0 0 1-3.045 3.872 11.008 11.008 0 0 1-5.957 8.916v1.215h7.787l3.728-3.728a1 1 0 0 1 1.415 0l2.654 2.654c.136-.06.275-.117.42-.173v-3.755a1 1 0 0 1 1-1h6a1 1 0 0 1 1 1v3.755c.145.056.284.114.42.173l2.654-2.654a1 1 0 0 1 1.415 0l4.24 4.24c.39.391.39 1.024 0 1.415l-2.654 2.654c.06.136.117.276.174.42zm-45.01 17.003H26V48.003H13.997zM31 23.729c.619-.357 1-1.017 1-1.731h-1zM4.995 18.997a1 1 0 0 0 1 1h28.006a1 1 0 0 0 0-2 1 1 0 0 1-2 0v-2a11.958 11.958 0 0 0-8.002-11.303v6.302a1 1 0 0 1-2 0V2.993a1 1 0 0 0-1-1h-2.001a1 1 0 0 0-1 1v8.003a1 1 0 0 1-2 0V4.684a11.94 11.94 0 0 0-8.002 11.312v2a1 1 0 0 1-2 0 1 1 0 0 0-1.001 1.001zm3 3a2.003 2.003 0 0 0 1 1.732v-1.731zm3.001 3.001a9.002 9.002 0 1 0 18.004 0v-3H10.996zM1.994 58.005h6.001V38h-1a5.007 5.007 0 0 0-5 5.001zM19.998 40a3 3 0 0 0 3-3v-1.426c-1.96.568-4.04.568-6 0V37a3 3 0 0 0 3 3zm38.007 3.001h-3.46a1 1 0 0 1-.952-.694 8.287 8.287 0 0 0-.606-1.446 1 1 0 0 1 .17-1.188l2.454-2.454-2.827-2.826-2.453 2.454a1 1 0 0 1-1.188.17 8.298 8.298 0 0 0-1.446-.605 1 1 0 0 1-.694-.952v-3.462h-4v3.462a1 1 0 0 1-.695.952 8.31 8.31 0 0 0-1.445.604 1 1 0 0 1-1.188-.17l-2.454-2.453-2.826 2.826 2.453 2.454a1 1 0 0 1 .17 1.188c-.247.462-.45.946-.605 1.446a1 1 0 0 1-.952.694h-3.46v4h3.46a1 1 0 0 1 .952.695c.156.5.358.984.605 1.446a1 1 0 0 1-.17 1.187l-2.453 2.454 2.826 2.827 2.454-2.454a.999.999 0 0 1 1.188-.17 8.35 8.35 0 0 0 1.445.605 1 1 0 0 1 .695.952v3.46h4v-3.46a1 1 0 0 1 .694-.952c.5-.156.984-.358 1.446-.605a.999.999 0 0 1 1.188.17l2.453 2.454 2.827-2.827-2.453-2.454a1 1 0 0 1-.17-1.187 8.28 8.28 0 0 0 .605-1.446 1 1 0 0 1 .951-.694h3.461zM44.003 33h2v2h-2zm-8.194 4.223l1.414-1.415 1.415 1.415-1.415 1.414zM33 44.002h2v2h-2zm2.81 8.78l1.413-1.415 1.415 1.415-1.415 1.414zm8.193 2.222h2v2h-2zm7.365-2.222l1.415-1.415 1.414 1.415-1.414 1.414zm0-15.56l1.415-1.414 1.414 1.415-1.414 1.415zm3.637 6.78h2v2h-2zm4-29.006a1 1 0 0 1 1 1v4.001a1 1 0 0 1-1 1H57.25l1.244 1.243a1 1 0 0 1 0 1.415l-2.831 2.83a.999.999 0 0 1-1.414 0l-1.243-1.242v1.755a1 1 0 0 1-1 1h-4.001a1 1 0 0 1-1-1v-1.755l-1.244 1.242a.999.999 0 0 1-1.414 0l-2.83-2.83a1 1 0 0 1 0-1.415l1.242-1.243h-1.756a1 1 0 0 1-1-1v-4a1 1 0 0 1 1-1h1.756l-1.243-1.244a1 1 0 0 1 0-1.414l2.83-2.83a.999.999 0 0 1 1.415 0l1.243 1.242V8.995a1 1 0 0 1 1-1h4.001a1 1 0 0 1 1 1v1.756l1.244-1.243a.999.999 0 0 1 1.414 0l2.83 2.83a1 1 0 0 1 0 1.415l-1.243 1.243zm-1 2h-2.35a.999.999 0 0 1-.961-.716 2.231 2.231 0 0 0-.168-.4 1.002 1.002 0 0 1 .179-1.171l1.664-1.663-1.417-1.416-1.664 1.663a.999.999 0 0 1-1.17.179 2.266 2.266 0 0 0-.4-.168 1 1 0 0 1-.714-.958v-2.35h-2v2.35a1 1 0 0 1-.717.96 2.34 2.34 0 0 0-.4.169 1 1 0 0 1-1.17-.179l-1.664-1.666-1.416 1.416 1.663 1.666a1 1 0 0 1 .179 1.17 2.279 2.279 0 0 0-.168.402 1.001 1.001 0 0 1-.958.713h-2.35v2h2.35a1 1 0 0 1 .961.716c.043.138.1.273.168.4.203.388.13.863-.179 1.172l-1.666 1.663 1.416 1.416L46.72 22.7a1 1 0 0 1 1.171-.179c.128.068.262.125.4.168a1 1 0 0 1 .714.957v2.351h2v-2.35a1 1 0 0 1 .716-.961c.139-.043.273-.1.4-.169.388-.202.862-.13 1.172.18l1.663 1.666 1.416-1.419-1.663-1.664a.999.999 0 0 1-.179-1.17c.068-.128.125-.262.168-.401a1 1 0 0 1 .958-.713h2.35zm-8.001-3a4 4 0 1 1 0 8.002 4 4 0 0 1 0-8.002zm0 6.001a2 2 0 1 0 .001-4 2 2 0 0 0-.001 4z"/>
</symbol><symbol id="ico-wwd-ic-7" viewBox="0 0 61 61">
    <path d="M44.96 29.826a2.946 2.946 0 0 1-.899 4.17 2.942 2.942 0 0 1-1.002 4.007 2.946 2.946 0 0 1-2.534 4.44H25.183a1.945 1.945 0 0 1-1.698 1.003h-6.012a1.945 1.945 0 0 1-1.941-1.943V25.472c0-1.07.87-1.942 1.941-1.942h6.012c.327 0 .635.083.906.225.551-.44.997-.876 1.294-1.193.567-.603 1.213-1.025 1.92-1.254 1.801-.586 3.022-1.51 3.728-2.182.863-.82 1.216-1.511 1.25-1.712a3.402 3.402 0 0 1 1.013-2.418 3.424 3.424 0 0 1 2.43-.997h.032a3.295 3.295 0 0 1 2.463 1.131c.7.788 1.033 1.86.914 2.938-.194 1.766-1.199 3.732-2.736 5.462h6.33a3.444 3.444 0 1 1 1.93 6.297zm-.365-2.852c0-.862-.702-1.566-1.566-1.566h-8.672a.94.94 0 0 1-.59-1.669c2.104-1.704 3.597-4.011 3.802-5.877.06-.543-.109-1.1-.452-1.485a1.432 1.432 0 0 0-1.075-.5 1.577 1.577 0 0 0-1.122.454 1.537 1.537 0 0 0-.458 1.099c0 .79-.642 1.89-1.719 2.948-.858.843-2.346 1.997-4.558 2.717-.401.13-.782.383-1.13.753-.367.393-.93.942-1.634 1.488.003.045.006.09.006.136v2.004a.939.939 0 0 1-1.878 0v-2.004a.063.063 0 0 0-.063-.064h-6.012a.063.063 0 0 0-.062.064v16.03c0 .035.028.064.062.064h6.012c.035 0 .063-.03.063-.064v-10.02a.94.94 0 0 1 1.878 0v9.081h15.098a1.065 1.065 0 0 0 0-2.13.939.939 0 1 1 0-1.878h1.001a1.065 1.065 0 0 0 0-2.128.94.94 0 0 1 0-1.88h1.002a1.066 1.066 0 0 0 0-2.129.94.94 0 0 1 0-1.879h.501c.864 0 1.566-.7 1.566-1.565zm-23.17 11.518a.948.948 0 0 1-.945.944.948.948 0 0 1-.944-.944c0-.52.426-.944.944-.944.52 0 .945.424.945.944zm39.01-3.74c.118.31.062.66-.145.919l-2.854 3.561.215 4.561a.94.94 0 0 1-.423.829l-3.815 2.505-1.205 4.405a.937.937 0 0 1-.658.657l-4.403 1.206-2.506 3.813a.933.933 0 0 1-.83.424l-4.56-.216-3.562 2.854a.939.939 0 0 1-.919.146l-4.27-1.613-4.27 1.613a.938.938 0 0 1-.92-.146l-3.562-2.854-4.56.216a.934.934 0 0 1-.83-.424l-2.505-3.813L9.45 52.19a.938.938 0 0 1-.659-.657l-1.204-4.405-3.815-2.505a.94.94 0 0 1-.423-.829l.215-4.56L.71 35.67a.938.938 0 0 1-.146-.92l1.614-4.271L.564 26.21a.94.94 0 0 1 .146-.92l2.854-3.56-.215-4.56a.939.939 0 0 1 .423-.83l3.815-2.507L8.791 9.43a.94.94 0 0 1 .659-.658l4.403-1.205 2.506-3.815a.938.938 0 0 1 .83-.424l4.559.217L25.31.693a.936.936 0 0 1 .92-.148L30.5 2.16 34.77.545a.941.941 0 0 1 .92.145l3.562 2.856 4.56-.217a.941.941 0 0 1 .829.424l2.506 3.815 4.403 1.205c.32.086.57.338.658.658l1.205 4.403 3.815 2.507a.939.939 0 0 1 .423.83l-.215 4.56 2.854 3.56a.94.94 0 0 1 .145.92l-1.613 4.269zm-3.496-4.604l1.55-4.1-2.741-3.42a.94.94 0 0 1-.206-.633l.207-4.38-3.664-2.405a.936.936 0 0 1-.39-.539l-1.157-4.227-4.229-1.157a.945.945 0 0 1-.537-.39l-2.407-3.665-4.379.207a.938.938 0 0 1-.632-.205l-3.42-2.742-4.102 1.55a.938.938 0 0 1-.664 0l-4.1-1.55-3.422 2.742a.942.942 0 0 1-.632.205l-4.379-.207-2.407 3.665a.945.945 0 0 1-.537.39l-4.229 1.157-1.156 4.227a.936.936 0 0 1-.39.539L5.25 17.616l.207 4.379a.941.941 0 0 1-.205.632L2.51 26.05l1.55 4.1a.94.94 0 0 1 0 .664l-1.55 4.101 2.742 3.421a.942.942 0 0 1 .205.632l-.207 4.38 3.664 2.406a.93.93 0 0 1 .39.537l1.157 4.23 4.229 1.156c.22.06.412.199.537.39l2.407 3.664 4.38-.206a.94.94 0 0 1 .63.205l3.422 2.74 4.101-1.55a.94.94 0 0 1 .664 0l4.101 1.55 3.421-2.74a.94.94 0 0 1 .632-.205l4.379.206 2.407-3.664a.936.936 0 0 1 .537-.39l4.229-1.157 1.156-4.23c.06-.22.2-.41.39-.536l3.665-2.406-.207-4.38a.942.942 0 0 1 .206-.632l2.74-3.42-1.549-4.102a.939.939 0 0 1 0-.665zM45.407 14.173a.94.94 0 0 1 1.27-1.386 25.046 25.046 0 0 1 1.473 1.474.94.94 0 0 1-1.384 1.27 22.375 22.375 0 0 0-1.36-1.358zM8.382 29.568a22.03 22.03 0 0 0 5.155 15.114.938.938 0 1 1-1.437 1.208 23.9 23.9 0 0 1-5.595-16.397A23.913 23.913 0 0 1 13.51 13.51a24.02 24.02 0 0 1 14.475-6.896 24.065 24.065 0 0 1 15.356 3.61.94.94 0 0 1-1.01 1.586c-4.173-2.661-9.2-3.842-14.153-3.328a22.14 22.14 0 0 0-13.34 6.356 22.035 22.035 0 0 0-6.456 14.73zm42.332-11.97c2.885 4.529 4.168 9.983 3.612 15.355a24.033 24.033 0 0 1-6.897 14.475 23.915 23.915 0 0 1-16.966 7.025 23.88 23.88 0 0 1-15.416-5.616.937.937 0 1 1 1.21-1.435 22.036 22.036 0 0 0 15.113 5.155A22.047 22.047 0 0 0 46.1 46.1a22.152 22.152 0 0 0 6.357-13.34 22.192 22.192 0 0 0-3.328-14.154.94.94 0 1 1 1.585-1.008z"/>
</symbol><symbol id="ico-wwd-ic-88" viewBox="0 0 70 70">
    <path d="M67.39 21.211a2.615 2.615 0 0 1 2.612 2.612v22.202a2.616 2.616 0 0 1-2.612 2.613h-7.062a2.204 2.204 0 0 1-2.201-2.201V45.5H46.991c-.78 0-1.416.635-1.416 1.416v10.8h.526a2.615 2.615 0 0 1 2.612 2.613v7.06a2.615 2.615 0 0 1-2.612 2.613c-1.319 0-1.317-2.051 0-2.051.31 0 .561-.252.561-.562v-7.06a.561.561 0 0 0-.56-.561h-5.504s-.024 9.04-.064 9.149l.003.06c0 .565-.46 1.025-1.025 1.025H23.899a2.615 2.615 0 0 1-2.612-2.613v-7.06a2.615 2.615 0 0 1 2.612-2.612h.525v-10.8c0-.782-.635-1.417-1.416-1.417H12.283v.525a2.615 2.615 0 0 1-2.612 2.613h-7.06a2.615 2.615 0 0 1-2.613-2.613V23.823a2.615 2.615 0 0 1 2.612-2.612h7.061a2.615 2.615 0 0 1 2.612 2.612v.526h10.726c.78 0 1.415-.635 1.415-1.416v-1.196c0-1.318 2.051-1.316 2.051 0v1.196A3.47 3.47 0 0 1 23.01 26.4H12.35v17.05h10.66a3.47 3.47 0 0 1 3.466 3.466v10.733h17.05V46.915a3.47 3.47 0 0 1 3.466-3.466h11.137v-17.05H46.99a3.47 3.47 0 0 1-3.466-3.466V11.872h-17.05v3.303c0 1.319-2.05 1.317-2.05 0v-3.303h-.938c-1.213 0-2.2-.987-2.2-2.2V2.61a2.615 2.615 0 0 1 2.612-2.612H46.1a2.615 2.615 0 0 1 2.612 2.612v7.062c0 1.213-.987 2.2-2.2 2.2h-.937v11.061c0 .78.635 1.416 1.416 1.416h11.136v-.937c0-1.214.987-2.2 2.2-2.2zM31.453 2.05v7.772h7.094V2.049zm-2.051 7.772V2.049h-5.503a.561.561 0 0 0-.561.561v7.062a.15.15 0 0 0 .15.149zm17.11 0a.15.15 0 0 0 .15-.15v-7.06a.561.561 0 0 0-.56-.562h-5.504v7.772zM2.05 38.471h8.183v-7.093H2.05zm.561-15.209a.561.561 0 0 0-.56.561v5.504h8.182v-5.504a.56.56 0 0 0-.561-.56zm7.061 23.325c.31 0 .561-.252.561-.562v-5.503H2.05v5.503c0 .31.252.562.561.562zM23.338 67.39c0 .31.251.562.56.562h5.504v-8.183h-5.503a.561.561 0 0 0-.561.56zm15.209-7.621h-7.094v8.183h7.094zM60.179 38.47h7.772v-7.093h-7.772zm-.001-15.06v5.916h7.773v-5.504a.56.56 0 0 0-.561-.56h-7.062a.15.15 0 0 0-.15.149zm7.212 23.176a.56.56 0 0 0 .56-.562v-5.503h-7.77v5.915c0 .082.067.15.15.15z"/>
</symbol><symbol id="ico-wwd-ic-9" viewBox="0 0 72 61">
    <path d="M71.308 40.45v11.796c0 .611-.495 1.106-1.105 1.106h-3.614l.002.074c0 3.862-3.142 7.005-7.003 7.005s-7.003-3.143-7.003-7.005l.002-.074H27.668l.002.074c0 3.862-3.141 7.005-7.002 7.005-3.861 0-7.003-3.143-7.003-7.005l.002-.074H7.694a2.288 2.288 0 0 1-2.285-2.285v-2.434H1.797a1.106 1.106 0 0 1 0-2.211h10.615a1.106 1.106 0 1 1 0 2.211H7.62v2.434c0 .04.033.073.073.073h6.356c.95-2.743 3.557-4.718 6.618-4.718 3.06 0 5.668 1.975 6.617 4.718h22.941v-8.33a1.106 1.106 0 1 1 2.212 0v8.331h.532c.95-2.743 3.557-4.718 6.618-4.718 3.061 0 5.668 1.975 6.618 4.718h2.891v-4.866h-1.253a3.469 3.469 0 0 1-3.465-3.465v-2.36c0-.61.495-1.106 1.106-1.106h3.438a3.618 3.618 0 0 0-3.435-2.507H52.437v1.254a1.106 1.106 0 1 1-2.212 0V18.034a.074.074 0 0 0-.073-.074H7.694a.074.074 0 0 0-.073.074V38.09a1.106 1.106 0 1 1-2.212 0V18.034a2.288 2.288 0 0 1 2.285-2.286h15.488l-9.411-3.765a1.106 1.106 0 0 1 .82-2.054l7.707 3.083c-2.348-1.507-4.671-3.166-5.556-4.326a5.157 5.157 0 0 1 .972-7.219 5.154 5.154 0 0 1 7.217.972c1.258 1.65 2.918 6.288 3.993 9.555 1.074-3.267 2.734-7.905 3.992-9.555a5.154 5.154 0 0 1 7.217-.972 5.157 5.157 0 0 1 .972 7.22c-.884 1.16-3.207 2.818-5.556 4.325l7.707-3.083a1.106 1.106 0 1 1 .82 2.054l-9.411 3.765h15.488a2.288 2.288 0 0 1 2.285 2.286v2.433h8.33a4.65 4.65 0 0 1 4.643 4.646v1.18c0 .53-.375.974-.875 1.08l1.829 7.318a5.833 5.833 0 0 1 4.943 5.758zM30.824 13.306c.747-.44 1.604-.954 2.485-1.502 4.361-2.71 5.655-3.958 6.038-4.46a2.943 2.943 0 0 0-.555-4.119 2.941 2.941 0 0 0-4.117.555c-1.07 1.402-2.745 6.124-3.85 9.526zm-6.286-1.501c.881.547 1.739 1.062 2.485 1.501-1.106-3.402-2.78-8.124-3.85-9.526a2.936 2.936 0 0 0-4.118-.555 2.943 2.943 0 0 0-.555 4.119c.383.502 1.677 1.75 6.038 4.46zm27.9 22.818h11.63l-1.805-7.226h-9.825zm0-11.945v2.507H63.2v-.073a2.436 2.436 0 0 0-2.433-2.434zM25.459 53.426a4.797 4.797 0 0 0-4.791-4.793 4.797 4.797 0 0 0-4.792 4.793 4.798 4.798 0 0 0 4.792 4.793 4.798 4.798 0 0 0 4.791-4.793zm38.92 0a4.797 4.797 0 0 0-4.79-4.793 4.797 4.797 0 0 0-4.792 4.793 4.798 4.798 0 0 0 4.791 4.793 4.798 4.798 0 0 0 4.791-4.793zm4.718-9.364v-2.507h-2.506v1.253c0 .692.562 1.254 1.253 1.254zm-46.144 9.364a2.288 2.288 0 0 1-2.285 2.286 2.288 2.288 0 0 1-2.285-2.286 2.288 2.288 0 0 1 2.285-2.286 2.288 2.288 0 0 1 2.285 2.286zm38.92 0a2.288 2.288 0 0 1-2.285 2.286 2.288 2.288 0 0 1-2.285-2.286 2.288 2.288 0 0 1 2.285-2.286 2.288 2.288 0 0 1 2.285 2.286zm-31.77-7.005h16.512a1.106 1.106 0 0 1 0 2.212H30.103a1.106 1.106 0 0 1 0-2.212zM3.05 42.808c0-.61.495-1.105 1.106-1.105h14.153a1.106 1.106 0 1 1 0 2.211H4.156c-.61 0-1.106-.495-1.106-1.106zm15.259-15.41h-3.612v2.507h2.432a1.106 1.106 0 0 1 0 2.212h-2.432v3.613a1.106 1.106 0 1 1-2.211 0v-9.438c0-.61.495-1.106 1.105-1.106h4.718a1.106 1.106 0 1 1 0 2.212zm8.701 5.238l1.654 2.48a1.106 1.106 0 0 1-1.84 1.228l-2.03-3.047h-1.841v2.433a1.106 1.106 0 1 1-2.212 0v-9.438c0-.61.495-1.106 1.106-1.106h2.949a4.06 4.06 0 0 1 4.054 4.056 4.055 4.055 0 0 1-1.84 3.394zm-4.057-1.551h1.843a1.845 1.845 0 0 0 1.842-1.843 1.845 1.845 0 0 0-1.842-1.844h-1.843zM36 27.398h-3.612v2.51c.024-.001.049-.003.074-.003h2.359a1.106 1.106 0 0 1 0 2.212h-2.36a.893.893 0 0 1-.073-.004v2.511H36a1.106 1.106 0 0 1 0 2.212h-4.718c-.61 0-1.105-.495-1.105-1.106v-9.438c0-.61.495-1.106 1.105-1.106H36a1.106 1.106 0 0 1 0 2.212zm8.256 0h-3.612v2.507h1.253a1.106 1.106 0 0 1 0 2.212h-1.253v2.507h3.612a1.106 1.106 0 1 1 0 2.212h-4.718c-.61 0-1.106-.495-1.106-1.106v-9.438c0-.61.495-1.106 1.106-1.106h4.718a1.106 1.106 0 1 1 0 2.212z"/>
</symbol><symbol id="ico-wwd-ic-99" viewBox="0 0 60 60">
    <path d="M25.934 28.413a.947.947 0 0 1-.948.948h-5.432a.947.947 0 0 1 0-1.895h5.432c.524 0 .948.424.948.947zM54.38 55.322a.947.947 0 0 1-.947.947h-5.432a.947.947 0 1 1 0-1.895h5.432c.523 0 .947.425.947.948zM24.19 8.327a.947.947 0 0 1-.948.948H17.81a.947.947 0 1 1 0-1.895h5.432c.524 0 .948.424.948.947zm1.745 23.245a.947.947 0 0 1-.948.947h-5.432a.947.947 0 1 1 0-1.895h5.432c.524 0 .948.425.948.948zm-7.327 20.086c0-.523.424-.947.947-.947h5.432a.947.947 0 1 1 0 1.895h-5.432a.947.947 0 0 1-.947-.948zm0 3.159c0-.524.424-.948.947-.948h5.432a.947.947 0 1 1 0 1.895h-5.432a.947.947 0 0 1-.947-.947zm41.396-6.16v9.681c0 .918-.747 1.665-1.665 1.665H30.055a2.03 2.03 0 0 1-1.238-.421 2.448 2.448 0 0 1-1.377.421h-2.577a.947.947 0 1 1 0-1.895h2.577a.57.57 0 0 0 .569-.569V37.074a.569.569 0 0 0-.569-.568h-8.257v10.8a.947.947 0 0 1-1.535.744l-2.697-2.132-2.698 2.132a.947.947 0 0 1-1.535-.743V36.506H2.46a.569.569 0 0 0-.568.568v20.465a.57.57 0 0 0 .568.57h19.16a.947.947 0 1 1 0 1.894H2.46A2.466 2.466 0 0 1-.003 57.54V37.074c0-.572.197-1.098.525-1.516a2.449 2.449 0 0 1-.525-1.516V13.576a2.467 2.467 0 0 1 2.463-2.463h8.258V1.66c0-.918.747-1.664 1.665-1.664h15.856c.918 0 1.665.746 1.665 1.664v9.682c0 .375-.126.72-.335.998.212.364.335.785.335 1.235v7.655c.05-.003.1-.007.15-.007h19.613c1.128 0 2.045.917 2.045 2.045v10.52a.947.947 0 1 1-1.894 0V23.27a.151.151 0 0 0-.151-.15h-5.574v10.8a.948.948 0 0 1-1.535.743l-2.697-2.132-2.697 2.132a.947.947 0 0 1-1.535-.743V23.118h-5.574a.15.15 0 0 0-.15.151v34.688a.15.15 0 0 0 .15.151h10.762v-9.452c0-.918.747-1.664 1.665-1.664h7.336V36.948a.947.947 0 1 1 1.894 0v10.044h6.626c.918 0 1.665.746 1.665 1.664zm-22.48-25.539v8.845l1.75-1.383a.946.946 0 0 1 1.175 0l1.75 1.383v-8.845zm-24.91-1.266l1.75-1.382a.946.946 0 0 1 1.175 0l1.75 1.382v-8.844h-4.675zm15.396-10.74v-5.31H12.613v5.312zM12.613 3.907H28.01V1.89H12.613zm4.675 32.6h-4.675v8.844l1.75-1.383a.945.945 0 0 1 1.175 0l1.75 1.383zM27.44 34.61a.57.57 0 0 0 .569-.568V13.576a.57.57 0 0 0-.569-.568h-8.257v10.801a.947.947 0 0 1-1.535.743l-2.697-2.131-2.698 2.131a.947.947 0 0 1-1.534-.743V13.008H2.46a.57.57 0 0 0-.568.568v20.466a.57.57 0 0 0 .568.568zm15.272 16.291h15.396v-2.014H42.712zm0 7.207h15.396v-5.312H42.712z"/>
</symbol></svg>